<?xml version="1.0" encoding="UTF-8" standalone="no"?>
<!-- Created with Inkscape (http://www.inkscape.org/) -->

<svg
   version="1.1"
   id="svg2"
   xml:space="preserve"
   width="1000"
   height="666.66669"
   viewBox="0 0 1000 666.66669"
   sodipodi:docname="doctor-patient.ai"
   xmlns:inkscape="http://www.inkscape.org/namespaces/inkscape"
   xmlns:sodipodi="http://sodipodi.sourceforge.net/DTD/sodipodi-0.dtd"
   xmlns="http://www.w3.org/2000/svg"
   xmlns:svg="http://www.w3.org/2000/svg"><defs
     id="defs6"><clipPath
       clipPathUnits="userSpaceOnUse"
       id="clipPath18"><path
         d="M 0,500 H 750 V 0 H 0 Z"
         id="path16" /></clipPath></defs><sodipodi:namedview
     id="namedview4"
     pagecolor="#ffffff"
     bordercolor="#666666"
     borderopacity="1.0"
     inkscape:pageshadow="2"
     inkscape:pageopacity="0.0"
     inkscape:pagecheckerboard="0" /><g
     id="g8"
     inkscape:groupmode="layer"
     inkscape:label="doctor-patient"
     transform="matrix(1.3333333,0,0,-1.3333333,0,666.66667)"><path
       d="M 0,0 H 750 V 500 H 0 Z"
       style="fill:#ffffff;fill-opacity:1;fill-rule:nonzero;stroke:none"
       id="path10" /><g
       id="g12"><g
         id="g14"
         clip-path="url(#clipPath18)"><g
           id="g20"
           transform="translate(234.01,54.22)"><path
             d="m 0,0 c 90.67,-22.75 238.89,-25.29 338.93,22.6 92.41,44.23 111.43,206.85 48.01,299.09 -45.07,65.55 -131.42,91.7 -214.22,82.41 C 75.02,393.14 49.1,325.58 -15.73,277.04 -56.07,246.84 -138.46,254.27 -154.02,166.15 -171.74,65.72 -62.6,15.71 0,0"
             style="fill:#feefe6;fill-opacity:1;fill-rule:nonzero;stroke:none"
             id="path22" /></g><g
           id="g24"
           transform="translate(551.25,56.65)"><path
             d="M 0,0 C 11.63,201.76 99.39,226.6 113.17,209.62 142.04,174.06 41.8,62.73 0,0"
             style="fill:#d49ba0;fill-opacity:1;fill-rule:nonzero;stroke:none"
             id="path26" /></g><g
           id="g28"
           transform="translate(654.86,258.29)"><path
             d="M 0,0 C -49.13,-57.27 -84.18,-126.53 -101.23,-200.03"
             style="fill:none;stroke:#f2cdbf;stroke-width:1;stroke-linecap:round;stroke-linejoin:miter;stroke-miterlimit:10;stroke-dasharray:none;stroke-opacity:1"
             id="path30" /></g><g
           id="g32"
           transform="translate(628.97,256.56)"><path
             d="m 0,0 c 2.85,-8.45 4.4,-17.33 4.6,-26.24 9.38,2.02 18.95,3.11 28.55,3.25"
             style="fill:none;stroke:#f2cdbf;stroke-width:1;stroke-linecap:round;stroke-linejoin:miter;stroke-miterlimit:10;stroke-dasharray:none;stroke-opacity:1"
             id="path34" /></g><g
           id="g36"
           transform="translate(595.19,221.59)"><path
             d="m 0,0 c 5.52,-9.59 9.59,-20 12.05,-30.78 11.15,2.39 22.57,3.55 33.97,3.45"
             style="fill:none;stroke:#f2cdbf;stroke-width:1;stroke-linecap:round;stroke-linejoin:miter;stroke-miterlimit:10;stroke-dasharray:none;stroke-opacity:1"
             id="path38" /></g><g
           id="g40"
           transform="translate(571.91,170.88)"><path
             d="m 0,0 c 4.6,-7.21 8.57,-14.82 11.85,-22.72 10.79,4.36 22.48,6.47 34.11,6.15"
             style="fill:none;stroke:#f2cdbf;stroke-width:1;stroke-linecap:round;stroke-linejoin:miter;stroke-miterlimit:10;stroke-dasharray:none;stroke-opacity:1"
             id="path42" /></g><g
           id="g44"
           transform="translate(593.88,122.2)"><path
             d="m 0,0 c -7.08,0.52 -14.24,-0.02 -21.16,-1.58 -1.8,5.72 -4.36,11.2 -7.59,16.24"
             style="fill:none;stroke:#f2cdbf;stroke-width:1;stroke-linecap:round;stroke-linejoin:miter;stroke-miterlimit:10;stroke-dasharray:none;stroke-opacity:1"
             id="path46" /></g><g
           id="g48"
           transform="translate(551.25,56.65)"><path
             d="M 0,0 C 64.5,102.7 146.84,136.54 150.58,99.43 155.77,48.04 44.53,14.5 0,0"
             style="fill:#d49ba0;fill-opacity:1;fill-rule:nonzero;stroke:none"
             id="path50" /></g><g
           id="g52"
           transform="translate(691.58,152.45)"><path
             d="M 0,0 C -50.78,-24.24 -97.77,-56.41 -138.74,-94.98"
             style="fill:none;stroke:#f2cdbf;stroke-width:1;stroke-linecap:round;stroke-linejoin:miter;stroke-miterlimit:10;stroke-dasharray:none;stroke-opacity:1"
             id="path54" /></g><g
           id="g56"
           transform="translate(673.33,163.17)"><path
             d="m 0,0 c 0.21,-7.16 -0.47,-14.35 -2.04,-21.34 7.05,-0.68 13.87,-3.46 19.38,-7.91"
             style="fill:none;stroke:#f2cdbf;stroke-width:1;stroke-linecap:round;stroke-linejoin:miter;stroke-miterlimit:10;stroke-dasharray:none;stroke-opacity:1"
             id="path58" /></g><g
           id="g60"
           transform="translate(638.95,147.29)"><path
             d="m 0,0 c 1.33,-7.54 1.86,-15.22 1.56,-22.88 9.54,-0.87 18.84,-4.16 26.8,-9.47"
             style="fill:none;stroke:#f2cdbf;stroke-width:1;stroke-linecap:round;stroke-linejoin:miter;stroke-miterlimit:10;stroke-dasharray:none;stroke-opacity:1"
             id="path62" /></g><g
           id="g64"
           transform="translate(606.41,123.62)"><path
             d="m 0,0 c 2.63,-5.91 3.86,-12.43 3.58,-18.89 8.82,-0.69 17.47,-3.49 25.02,-8.09"
             style="fill:none;stroke:#f2cdbf;stroke-width:1;stroke-linecap:round;stroke-linejoin:miter;stroke-miterlimit:10;stroke-dasharray:none;stroke-opacity:1"
             id="path66" /></g><path
           d="m 438.11,217.83 h 143 v -15 h -143 z"
           style="fill:#f2cdbf;fill-opacity:1;fill-rule:nonzero;stroke:none"
           id="path68" /><g
           id="g70"
           transform="translate(576.89,202.83)"><path
             d="m 0,0 v -146.18 h -12.67 v 8 h -109.28 v -8 h -12.62 V 0 Z"
             style="fill:#f2cdbf;fill-opacity:1;fill-rule:nonzero;stroke:none"
             id="path72" /></g><path
           d="m 442.32,202.83 h 134.56 v -3 H 442.32 Z"
           style="fill:#d4a59b;fill-opacity:1;fill-rule:nonzero;stroke:none"
           id="path74" /><path
           d="m 455.78,189.73 h 107.25 v -32.5 H 455.78 Z"
           style="fill:#d4a59b;fill-opacity:1;fill-rule:nonzero;stroke:none"
           id="path76" /><path
           d="m 454.68,192.73 h 109.45 v -32.5 H 454.68 Z"
           style="fill:#faded2;fill-opacity:1;fill-rule:nonzero;stroke:none"
           id="path78" /><path
           d="m 455.78,148.73 h 107.25 v -32.5 H 455.78 Z"
           style="fill:#d4a59b;fill-opacity:1;fill-rule:nonzero;stroke:none"
           id="path80" /><path
           d="m 454.68,151.73 h 109.45 v -32.5 H 454.68 Z"
           style="fill:#faded2;fill-opacity:1;fill-rule:nonzero;stroke:none"
           id="path82" /><path
           d="M 455.78,107.73 H 563.03 V 75.23 H 455.78 Z"
           style="fill:#d4a59b;fill-opacity:1;fill-rule:nonzero;stroke:none"
           id="path84" /><path
           d="M 454.68,110.73 H 564.13 V 78.23 H 454.68 Z"
           style="fill:#faded2;fill-opacity:1;fill-rule:nonzero;stroke:none"
           id="path86" /><g
           id="g88"
           transform="translate(473.19,225.12)"><path
             d="M 0,0 V 22.75 H 6.25 V 0 C 6.25,-1.52 5.02,-2.75 3.5,-2.75 H 2.75 C 1.23,-2.75 0,-1.52 0,0"
             style="fill:#ffffff;fill-opacity:1;fill-rule:nonzero;stroke:none"
             id="path90" /></g><g
           id="g92"
           transform="translate(472.06,248.59)"><path
             d="M 0,0 V 0 C 0,0.39 0.32,0.72 0.72,0.72 H 7.79 C 8.18,0.72 8.51,0.4 8.51,0 8.51,-0.39 8.19,-0.72 7.79,-0.72 H 0.72 C 0.32,-0.71 0,-0.39 0,0"
             style="fill:#ffffff;fill-opacity:1;fill-rule:nonzero;stroke:none"
             id="path94" /></g><g
           id="g96"
           transform="translate(474.19,225.49)"><path
             d="M 0,0 V 14.88 H 4.25 V 0 C 4.25,-1.17 3.3,-2.12 2.13,-2.12 0.95,-2.12 0,-1.17 0,0"
             style="fill:#f0d3d8;fill-opacity:1;fill-rule:nonzero;stroke:none"
             id="path98" /></g><g
           id="g100"
           transform="translate(485.69,225.12)"><path
             d="M 0,0 V 22.75 H 6.25 V 0 C 6.25,-1.52 5.02,-2.75 3.5,-2.75 H 2.75 C 1.23,-2.75 0,-1.52 0,0"
             style="fill:#ffffff;fill-opacity:1;fill-rule:nonzero;stroke:none"
             id="path102" /></g><g
           id="g104"
           transform="translate(484.56,248.59)"><path
             d="M 0,0 V 0 C 0,0.39 0.32,0.72 0.72,0.72 H 7.79 C 8.18,0.72 8.51,0.4 8.51,0 8.51,-0.39 8.19,-0.72 7.79,-0.72 H 0.72 C 0.32,-0.71 0,-0.39 0,0"
             style="fill:#ffffff;fill-opacity:1;fill-rule:nonzero;stroke:none"
             id="path106" /></g><g
           id="g108"
           transform="translate(486.69,225.49)"><path
             d="M 0,0 V 14.88 H 4.25 V 0 C 4.25,-1.17 3.3,-2.12 2.13,-2.12 0.95,-2.12 0,-1.17 0,0"
             style="fill:#f0d3d8;fill-opacity:1;fill-rule:nonzero;stroke:none"
             id="path110" /></g><g
           id="g112"
           transform="translate(498.94,225.12)"><path
             d="M 0,0 V 22.75 H 6.25 V 0 C 6.25,-1.52 5.02,-2.75 3.5,-2.75 H 2.75 C 1.23,-2.75 0,-1.52 0,0"
             style="fill:#ffffff;fill-opacity:1;fill-rule:nonzero;stroke:none"
             id="path114" /></g><g
           id="g116"
           transform="translate(497.81,248.59)"><path
             d="M 0,0 V 0 C 0,0.39 0.32,0.72 0.72,0.72 H 7.79 C 8.18,0.72 8.51,0.4 8.51,0 8.51,-0.39 8.19,-0.72 7.79,-0.72 H 0.72 C 0.32,-0.71 0,-0.39 0,0"
             style="fill:#ffffff;fill-opacity:1;fill-rule:nonzero;stroke:none"
             id="path118" /></g><g
           id="g120"
           transform="translate(499.94,225.49)"><path
             d="M 0,0 V 14.88 H 4.25 V 0 C 4.25,-1.17 3.3,-2.12 2.13,-2.12 0.95,-2.12 0,-1.17 0,0"
             style="fill:#f0d3d8;fill-opacity:1;fill-rule:nonzero;stroke:none"
             id="path122" /></g><g
           id="g124"
           transform="translate(512.44,225.12)"><path
             d="M 0,0 V 22.75 H 6.25 V 0 C 6.25,-1.52 5.02,-2.75 3.5,-2.75 H 2.75 C 1.23,-2.75 0,-1.52 0,0"
             style="fill:#ffffff;fill-opacity:1;fill-rule:nonzero;stroke:none"
             id="path126" /></g><g
           id="g128"
           transform="translate(511.31,248.59)"><path
             d="M 0,0 V 0 C 0,0.39 0.32,0.72 0.72,0.72 H 7.79 C 8.18,0.72 8.51,0.4 8.51,0 8.51,-0.39 8.19,-0.72 7.79,-0.72 H 0.72 C 0.32,-0.71 0,-0.39 0,0"
             style="fill:#ffffff;fill-opacity:1;fill-rule:nonzero;stroke:none"
             id="path130" /></g><g
           id="g132"
           transform="translate(513.44,225.49)"><path
             d="M 0,0 V 14.88 H 4.25 V 0 C 4.25,-1.17 3.3,-2.12 2.13,-2.12 0.95,-2.12 0,-1.17 0,0"
             style="fill:#f0d3d8;fill-opacity:1;fill-rule:nonzero;stroke:none"
             id="path134" /></g><g
           id="g136"
           transform="translate(526.94,225.12)"><path
             d="M 0,0 V 22.75 H 6.25 V 0 C 6.25,-1.52 5.02,-2.75 3.5,-2.75 H 2.75 C 1.23,-2.75 0,-1.52 0,0"
             style="fill:#ffffff;fill-opacity:1;fill-rule:nonzero;stroke:none"
             id="path138" /></g><g
           id="g140"
           transform="translate(525.81,248.59)"><path
             d="M 0,0 V 0 C 0,0.39 0.32,0.72 0.72,0.72 H 7.79 C 8.18,0.72 8.51,0.4 8.51,0 8.51,-0.39 8.19,-0.72 7.79,-0.72 H 0.72 C 0.32,-0.71 0,-0.39 0,0"
             style="fill:#ffffff;fill-opacity:1;fill-rule:nonzero;stroke:none"
             id="path142" /></g><g
           id="g144"
           transform="translate(527.94,225.49)"><path
             d="M 0,0 V 14.88 H 4.25 V 0 C 4.25,-1.17 3.3,-2.12 2.13,-2.12 0.95,-2.12 0,-1.17 0,0"
             style="fill:#f0d3d8;fill-opacity:1;fill-rule:nonzero;stroke:none"
             id="path146" /></g><path
           d="m 467.01,246.56 h 77 v -2 h -77 z"
           style="fill:#a7c2d9;fill-opacity:1;fill-rule:nonzero;stroke:none"
           id="path148" /><path
           d="m 462.98,222.83 h 86 v -5 h -86 z"
           style="fill:#d49ba0;fill-opacity:1;fill-rule:nonzero;stroke:none"
           id="path150" /><path
           d="m 466.39,249.31 h 2.19 v -28.97 h -2.19 z"
           style="fill:#d49ba0;fill-opacity:1;fill-rule:nonzero;stroke:none"
           id="path152" /><path
           d="m 542.7,249.31 h 2.19 v -28.97 h -2.19 z"
           style="fill:#d49ba0;fill-opacity:1;fill-rule:nonzero;stroke:none"
           id="path154" /><g
           id="g156"
           transform="translate(152.33,146.32)"><path
             d="m 0,0 c 18.12,22.73 26.97,52.54 24.16,81.4 -2.81,28.86 -17.25,56.43 -40.24,75.59 0.33,-21.38 -0.55,-42.78 -2.65,-64.06 -1.99,-20.24 -5.05,-40.94 -0.21,-60.7 C -16.06,20.48 -10.4,9.42 0,0"
             style="fill:#bf828b;fill-opacity:1;fill-rule:nonzero;stroke:none"
             id="path158" /></g><g
           id="g160"
           transform="translate(150.63,120.37)"><path
             d="M 0,0 C 0,71.53 18.98,94.62 -8.83,170.11"
             style="fill:none;stroke:#f2cdbf;stroke-width:1;stroke-linecap:round;stroke-linejoin:miter;stroke-miterlimit:10;stroke-dasharray:none;stroke-opacity:1"
             id="path162" /></g><g
           id="g164"
           transform="translate(155.04,278.07)"><path
             d="m 0,0 c -1.94,-4.14 -3.88,-8.29 -5.82,-12.43 -3.45,1.7 -7.23,2.73 -11.06,3.02"
             style="fill:none;stroke:#f2cdbf;stroke-width:1;stroke-linecap:round;stroke-linejoin:miter;stroke-miterlimit:10;stroke-dasharray:none;stroke-opacity:1"
             id="path166" /></g><g
           id="g168"
           transform="translate(135.67,235.04)"><path
             d="m 0,0 c 7.29,-0.29 14.5,-2.26 20.93,-5.69 4.27,5.27 9.35,9.89 15,13.66"
             style="fill:none;stroke:#f2cdbf;stroke-width:1;stroke-linecap:round;stroke-linejoin:miter;stroke-miterlimit:10;stroke-dasharray:none;stroke-opacity:1"
             id="path170" /></g><g
           id="g172"
           transform="translate(134.84,200.34)"><path
             d="m 0,0 c 7.32,0.6 14.84,-1.32 20.96,-5.36 5.95,6.3 12.8,11.76 20.28,16.17"
             style="fill:none;stroke:#f2cdbf;stroke-width:1;stroke-linecap:round;stroke-linejoin:miter;stroke-miterlimit:10;stroke-dasharray:none;stroke-opacity:1"
             id="path174" /></g><g
           id="g176"
           transform="translate(138.15,171.75)"><path
             d="M 0,0 C 5.49,-0.59 10.74,-3.21 14.49,-7.24 18.46,-1.83 23.31,2.95 28.8,6.84"
             style="fill:none;stroke:#f2cdbf;stroke-width:1;stroke-linecap:round;stroke-linejoin:miter;stroke-miterlimit:10;stroke-dasharray:none;stroke-opacity:1"
             id="path178" /></g><g
           id="g180"
           transform="translate(165.38,148.5)"><path
             d="m 0,0 c 0,0 -15.4,33.69 4.33,70.56 10.9,20.37 34.45,45.16 63.82,65.89 0,0 -13.98,-76.1 -31.35,-107.92 C 23.42,4.01 0,0 0,0"
             style="fill:#d49ba0;fill-opacity:1;fill-rule:nonzero;stroke:none"
             id="path182" /></g><g
           id="g184"
           transform="translate(222.9,270.22)"><path
             d="M 0,0 C -30.34,-48.74 -51.94,-101.92 -69.07,-156.63"
             style="fill:none;stroke:#f2cdbf;stroke-width:1;stroke-linecap:round;stroke-linejoin:miter;stroke-miterlimit:10;stroke-dasharray:none;stroke-opacity:1"
             id="path186" /></g><g
           id="g188"
           transform="translate(203.6,258.15)"><path
             d="m 0,0 c 1.82,-4.24 3.28,-8.64 4.35,-13.12 5.15,0.98 10.36,1.63 15.59,1.96"
             style="fill:none;stroke:#f2cdbf;stroke-width:1;stroke-linecap:round;stroke-linejoin:miter;stroke-miterlimit:10;stroke-dasharray:none;stroke-opacity:1"
             id="path190" /></g><g
           id="g192"
           transform="translate(179.5,227.57)"><path
             d="m 0,0 c 4.26,-6.04 7.71,-12.64 10.21,-19.58 8.03,3.87 16.67,6.49 25.51,7.74"
             style="fill:none;stroke:#f2cdbf;stroke-width:1;stroke-linecap:round;stroke-linejoin:miter;stroke-miterlimit:10;stroke-dasharray:none;stroke-opacity:1"
             id="path194" /></g><g
           id="g196"
           transform="translate(165.33,201.71)"><path
             d="m 0,0 c 5.21,-6.69 9.17,-14.34 11.59,-22.44 9.04,3.81 18.49,6.66 28.14,8.49"
             style="fill:none;stroke:#f2cdbf;stroke-width:1;stroke-linecap:round;stroke-linejoin:miter;stroke-miterlimit:10;stroke-dasharray:none;stroke-opacity:1"
             id="path198" /></g><g
           id="g200"
           transform="translate(161.49,170.59)"><path
             d="m 0,0 c 3,-3.35 5.82,-6.87 8.43,-10.53 6.65,2.73 13.64,4.68 20.75,5.78"
             style="fill:none;stroke:#f2cdbf;stroke-width:1;stroke-linecap:round;stroke-linejoin:miter;stroke-miterlimit:10;stroke-dasharray:none;stroke-opacity:1"
             id="path202" /></g><g
           id="g204"
           transform="translate(136.34,141.68)"><path
             d="m 0,0 c 0,0 13.35,18.93 3.48,51.76 -13.52,44.98 -69.83,76.88 -69.83,76.88 0,0 15.1,-61.54 26.88,-92.2 C -27.54,5.42 0,0 0,0"
             style="fill:#d49ba0;fill-opacity:1;fill-rule:nonzero;stroke:none"
             id="path206" /></g><g
           id="g208"
           transform="translate(139.82,125.18)"><path
             d="M 0,0 C 0,0 -7.68,61.9 -62.37,136.52"
             style="fill:none;stroke:#f2cdbf;stroke-width:1;stroke-linecap:round;stroke-linejoin:miter;stroke-miterlimit:10;stroke-dasharray:none;stroke-opacity:1"
             id="path210" /></g><g
           id="g212"
           transform="translate(97.27,248.65)"><path
             d="m 0,0 c -1.6,-3.72 -2.67,-7.66 -3.17,-11.67 -3.82,1.08 -7.8,1.63 -11.78,1.62"
             style="fill:none;stroke:#f2cdbf;stroke-width:1;stroke-linecap:round;stroke-linejoin:miter;stroke-miterlimit:10;stroke-dasharray:none;stroke-opacity:1"
             id="path214" /></g><g
           id="g216"
           transform="translate(90.05,206.97)"><path
             d="m 0,0 c 7.46,1.15 15.19,0.61 22.41,-1.57 1.4,6.69 4.55,13.02 9.05,18.19"
             style="fill:none;stroke:#f2cdbf;stroke-width:1;stroke-linecap:round;stroke-linejoin:miter;stroke-miterlimit:10;stroke-dasharray:none;stroke-opacity:1"
             id="path218" /></g><g
           id="g220"
           transform="translate(137.78,194.06)"><path
             d="m 0,0 c -5.09,-5.59 -9.08,-12.17 -11.67,-19.25 -7.07,3.06 -15.22,3.58 -22.63,1.44"
             style="fill:none;stroke:#f2cdbf;stroke-width:1;stroke-linecap:round;stroke-linejoin:miter;stroke-miterlimit:10;stroke-dasharray:none;stroke-opacity:1"
             id="path222" /></g><g
           id="g224"
           transform="translate(119.4,151.62)"><path
             d="m 0,0 c 4.87,0.89 9.89,0.95 14.78,0.2 1.7,3.91 4.14,7.5 7.16,10.52"
             style="fill:none;stroke:#f2cdbf;stroke-width:1;stroke-linecap:round;stroke-linejoin:miter;stroke-miterlimit:10;stroke-dasharray:none;stroke-opacity:1"
             id="path226" /></g><g
           id="g228"
           transform="translate(187.68,136.47)"><path
             d="m 0,0 -2.11,-11.9 -2.31,-13.09 -1.22,-6.86 -2.31,-13.1 -6.16,-34.87 h -44.98 l -6.28,34.87 -2.36,13.1 -1.23,6.86 -2.37,13.09 -2.14,11.9 z"
             style="fill:#d49ba0;fill-opacity:1;fill-rule:nonzero;stroke:none"
             id="path230" /></g><g
           id="g232"
           transform="translate(185.57,124.57)"><path
             d="M 0,0 -2.31,-13.09 H -66.85 L -69.22,0 Z"
             style="fill:#faded2;fill-opacity:1;fill-rule:nonzero;stroke:none"
             id="path234" /></g><g
           id="g236"
           transform="translate(182.04,104.62)"><path
             d="M 0,0 -2.31,-13.1 H -59.73 L -62.09,0 Z"
             style="fill:#faded2;fill-opacity:1;fill-rule:nonzero;stroke:none"
             id="path238" /></g><path
           d="m 195.88,74.9 h 73.67 v -6.85 h -73.67 z"
           style="fill:#326894;fill-opacity:1;fill-rule:nonzero;stroke:none"
           id="path240" /><g
           id="g242"
           transform="translate(208.49,138.32)"><path
             d="m 0,0 c 0,-0.17 -0.02,-0.35 -0.04,-0.52 l -1.14,-9.44 -10.19,-84.11 c -0.27,-2.26 -2.27,-3.86 -4.47,-3.57 -2.03,0.26 -3.52,2.03 -3.52,4.07 0,0.17 0.02,0.35 0.04,0.52 L -9.26,-9.96 -8,0.49 c 0.28,2.25 2.27,3.86 4.47,3.57 C -1.48,3.81 0,2.04 0,0"
             style="fill:#4d8ab3;fill-opacity:1;fill-rule:nonzero;stroke:none"
             id="path244" /></g><g
           id="g246"
           transform="translate(208.49,138.32)"><path
             d="m 0,0 c 0,-0.17 -0.02,-0.35 -0.04,-0.52 l -1.14,-9.44 h -8.07 l 1.26,10.45 c 0.28,2.25 2.27,3.86 4.47,3.57 C -1.48,3.81 0,2.04 0,0"
             style="fill:#326894;fill-opacity:1;fill-rule:nonzero;stroke:none"
             id="path248" /></g><g
           id="g250"
           transform="translate(237.73,139.03)"><path
             d="m 0,0 v -94.26 c 0,-2.28 -1.79,-4.11 -4,-4.11 -1.1,0 -2.1,0.46 -2.83,1.21 -0.72,0.74 -1.17,1.76 -1.17,2.91 V 0.01 c 0,2.28 1.8,4.11 4,4.11 1.11,0 2.11,-0.46 2.83,-1.21 C -0.45,2.16 0,1.13 0,0"
             style="fill:#4d8ab3;fill-opacity:1;fill-rule:nonzero;stroke:none"
             id="path252" /></g><g
           id="g254"
           transform="translate(236.55,141.93)"><path
             d="m 0,0 c 0.73,-0.74 1.17,-1.77 1.17,-2.91 v -10.66 h -8.01 v 10.66 c 0,2.28 1.8,4.11 4,4.11 C -1.72,1.21 -0.72,0.75 0,0"
             style="fill:#326894;fill-opacity:1;fill-rule:nonzero;stroke:none"
             id="path256" /></g><g
           id="g258"
           transform="translate(277.99,44.77)"><path
             d="m 0,0 c 0,-2.06 -1.48,-3.82 -3.51,-4.08 -2.2,-0.28 -4.2,1.32 -4.47,3.57 l -10.19,84.11 -1.14,9.44 c -0.02,0.17 -0.04,0.35 -0.04,0.52 0,2.04 1.49,3.8 3.52,4.07 2.2,0.28 4.19,-1.32 4.47,-3.57 L -10.1,83.61 -0.04,0.52 C -0.01,0.33 0,0.17 0,0"
             style="fill:#4d8ab3;fill-opacity:1;fill-rule:nonzero;stroke:none"
             id="path260" /></g><g
           id="g262"
           transform="translate(267.9,128.37)"><path
             d="m 0,0 h -8.07 l -1.14,9.44 c -0.02,0.17 -0.04,0.35 -0.04,0.52 0,2.04 1.49,3.8 3.52,4.07 2.2,0.28 4.19,-1.32 4.47,-3.57 z"
             style="fill:#326894;fill-opacity:1;fill-rule:nonzero;stroke:none"
             id="path264" /></g><g
           id="g266"
           transform="translate(285.28,149.66)"><path
             d="m 0,0 v -2.67 c 0,-4.67 -3.78,-8.45 -8.45,-8.45 h -75.64 c -4.67,0 -8.45,3.78 -8.45,8.45 V 0 c 0,4.67 3.78,8.45 8.45,8.45 H -8.45 C -3.78,8.46 0,4.67 0,0"
             style="fill:#994403;fill-opacity:1;fill-rule:nonzero;stroke:none"
             id="path268" /></g><g
           id="g270"
           transform="translate(285.28,149.66)"><path
             d="m 0,0 v -2.67 c 0,-4.67 -3.78,-8.45 -8.45,-8.45 h -68.66 c -4.67,0 -8.45,3.78 -8.45,8.45 V 0 c 0,4.67 3.78,8.45 8.45,8.45 H -8.45 C -3.78,8.46 0,4.67 0,0"
             style="fill:#852e03;fill-opacity:1;fill-rule:nonzero;stroke:none"
             id="path272" /></g><g
           id="g274"
           transform="translate(206.29,318.08)"><path
             d="m 0,0 c -0.95,-1.94 -1.91,-3.89 -2.76,-5.76 -0.58,-3.34 -0.24,-6.76 0,-10.15 0.24,-3.39 0.38,-6.84 -0.57,-10.11 -0.95,-3.27 -3.16,-6.35 -6.42,-7.6 -2.12,-0.81 -4.65,-0.87 -6.29,-2.41 -1.86,-1.75 -1.73,-4.69 -1.05,-7.11 0.57,-2.03 1.47,-4.05 3.08,-5.46 1.61,-1.41 4.2,-2.33 5.96,-1.31 1.74,1.02 4.05,0.28 5.31,-1.26 1.26,-1.54 1.85,-3.53 3.09,-5.09 1.76,-2.22 4.71,-3.37 7.6,-3.44 2.89,-0.07 5.97,0.34 7.9,1.54 4.13,2.59 9.28,4.31 13.51,1.88 2.23,-1.28 3.99,-3.32 6.4,-4.24 2.05,-0.78 4.44,-0.63 6.37,0.39 1.93,1.02 2.67,3.2 3.88,4.87 2.22,3.06 7.6,0.59 11.32,1.6 3.98,1.09 6.66,5.46 5.73,9.37 -0.93,3.91 -5.26,5.3 -9.12,5.88 -2.65,0.4 -3.74,3.77 -4.35,6.29 -0.61,2.53 -0.5,5.16 -0.39,7.76 0.23,5.29 2.64,17.63 1.11,19.29 -0.8,0.87 -3.8,3.07 -4.89,3.56 C 40.4,0.78 35.38,3.08 30.36,5.37 25.79,7.46 21,9.59 15.95,9.45 10.91,9.34 3.62,7.37 0,0"
             style="fill:#732d02;fill-opacity:1;fill-rule:nonzero;stroke:none"
             id="path276" /></g><g
           id="g278"
           transform="translate(223.69,270.45)"><path
             d="m 0,0 c 0,0 -22.28,-3.52 -24.64,-11.41 -2.36,-7.89 11.17,-63.1 11.17,-63.1 l 50.06,3.06 c 0,0 3.64,63.64 -4.32,67.63 C 24.31,0.17 0,0 0,0"
             style="fill:#ebf5ff;fill-opacity:1;fill-rule:nonzero;stroke:none"
             id="path280" /></g><g
           id="g282"
           transform="translate(243.12,268.26)"><path
             d="m 0,0 c 0,0 -3.25,-11.07 -9.15,-13.49 -5.89,-2.43 -18.79,12.34 -18.79,12.34 2.6,1.65 3.58,5.62 3.9,9.24 0.32,3.68 -0.04,6.98 -0.04,6.98 l 17.9,-3.44 C -6.64,6.09 -5.01,3.18 -3.3,1.65 -1.68,0.19 0,0 0,0"
             style="fill:#fbbd9a;fill-opacity:1;fill-rule:nonzero;stroke:none"
             id="path284" /></g><g
           id="g286"
           transform="translate(239.82,269.9)"><path
             d="m 0,0 c -8.5,-1.12 -16.2,3.14 -20.74,6.44 0.32,3.68 -0.04,6.98 -0.04,6.98 L -2.88,9.98 C -3.35,4.45 -1.71,1.53 0,0"
             style="fill:#f0997f;fill-opacity:1;fill-rule:nonzero;stroke:none"
             id="path288" /></g><g
           id="g290"
           transform="translate(291.6,60.69)"><path
             d="m 0,0 c -1.93,-3.21 -35.43,17.44 -35.43,21 0,2.32 4.37,5.68 7.41,7.72 1.63,1.1 2.87,1.83 2.87,1.83 l 7.82,3.59 3.52,-1.89 C -8.68,23.41 -3.78,14.2 -1.33,7.79 0.13,4.01 0.72,1.19 0,0"
             style="fill:#d43226;fill-opacity:1;fill-rule:nonzero;stroke:none"
             id="path292" /></g><g
           id="g294"
           transform="translate(290.28,68.49)"><path
             d="m 0,0 c -9.6,-0.4 -22.29,15.13 -26.69,20.93 1.63,1.1 2.87,1.83 2.87,1.83 l 7.82,3.59 3.52,-1.89 C -7.34,15.62 -2.45,6.41 0,0"
             style="fill:#f0997f;fill-opacity:1;fill-rule:nonzero;stroke:none"
             id="path296" /></g><g
           id="g298"
           transform="translate(257.13,194.28)"><path
             d="m 0,0 c 0,0 60.98,-7.72 63.05,-23.33 2.07,-15.6 -38.25,-84.49 -38.25,-84.49 l -14.5,3.78 18.92,61.58 -48.55,20.6 L -9.66,0 Z"
             style="fill:#002a42;fill-opacity:1;fill-rule:nonzero;stroke:none"
             id="path300" /></g><g
           id="g302"
           transform="translate(276.78,58.91)"><path
             d="m 0,0 c -1.93,-3.21 -35.43,17.44 -35.43,21 0,2.32 4.37,5.68 7.41,7.72 1.63,1.1 2.87,1.83 2.87,1.83 l 7.82,3.59 3.52,-1.89 C -8.68,23.41 -3.78,14.2 -1.33,7.79 0.13,4.01 0.72,1.19 0,0"
             style="fill:#eb4a2a;fill-opacity:1;fill-rule:nonzero;stroke:none"
             id="path304" /></g><g
           id="g306"
           transform="translate(275.46,66.71)"><path
             d="m 0,0 c -9.6,-0.4 -22.29,15.13 -26.69,20.93 1.63,1.1 2.87,1.83 2.87,1.83 l 7.82,3.59 3.52,-1.89 C -7.34,15.62 -2.45,6.41 0,0"
             style="fill:#fbbd9a;fill-opacity:1;fill-rule:nonzero;stroke:none"
             id="path308" /></g><g
           id="g310"
           transform="translate(205.7,199.51)"><path
             d="m 0,0 c 0,0 -21.13,-41.78 16.05,-46.29 27.01,-3.28 44.91,-2.62 45.47,-4.12 0.92,-2.41 -17.57,-60.75 -17.57,-60.75 l 18.21,-5.76 c 0,0 37.69,80.95 35.64,88 -1.69,5.8 -53.7,14.65 -53.7,14.65 4.38,2.08 7.6,9.65 7.13,19.41 z"
             style="fill:#06384f;fill-opacity:1;fill-rule:nonzero;stroke:none"
             id="path312" /></g><g
           id="g314"
           transform="translate(211.56,203.13)"><path
             d="M 0,0 C 0,0 -12.12,-26.67 -2.42,-37.49 9.01,-50.24 59,-46.13 62.48,-50.64 65.27,-54.25 43.17,-113.22 43.17,-113.22"
             style="fill:none;stroke:#27788f;stroke-width:1;stroke-linecap:round;stroke-linejoin:miter;stroke-miterlimit:10;stroke-dasharray:none;stroke-opacity:1"
             id="path316" /></g><g
           id="g318"
           transform="translate(251.12,90.8)"><path
             d="M 0,0 17.62,-5.37"
             style="fill:none;stroke:#27788f;stroke-width:1;stroke-linecap:round;stroke-linejoin:miter;stroke-miterlimit:10;stroke-dasharray:none;stroke-opacity:1"
             id="path320" /></g><g
           id="g322"
           transform="translate(251.6783,302.545)"><path
             d="M 0,0 C 4.297,0.487 8.068,-1.663 8.424,-4.802 8.78,-7.941 5.585,-10.88 1.288,-11.367 -3.009,-11.854 -6.78,-9.704 -7.136,-6.565 -7.492,-3.426 -4.297,-0.487 0,0"
             style="fill:#f0997f;fill-opacity:1;fill-rule:nonzero;stroke:none"
             id="path324" /></g><g
           id="g326"
           transform="translate(209.14,302.8)"><path
             d="M 0,0 C 0,14.83 9.42,26.85 22.07,26.85 34.72,26.85 44.98,14.83 44.98,0 44.98,-14.83 38.51,-27.59 26.6,-28.05 14.6,-28.51 0,-14.82 0,0"
             style="fill:#fbbd9a;fill-opacity:1;fill-rule:nonzero;stroke:none"
             id="path328" /></g><g
           id="g330"
           transform="translate(210.37,299.36)"><path
             d="M 0,0 C 6.36,2.95 11.6,8.23 13.95,14.68 17.24,10.97 22.04,8.87 26.91,7.96 31.78,7.05 36.78,7.22 41.46,7.35 42.98,6.06 44.04,4.24 44.4,2.28 44.93,6.68 44.46,11.21 43.03,15.41 30.43,19.25 17.91,23.33 5.46,27.64 3.6,18.77 1.74,9.9 0,0"
             style="fill:#f0997f;fill-opacity:1;fill-rule:nonzero;stroke:none"
             id="path332" /></g><g
           id="g334"
           transform="translate(222.24,320.83)"><path
             d="m 0,0 c 2.71,-5.11 7.95,-8.51 13.46,-10.27 5.51,-1.75 11.37,-2.04 17.23,-2.21 0.92,-3.22 1.11,-6.99 1.11,-10.29 2.02,4.68 3.06,8.67 3.25,12.55 0.05,1.12 0.05,2.26 0.02,3.46 C 34.78,1.4 31.4,6.04 26.87,9.52 22.33,13 16.76,14.48 11.04,14.48 5.39,14.48 1.8,13.2 -0.35,10.97 -1.11,10.18 -1.69,9.28 -2.11,8.27 -3.03,6.11 -2,3.76 0,0"
             style="fill:#8c4206;fill-opacity:1;fill-rule:nonzero;stroke:none"
             id="path336" /></g><g
           id="g338"
           transform="translate(203.4,297.57)"><path
             d="m 0,0 c -0.19,7.25 -0.65,19.66 2.27,25.59 1.91,3.88 5.52,7.11 9.81,7.69 4.29,0.57 9.03,-2.08 10.02,-6.29 C 20.2,17.25 15.31,8.31 8.38,1.3 5.98,0.14 2.44,-0.63 0,0"
             style="fill:#8c4206;fill-opacity:1;fill-rule:nonzero;stroke:none"
             id="path340" /></g><g
           id="g342"
           transform="translate(221.88,331.79)"><path
             d="m 0,0 c 8.29,2.24 17.57,0.28 24.42,-4.92 5.31,-4.03 9.12,-9.86 10.99,-16.27 0.05,1.12 0.05,2.26 0.02,3.46 -0.29,8.16 -3.67,12.8 -8.2,16.28 C 22.69,2.03 17.12,3.51 11.4,3.51 5.74,3.51 2.15,2.23 0,0"
             style="fill:#a66317;fill-opacity:1;fill-rule:nonzero;stroke:none"
             id="path344" /></g><g
           id="g346"
           transform="translate(200.7269,297.3424)"><path
             d="m 0,0 c 0.783,3.061 4.815,4.672 9.004,3.6 4.19,-1.073 6.951,-4.423 6.167,-7.484 C 14.388,-6.944 10.357,-8.556 6.167,-7.483 1.978,-6.411 -0.783,-3.061 0,0"
             style="fill:#fbbd9a;fill-opacity:1;fill-rule:nonzero;stroke:none"
             id="path348" /></g><g
           id="g350"
           transform="translate(232.06,297.3)"><path
             d="m 0,0 c 0.657,0 1.19,-0.851 1.19,-1.9 0,-1.049 -0.533,-1.9 -1.19,-1.9 -0.657,0 -1.19,0.851 -1.19,1.9 0,1.049 0.533,1.9 1.19,1.9"
             style="fill:#2f344d;fill-opacity:1;fill-rule:nonzero;stroke:none"
             id="path352" /></g><g
           id="g354"
           transform="translate(248.61,297.29)"><path
             d="m 0,0 c 0.657,0 1.19,-0.851 1.19,-1.9 0,-1.049 -0.533,-1.9 -1.19,-1.9 -0.657,0 -1.19,0.851 -1.19,1.9 0,1.049 0.533,1.9 1.19,1.9"
             style="fill:#2f344d;fill-opacity:1;fill-rule:nonzero;stroke:none"
             id="path356" /></g><g
           id="g358"
           transform="translate(245.13,304.25)"><path
             d="M 0,0 C 2.04,0.69 4.94,0.54 6.95,-0.84"
             style="fill:none;stroke:#8c4206;stroke-width:2;stroke-linecap:round;stroke-linejoin:miter;stroke-miterlimit:10;stroke-dasharray:none;stroke-opacity:1"
             id="path360" /></g><g
           id="g362"
           transform="translate(233.08,304.46)"><path
             d="M 0,0 C -2.23,0.99 -6.32,0.78 -8.25,-1.42"
             style="fill:none;stroke:#8c4206;stroke-width:2;stroke-linecap:round;stroke-linejoin:miter;stroke-miterlimit:10;stroke-dasharray:none;stroke-opacity:1"
             id="path364" /></g><g
           id="g366"
           transform="translate(240.53,296.55)"><path
             d="M 0,0 C 0.54,-2.02 0.14,-4.53 -0.51,-6.11"
             style="fill:none;stroke:#d45e4e;stroke-width:2;stroke-linecap:round;stroke-linejoin:miter;stroke-miterlimit:10;stroke-dasharray:none;stroke-opacity:1"
             id="path368" /></g><g
           id="g370"
           transform="translate(239.1,284.56)"><path
             d="M 0,0 C -2.64,-0.52 -7.42,0.99 -8.72,3.19"
             style="fill:none;stroke:#d45e4e;stroke-width:2;stroke-linecap:round;stroke-linejoin:miter;stroke-miterlimit:10;stroke-dasharray:none;stroke-opacity:1"
             id="path372" /></g><g
           id="g374"
           transform="translate(248.61,261.52)"><path
             d="m 0,0 8.93,5.39 c 0,0 7.53,-0.64 12.63,-10.01 5.07,-9.32 14.62,-39.45 17.63,-40.78 3.01,-1.33 39.7,-1.8 39.7,-1.8 l 0.5,-10.75 c 0,0 -44.94,-7.13 -50.3,-4.18 -5.36,2.96 -22.71,37.7 -22.71,37.7 z"
             style="fill:#fbbd9a;fill-opacity:1;fill-rule:nonzero;stroke:none"
             id="path376" /></g><g
           id="g378"
           transform="translate(248.06,262.73)"><path
             d="m 0,0 1.72,6.02 c 0,0 9.86,-0.42 14.9,-4.37 5.04,-3.95 9.17,-14.69 9.17,-14.69 l -12.82,-20.7 z"
             style="fill:#de3b26;fill-opacity:1;fill-rule:nonzero;stroke:none"
             id="path380" /></g><g
           id="g382"
           transform="translate(263.27,221.22)"><path
             d="M 0,0 C 0,0 13.77,11.89 15.89,14.86 16.94,16.33 24.39,-0.98 23.13,-3.1 21.12,-6.48 8.57,-14.6 7.87,-14.13 7.17,-13.66 0,0 0,0"
             style="fill:#163649;fill-opacity:1;fill-rule:nonzero;stroke:none"
             id="path384" /></g><g
           id="g386"
           transform="translate(259.66,232.05)"><path
             d="m 0,0 c 4.15,6.59 8.3,13.17 12.44,19.76 0.23,0.36 0.47,0.74 0.83,0.98 1.03,0.69 2.53,-0.16 2.95,-1.32 0.43,-1.17 0.12,-2.46 -0.2,-3.66 1.33,0.21 2.53,-1.09 2.69,-2.42 C 18.88,12 18.3,10.69 17.67,9.5 13.83,2.23 7.39,-3.62 -0.21,-6.75 -0.56,-4.49 -1.25,-1.98 0,0"
             style="fill:#b82621;fill-opacity:1;fill-rule:nonzero;stroke:none"
             id="path388" /></g><g
           id="g390"
           transform="translate(321.83,212.64)"><path
             d="m 0,0 c 5.14,3.61 15.08,10.77 15.83,11.11 0.88,0.4 6.92,0.43 10.21,-0.56 3.29,-0.99 6.35,-3.26 7.54,-6.5 C 33.91,3.14 34,1.93 33.2,1.4 32.68,1.05 31.96,1.17 31.42,1.49 c -0.54,0.32 -0.94,0.83 -1.37,1.29 -2.2,2.39 -4.19,3.33 -7.8,3.53 4.28,-0.65 7,-3.29 8.28,-7.45 0.25,-0.83 0.35,-1.88 -0.32,-2.42 -0.53,-0.42 -1.33,-0.31 -1.9,0.06 -0.57,0.37 -0.96,0.95 -1.39,1.48 -1.57,2 -3.67,3.57 -6.02,4.51 3.27,-1.39 5.72,-4.58 6.24,-8.12 0.08,-0.52 0.11,-1.07 -0.09,-1.55 -0.2,-0.48 -0.71,-0.87 -1.22,-0.78 -0.4,0.07 -0.69,0.39 -0.96,0.69 -1.78,2.01 -3.18,4.15 -5.55,5.59 2.16,-2.88 3.98,-7.56 3.53,-8.78 -0.14,-0.37 -1.06,-1.01 -2.09,0.01 -1.17,1.17 -1.99,3.17 -3.81,5.4 C 13.84,-8.52 8.81,-10.13 4.28,-9.11 2.81,-6.03 1.37,-2.94 0,0"
             style="fill:#fbbd9a;fill-opacity:1;fill-rule:nonzero;stroke:none"
             id="path392" /></g><g
           id="g394"
           transform="translate(331.16,217.22)"><path
             d="m 0,0 c 3.65,1.31 7.37,2.43 11.15,3.33 0.5,0.12 1.02,0.24 1.53,0.18 C 13.19,3.45 13.71,3.18 13.93,2.72 14.16,2.24 14.01,1.65 13.7,1.22 13.39,0.79 12.94,0.48 12.48,0.2 10.89,-0.79 9.2,-1.63 7.42,-2.48 7.07,-5.16 5.1,-7.55 2.54,-8.4"
             style="fill:#fbbd9a;fill-opacity:1;fill-rule:nonzero;stroke:#d45e4e;stroke-width:1;stroke-linecap:round;stroke-linejoin:miter;stroke-miterlimit:10;stroke-dasharray:none;stroke-opacity:1"
             id="path396" /></g><g
           id="g398"
           transform="translate(240.12,269.72)"><path
             d="m 0,0 c 2.14,-1.86 3.53,-12.34 4.63,-19 1.65,-9.98 10.05,-53.37 10.55,-56.44 0.89,-5.42 18.05,-5.05 18.74,-2.22 0.13,0.52 -5.01,2.91 -5.83,6.37 -0.73,3.1 -6.43,63.51 -9.18,66.69 C 15.28,-0.4 -0.69,0.6 0,0"
             style="fill:#eb4a2a;fill-opacity:1;fill-rule:nonzero;stroke:none"
             id="path400" /></g><g
           id="g402"
           transform="translate(216.57,269.72)"><path
             d="m 0,0 c 1.79,-0.64 7.41,-12.58 10.08,-23.51 5.58,-22.83 2.26,-56.73 0,-61.21 -2.26,-4.48 -24.16,-6.45 -27.88,-5.26 -2.16,0.69 -4.51,69.03 -3.02,77.61 C -19.82,-6.65 -0.54,0.19 0,0"
             style="fill:#eb4a2a;fill-opacity:1;fill-rule:nonzero;stroke:none"
             id="path404" /></g><g
           id="g406"
           transform="translate(249.38,193.38)"><path
             d="M 0,0 C 4.62,1.69 17.99,5.21 19.84,5.02 21.7,4.83 23.63,4.16 24.8,2.6 c 0.75,-1 1.12,-2.27 1.47,-3.5 0.57,-2 1.14,-4 1.71,-6 0.2,-0.7 0.4,-1.43 0.3,-2.15 -0.1,-0.72 -0.6,-1.44 -1.28,-1.49 -0.96,-0.08 -1.56,1.07 -1.91,2.04 -0.9,2.49 -1.8,4.98 -2.69,7.42 0.59,-3.07 1.17,-6.15 1.76,-9.22 0.14,-0.73 0.28,-1.48 0.11,-2.2 -0.17,-0.72 -0.73,-1.39 -1.42,-1.38 -1.02,0.02 -1.51,1.33 -1.74,2.41 -0.51,2.4 -1.03,4.81 -1.82,7.19 1.06,-3.38 1.22,-7.08 0.44,-10.55 -0.12,-0.53 -0.28,-1.09 -0.64,-1.47 -0.36,-0.38 -1,-0.52 -1.38,-0.16 -0.29,0.27 -0.35,0.73 -0.39,1.14 -0.31,3.1 -0.62,6.21 -0.93,9.31 0.3,-3.27 0.59,-6.64 -0.33,-9.77 -0.16,-0.56 -0.38,-1.12 -0.79,-1.5 -0.41,-0.38 -1.07,-0.5 -1.49,-0.14 -0.41,0.35 -0.46,0.98 -0.48,1.54 -0.07,1.95 -0.14,3.9 -0.15,6.18 -1.72,-2.01 -4.1,-3.35 -6.61,-3.74 -2.51,-0.39 -5.14,0.19 -7.61,0.98 C -0.85,-8.83 -0.64,-5.19 0,0"
             style="fill:#fbbd9a;fill-opacity:1;fill-rule:nonzero;stroke:none"
             id="path408" /></g><g
           id="g410"
           transform="translate(215.18,249.31)"><path
             d="m 0,0 c -1.4,6.47 -7.2,16.96 -11.93,14.79 -2.71,-1.25 -10.52,-3.86 -10.52,-20.97 0,-23.13 3.04,-53.52 10.52,-58.61 3.8,-2.59 45.36,-5.13 45.36,-5.13 l 3.04,14.89 c 0,0 -30.63,5.68 -32.04,9.88 C 2.44,-39.22 3.72,-17.21 0,0"
             style="fill:#eb4a2a;fill-opacity:1;fill-rule:nonzero;stroke:none"
             id="path412" /></g><g
           id="g414"
           transform="translate(211.56,252.86)"><path
             d="m 0,0 c 5.14,-17.38 6.22,-46.95 6.98,-48.73 0.69,-1.62 4.6,-2.3 7.67,-3.35"
             style="fill:none;stroke:#b82621;stroke-width:1;stroke-linecap:round;stroke-linejoin:miter;stroke-miterlimit:10;stroke-dasharray:none;stroke-opacity:1"
             id="path416" /></g><g
           id="g418"
           transform="translate(217.43,181.87)"><path
             d="m 0,0 c -5.7,0.57 -12.78,1.68 -14.36,2.86 -1.86,1.39 -4.13,8.19 -5.73,12.83"
             style="fill:none;stroke:#b82621;stroke-width:1;stroke-linecap:round;stroke-linejoin:miter;stroke-miterlimit:10;stroke-dasharray:none;stroke-opacity:1"
             id="path420" /></g><g
           id="g422"
           transform="translate(216.6,224.11)"><path
             d="M 0,0 C 2.05,2.57 2.89,6.83 3.06,12.02"
             style="fill:none;stroke:#b82621;stroke-width:1;stroke-linecap:round;stroke-linejoin:miter;stroke-miterlimit:10;stroke-dasharray:none;stroke-opacity:1"
             id="path424" /></g><path
           d="m 368.36,76.68 h 73.67 v -6.67 h -73.67 z"
           style="fill:#326894;fill-opacity:1;fill-rule:nonzero;stroke:none"
           id="path426" /><g
           id="g428"
           transform="translate(380.98,138.45)"><path
             d="M 0,0 C 0,-0.17 -0.02,-0.34 -0.04,-0.51 L -1.18,-9.7 -11.37,-91.61 c -0.27,-2.2 -2.27,-3.76 -4.47,-3.48 -2.03,0.26 -3.52,1.98 -3.52,3.96 0,0.17 0.02,0.34 0.04,0.51 L -9.26,-9.69 -8,0.49 c 0.28,2.19 2.27,3.76 4.47,3.48 C -1.49,3.7 0,1.98 0,0"
             style="fill:#4d8ab3;fill-opacity:1;fill-rule:nonzero;stroke:none"
             id="path430" /></g><g
           id="g432"
           transform="translate(380.98,138.45)"><path
             d="M 0,0 C 0,-0.17 -0.02,-0.34 -0.04,-0.51 L -1.18,-9.7 h -8.07 l 1.26,10.18 c 0.28,2.19 2.27,3.76 4.47,3.48 C -1.49,3.7 0,1.98 0,0"
             style="fill:#326894;fill-opacity:1;fill-rule:nonzero;stroke:none"
             id="path434" /></g><g
           id="g436"
           transform="translate(410.21,139.14)"><path
             d="m 0,0 v -91.8 c 0,-2.22 -1.79,-4 -4,-4 -1.1,0 -2.1,0.44 -2.83,1.17 -0.72,0.72 -1.17,1.72 -1.17,2.83 V 0 c 0,2.22 1.8,4 4,4 1.11,0 2.11,-0.44 2.83,-1.17 C -0.44,2.1 0,1.1 0,0"
             style="fill:#4d8ab3;fill-opacity:1;fill-rule:nonzero;stroke:none"
             id="path438" /></g><g
           id="g440"
           transform="translate(409.04,141.97)"><path
             d="m 0,0 c 0.73,-0.72 1.17,-1.73 1.17,-2.83 v -10.39 h -8.01 v 10.39 c 0,2.22 1.8,4 4,4 C -1.72,1.17 -0.72,0.72 0,0"
             style="fill:#326894;fill-opacity:1;fill-rule:nonzero;stroke:none"
             id="path442" /></g><g
           id="g444"
           transform="translate(450.48,47.33)"><path
             d="m 0,0 c 0,-2 -1.48,-3.72 -3.51,-3.98 -2.2,-0.28 -4.2,1.28 -4.47,3.48 l -10.19,81.91 -1.14,9.19 c -0.02,0.17 -0.04,0.34 -0.04,0.51 0,1.98 1.49,3.7 3.52,3.96 2.2,0.28 4.19,-1.29 4.47,-3.48 L -10.1,81.41 -0.04,0.48 C -0.01,0.32 0,0.16 0,0"
             style="fill:#4d8ab3;fill-opacity:1;fill-rule:nonzero;stroke:none"
             id="path446" /></g><g
           id="g448"
           transform="translate(440.39,128.75)"><path
             d="m 0,0 h -8.07 l -1.14,9.19 c -0.02,0.17 -0.04,0.34 -0.04,0.51 0,1.98 1.49,3.7 3.52,3.96 2.2,0.28 4.19,-1.29 4.47,-3.48 z"
             style="fill:#326894;fill-opacity:1;fill-rule:nonzero;stroke:none"
             id="path450" /></g><g
           id="g452"
           transform="translate(457.77,149.66)"><path
             d="m 0,0 v -2.67 c 0,-4.67 -3.78,-8.45 -8.45,-8.45 h -75.64 c -4.67,0 -8.45,3.78 -8.45,8.45 V 0 c 0,4.67 3.78,8.45 8.45,8.45 H -8.45 C -3.78,8.46 0,4.67 0,0"
             style="fill:#994403;fill-opacity:1;fill-rule:nonzero;stroke:none"
             id="path454" /></g><g
           id="g456"
           transform="translate(457.77,149.66)"><path
             d="m 0,0 v -2.67 c 0,-4.67 -3.78,-8.45 -8.45,-8.45 H -77.1 c -4.67,0 -8.45,3.78 -8.45,8.45 V 0 c 0,4.67 3.78,8.45 8.45,8.45 H -8.45 C -3.78,8.46 0,4.67 0,0"
             style="fill:#852e03;fill-opacity:1;fill-rule:nonzero;stroke:none"
             id="path458" /></g><g
           id="g460"
           transform="translate(358.7,270.45)"><path
             d="m 0,0 c 1.52,2.49 0.04,5.73 0.52,8.61 0.14,0.8 0.46,1.61 1.1,2.12 0.64,0.51 1.65,0.58 2.23,0.01 C 4.56,10.05 4.32,8.89 4.31,7.9 4.29,6.12 5.14,4.47 5.51,2.73 6.41,-1.49 4.17,-4.96 2.03,-8.6 c -2.69,-1.86 -6.31,-3.17 -8.57,-3.39 -1.42,-0.14 -8.69,3.87 -11.53,12.49 -1.43,4.32 -1.26,6.11 -0.78,6.7 0.48,0.59 1.42,0.87 2.03,0.41 0.37,-0.27 0.54,-0.73 0.69,-1.16 0.91,-2.59 1.81,-5.18 2.7,-7.87 -3.51,3.28 -5.47,8.15 -5.19,12.95 0.05,0.92 0.33,2.03 1.21,2.3 0.56,0.18 1.19,-0.08 1.61,-0.5 0.42,-0.42 0.68,-0.96 0.93,-1.5 1.26,-2.73 2.53,-5.45 4.3,-8.69 -3.21,3.04 -4.58,7.88 -3.44,12.15 0.19,0.72 0.62,1.56 1.37,1.57 0.76,0.01 1.21,-0.83 1.48,-1.55 1.28,-3.43 2.56,-6.87 3.84,-10.3 -1.83,2.85 -2.61,6.36 -2.16,9.72 0.16,1.22 0.78,2.69 2.02,2.74 0.7,0.03 1.35,-0.45 1.72,-1.05 0.37,-0.6 0.52,-1.3 0.69,-1.99 C -4.09,10.51 -2.35,6.79 0,0"
             style="fill:#fdbd9b;fill-opacity:1;fill-rule:nonzero;stroke:none"
             id="path462" /></g><g
           id="g464"
           transform="translate(340.62,277.97)"><path
             d="M 0,0 C 1.14,0.31 1.94,-0.09 2.38,-1.74 3,-4.07 4.65,-9.47 6.35,-10.67"
             style="fill:none;stroke:#b0514a;stroke-width:0.5;stroke-linecap:round;stroke-linejoin:miter;stroke-miterlimit:10;stroke-dasharray:none;stroke-opacity:1"
             id="path466" /></g><g
           id="g468"
           transform="translate(361.09,263.98)"><path
             d="m 0,0 4.19,-9.77 -11.08,-6.71 -4.93,13.04 z"
             style="fill:#fdbd9b;fill-opacity:1;fill-rule:nonzero;stroke:none"
             id="path470" /></g><g
           id="g472"
           transform="translate(360.63,275.48)"><path
             d="m 0,0 c -0.8,4.47 -4.17,7.74 -8.02,8.15 l -0.06,0.31 c 0,0 -2.01,-0.36 -2.68,-0.51 -4.38,-0.98 -7.09,-5.89 -6.19,-10.97 0.91,-5.08 5.15,-8.74 9.6,-8.15 0.68,0.09 2.69,0.45 2.69,0.45 l -0.06,0.31 C -1.24,-8.71 0.8,-4.48 0,0"
             style="fill:#316382;fill-opacity:1;fill-rule:nonzero;stroke:none"
             id="path474" /></g><g
           id="g476"
           transform="translate(352.3848,283.9098)"><path
             d="M 0,0 C 4.676,0.834 9.233,-2.787 10.179,-8.089 11.124,-13.39 8.1,-18.364 3.424,-19.198 -1.252,-20.032 -5.809,-16.41 -6.755,-11.109 -7.7,-5.808 -4.676,-0.834 0,0"
             style="fill:#407c91;fill-opacity:1;fill-rule:nonzero;stroke:none"
             id="path478" /></g><g
           id="g480"
           transform="translate(360.6,275.47)"><path
             d="M 0,0 C -0.73,4.07 -4.24,6.86 -7.84,6.22 -7.9,6.21 -7.97,6.2 -8.03,6.18 c -3.49,-0.73 -5.73,-4.5 -5.01,-8.5 0.72,-4.01 4.11,-6.77 7.65,-6.25 0.06,0 0.13,0.02 0.19,0.03 3.59,0.63 5.93,4.46 5.2,8.54"
             style="fill:#ebf5ff;fill-opacity:1;fill-rule:nonzero;stroke:none"
             id="path482" /></g><g
           id="g484"
           transform="translate(395.08,266.59)"><path
             d="m 0,0 -6.82,5.19 c 0,0 -4.45,-2.52 -6.82,-7.79 -2.37,-5.27 -5.51,-22.86 -5.51,-22.86 L -31.89,-4.3 -48.12,-15.82 c 0,0 18,-45.56 28.84,-46.11 10.84,-0.55 18.47,9.49 18.47,9.49 z"
             style="fill:#ffffff;fill-opacity:1;fill-rule:nonzero;stroke:none"
             id="path486" /></g><g
           id="g488"
           transform="translate(341.32,69.71)"><path
             d="m 0,0 2.07,-13.05 8.54,-3.47 9.81,4.69 -1.78,12.86 z"
             style="fill:#fbbd9a;fill-opacity:1;fill-rule:nonzero;stroke:none"
             id="path490" /></g><g
           id="g492"
           transform="translate(367.26,40.65)"><path
             d="m 0,0 -44.27,0.64 c 0,0 -0.3,0.92 -0.42,2.25 -0.18,2.09 0.11,5.16 2.74,7.22 3.72,2.89 9.63,3.29 13.47,4.78 2.3,0.89 3.69,3.16 3.69,3.16 l 6.3,-0.36 c 0,0 0.52,-3.51 2.86,-3.3 2.34,0.21 10.07,4 10.07,4 4,-6.84 5.17,-12.36 5.49,-15.5 C 0.11,1.04 0,0 0,0"
             style="fill:#502202;fill-opacity:1;fill-rule:nonzero;stroke:none"
             id="path494" /></g><g
           id="g496"
           transform="translate(367.26,40.65)"><path
             d="m 0,0 -44.27,0.64 c 0,0 -0.3,0.92 -0.42,2.25 H -0.08 C 0.11,1.04 0,0 0,0"
             style="fill:#855321;fill-opacity:1;fill-rule:nonzero;stroke:none"
             id="path498" /></g><g
           id="g500"
           transform="translate(394.26,69.71)"><path
             d="m 0,0 2.07,-13.05 8.54,-3.47 9.81,4.69 -1.78,12.86 z"
             style="fill:#fbbd9a;fill-opacity:1;fill-rule:nonzero;stroke:none"
             id="path502" /></g><g
           id="g504"
           transform="translate(420.2,40.65)"><path
             d="m 0,0 -44.27,0.64 c 0,0 -0.3,0.92 -0.42,2.25 -0.18,2.09 0.11,5.16 2.74,7.22 3.72,2.89 9.63,3.29 13.47,4.78 2.3,0.89 3.69,3.16 3.69,3.16 l 6.3,-0.36 c 0,0 0.52,-3.51 2.86,-3.3 2.34,0.21 10.07,4 10.07,4 4,-6.84 5.17,-12.36 5.49,-15.5 C 0.11,1.04 0,0 0,0"
             style="fill:#502202;fill-opacity:1;fill-rule:nonzero;stroke:none"
             id="path506" /></g><g
           id="g508"
           transform="translate(420.2,40.65)"><path
             d="m 0,0 -44.27,0.64 c 0,0 -0.3,0.92 -0.42,2.25 H -0.08 C 0.11,1.04 0,0 0,0"
             style="fill:#855321;fill-opacity:1;fill-rule:nonzero;stroke:none"
             id="path510" /></g><g
           id="g512"
           transform="translate(391.66,198.71)"><path
             d="m 0,0 -7.25,-11.75 c 0,0 -41.51,-6.32 -48.23,-16.49 -6.2,-9.38 2.2,-104.46 2.2,-104.46 h 28.51 c 0,0 -2.18,70.23 0,76.73 2.18,6.5 67.55,6.13 71.3,14.95 3.75,8.82 5,39.77 5,39.77"
             style="fill:#112c45;fill-opacity:1;fill-rule:nonzero;stroke:none"
             id="path514" /></g><g
           id="g516"
           transform="translate(444.35,185.15)"><path
             d="m 0,0 c 0,0 1.61,-25.45 -6.75,-31.54 -7.26,-5.29 -25.72,-6.67 -25.72,-6.67 l 3.56,-79.16 -27.26,-1.78 c 0,0 -13.54,92.39 -12.9,101.25 0.64,8.86 26.86,15.27 25.07,16.53 0,0 -20.21,6.86 -12.72,14.4 0.17,0.17 0.36,0.35 0.55,0.52 1.74,1.54 23.03,-0.05 23.03,-0.05 l 19.63,1.8 7.77,-8.81 z"
             style="fill:#163a4a;fill-opacity:1;fill-rule:nonzero;stroke:none"
             id="path518" /></g><g
           id="g520"
           transform="translate(443.34,177.09)"><path
             d="M 0,0 C -0.17,-1.25 -0.36,-2.59 -0.56,-3.95 -3.92,0.32 -9.35,6.57 -14.14,9.2 c -9.93,5.46 -41.67,9.19 -41.67,9.19 l 0.12,2.71 c 0.17,0.17 0.36,0.35 0.55,0.52 1.74,1.54 23.03,-0.05 23.03,-0.05 l 19.63,1.8 7.77,-8.81 z"
             style="fill:#112c45;fill-opacity:1;fill-rule:nonzero;stroke:none"
             id="path522" /></g><g
           id="g524"
           transform="translate(430.19,279.35)"><path
             d="m 0,0 c 0,0 -11.69,-15.1 -18.97,-14.33 -7.28,0.77 -12.97,8.83 -12.97,8.83 0,0 2.92,1.08 4.18,5.85 0.74,2.75 0.91,6.73 -0.35,12.44 L -6.47,16 c 0,0 -0.15,-3.61 0.81,-7.5 C -4.84,5.18 -3.22,1.64 0,0"
             style="fill:#fdbd9b;fill-opacity:1;fill-rule:nonzero;stroke:none"
             id="path526" /></g><g
           id="g528"
           transform="translate(402.43,279.69)"><path
             d="m 0,0 c 0.74,2.75 0.91,6.73 -0.35,12.44 l 21.64,3.21 c 0,0 -0.15,-3.61 0.81,-7.5 C 16.26,3.24 8.22,0.28 0,0"
             style="fill:#f0997f;fill-opacity:1;fill-rule:nonzero;stroke:none"
             id="path530" /></g><g
           id="g532"
           transform="translate(382.1999,304.9395)"><path
             d="M 0,0 C 0.331,2.925 3.848,4.928 7.853,4.474 11.859,4.02 14.838,1.281 14.507,-1.644 14.175,-4.569 10.659,-6.572 6.653,-6.118 2.647,-5.664 -0.331,-2.925 0,0"
             style="fill:#f0997f;fill-opacity:1;fill-rule:nonzero;stroke:none"
             id="path534" /></g><g
           id="g536"
           transform="translate(390.42,304.16)"><path
             d="m 0,0 v 0.08 c 0,0.96 -0.78,1.74 -1.74,1.74 h -0.97 c -0.96,0 -1.74,-0.78 -1.74,-1.74 V 0 c 0,-0.96 0.78,-1.74 1.74,-1.74 h 0.97 C -0.78,-1.74 0,-0.96 0,0"
             style="fill:#4b8394;fill-opacity:1;fill-rule:nonzero;stroke:none"
             id="path538" /></g><path
           d="m 385.97,304.2 h 1.46 v -4 h -1.46 z"
           style="fill:#4b8394;fill-opacity:1;fill-rule:nonzero;stroke:none"
           id="path540" /><g
           id="g542"
           transform="translate(431.05,312.51)"><path
             d="m 0,0 c 0,13.82 -9.56,25.03 -21.36,25.03 -11.8,0 -21.36,-7.38 -21.36,-25.03 0,-13.82 5.36,-25.81 18.06,-26.65 C -12.89,-27.42 0,-13.83 0,0"
             style="fill:#fdbd9b;fill-opacity:1;fill-rule:nonzero;stroke:none"
             id="path544" /></g><g
           id="g546"
           transform="translate(428.53,305.97)"><path
             d="m 0,0 c -3.91,3.76 -6.81,8.56 -8.23,13.91 -1.99,-0.64 -4.28,-0.24 -5.73,0.87 -4.34,-1.76 -9.48,-1.43 -13.42,0.77 -3.08,-1.44 -6.83,-1.37 -9.95,0.31 -1.5,-2.04 -2.62,-4.35 -3.31,-6.79 0.3,4.76 0.61,9.52 0.92,14.29 11.27,1.59 22.6,2.7 33.96,3.32 0.64,0.04 1.32,0.06 1.9,-0.23 0.85,-0.44 1.22,-1.44 1.5,-2.36 C 0.04,16.19 1.26,7.93 0,0"
             style="fill:#f0997f;fill-opacity:1;fill-rule:nonzero;stroke:none"
             id="path548" /></g><g
           id="g550"
           transform="translate(433.96,330.86)"><path
             d="m 0,0 c -0.47,-7.1 -0.93,-16.26 -1.4,-23.27 -0.66,-2.41 -2.73,-2.32 -5.54,-3.22 -2.61,5.82 -4.21,12.08 -5.18,18.96 -2.73,-0.72 -5.69,-0.52 -8.48,0.56 -4.18,-1.61 -8.92,-1.69 -13.21,0.03 -3.24,-1.07 -6.77,-1.28 -9.82,-0.18 -1.15,-3.49 -1.71,-8.79 -2.01,-12.51 -0.4,3.41 -1.72,13.96 -2.05,21.19 -0.14,3.1 -0.11,5.59 0.25,6.65 1.34,3.93 5.68,2.66 6.84,1.31 0.79,1.82 2.48,3.23 4.41,3.68 1.93,0.45 4.07,-0.07 5.84,-1.39 1.21,2.27 3.71,3.79 6.27,3.85 2.57,0.04 5.12,-1.39 6.01,-3.84 1.19,0.66 2.44,1.26 3.77,1.52 1.34,0.25 2.79,0.12 3.94,-0.61 0.55,-0.35 1.02,-0.85 1.38,-1.47 0.39,-0.65 0.65,-1.42 0.77,-2.25 1.08,1.51 3.36,1.79 4.99,0.93 C -1.58,9.08 -0.57,7.33 -0.16,5.52 0.25,3.72 0.13,1.84 0,0"
             style="fill:#502202;fill-opacity:1;fill-rule:nonzero;stroke:none"
             id="path552" /></g><g
           id="g554"
           transform="translate(424.98,342.12)"><path
             d="m 0,0 c -1.42,0.62 -3.03,0.78 -4.54,0.44 -1.9,-0.43 -3.61,-1.65 -4.56,-3.5 -0.89,2.39 -3.42,4.06 -5.97,3.94 -2.55,-0.13 -4.91,-2.03 -6.08,-5.01 -1.37,1.62 -3.59,2.5 -5.7,2.25 -2.11,-0.25 -4.07,-1.6 -5,-3.72 -0.73,0.86 -2.05,1.02 -3.11,0.63 -1.05,-0.4 -1.88,-1.26 -2.5,-2.2 -0.53,-0.79 -0.93,-1.64 -1.26,-2.52 -0.14,3.1 -0.11,5.59 0.25,6.65 1.34,3.93 5.68,2.66 6.84,1.31 0.79,1.82 2.48,3.23 4.41,3.68 1.93,0.45 4.07,-0.07 5.84,-1.39 1.21,2.27 3.71,3.79 6.27,3.85 2.57,0.04 5.12,-1.39 6.01,-3.84 1.19,0.66 2.44,1.26 3.77,1.52 1.34,0.25 2.79,0.12 3.94,-0.61 C -0.83,1.12 -0.36,0.62 0,0"
             style="fill:#6b4019;fill-opacity:1;fill-rule:nonzero;stroke:none"
             id="path556" /></g><g
           id="g558"
           transform="translate(396.99,313.57)"><path
             d="M 0,0 C -1.84,0.44 -3.86,0.07 -5.43,-0.99"
             style="fill:none;stroke:#502202;stroke-width:2;stroke-linecap:round;stroke-linejoin:miter;stroke-miterlimit:10;stroke-dasharray:none;stroke-opacity:1"
             id="path560" /></g><g
           id="g562"
           transform="translate(411.1,313.21)"><path
             d="M 0,0 C 2,0.87 4.44,0.63 6.24,-0.61"
             style="fill:none;stroke:#502202;stroke-width:2;stroke-linecap:round;stroke-linejoin:miter;stroke-miterlimit:10;stroke-dasharray:none;stroke-opacity:1"
             id="path564" /></g><g
           id="g566"
           transform="translate(402.54,305.57)"><path
             d="M 0,0 C 0.05,-1.98 0.25,-3.95 0.58,-5.9"
             style="fill:none;stroke:#b0514a;stroke-width:2;stroke-linecap:round;stroke-linejoin:miter;stroke-miterlimit:10;stroke-dasharray:none;stroke-opacity:1"
             id="path568" /></g><g
           id="g570"
           transform="translate(405.33,294.17)"><path
             d="M 0,0 C 2.4,-0.09 4.83,0.81 6.59,2.44"
             style="fill:none;stroke:#b0514a;stroke-width:2;stroke-linecap:round;stroke-linejoin:miter;stroke-miterlimit:10;stroke-dasharray:none;stroke-opacity:1"
             id="path572" /></g><g
           id="g574"
           transform="translate(411.8763,306.0084)"><path
             d="M 0,0 C 0.604,0.106 1.206,-0.447 1.345,-1.235 1.484,-2.024 1.107,-2.75 0.503,-2.856 -0.1,-2.962 -0.702,-2.409 -0.841,-1.621 -0.98,-0.832 -0.604,-0.106 0,0"
             style="fill:#2d3a5e;fill-opacity:1;fill-rule:nonzero;stroke:none"
             id="path576" /></g><g
           id="g578"
           transform="translate(395.1353,305.7792)"><path
             d="M 0,0 C 0.604,0.106 1.206,-0.447 1.345,-1.235 1.484,-2.024 1.107,-2.749 0.503,-2.856 -0.1,-2.962 -0.702,-2.409 -0.841,-1.621 -0.98,-0.832 -0.604,-0.106 0,0"
             style="fill:#2d3a5e;fill-opacity:1;fill-rule:nonzero;stroke:none"
             id="path580" /></g><g
           id="g582"
           transform="translate(429.2072,309.4153)"><path
             d="M 0,0 C 3.994,0.551 7.557,-1.367 7.959,-4.283 8.362,-7.199 5.45,-10.009 1.456,-10.56 -2.538,-11.111 -6.101,-9.193 -6.503,-6.277 -6.905,-3.361 -3.994,-0.551 0,0"
             style="fill:#fdbd9b;fill-opacity:1;fill-rule:nonzero;stroke:none"
             id="path584" /></g><g
           id="g586"
           transform="translate(428.98,304.16)"><path
             d="m 0,0 v 0.08 c 0,0.96 0.78,1.74 1.74,1.74 h 0.97 c 0.96,0 1.74,-0.78 1.74,-1.74 V 0 c 0,-0.96 -0.78,-1.74 -1.74,-1.74 H 1.74 C 0.78,-1.74 0,-0.96 0,0"
             style="fill:#4b8394;fill-opacity:1;fill-rule:nonzero;stroke:none"
             id="path588" /></g><path
           d="m 431.97,304.2 h 1.46 v -4 h -1.46 z"
           style="fill:#4b8394;fill-opacity:1;fill-rule:nonzero;stroke:none"
           id="path590" /><g
           id="g592"
           transform="translate(427.53,282.66)"><path
             d="m 0,0 c 0,0 -11.85,-7.16 -13.91,-9.73 -2.06,-2.58 -2.69,-6.1 -2.69,-6.1 0,0 -2.84,5.99 -3.48,6.49 -0.64,0.5 -5.61,5.21 -5.61,5.21 l -5.83,-4.42 -7.81,-4.06 0.33,-75.02 52.82,-3.58 1.36,81.41 z"
             style="fill:#69c5c9;fill-opacity:1;fill-rule:nonzero;stroke:none"
             id="path594" /></g><g
           id="g596"
           transform="translate(410.87,266.39)"><path
             d="M 0,0 C -2.5,-21.04 1.84,-57.81 -5.21,-72.09"
             style="fill:none;stroke:#3e7c8a;stroke-width:0.5;stroke-linecap:round;stroke-linejoin:miter;stroke-miterlimit:10;stroke-dasharray:none;stroke-opacity:1"
             id="path598" /></g><g
           id="g600"
           transform="translate(411.89,269.95)"><path
             d="m 0,0 c 0,0 0.89,3.32 2.94,4.96 2.05,1.64 12.62,7.86 12.9,7.93 0.28,0.07 5.47,-3.55 5.47,-3.55 L 13.47,-1.79 c 0,0 -8.04,5.65 -9.92,5.17 C 1.75,2.91 0,0 0,0"
             style="fill:#9bebe7;fill-opacity:1;fill-rule:nonzero;stroke:none"
             id="path602" /></g><g
           id="g604"
           transform="translate(409.43,269.94)"><path
             d="m 0,0 c 0,0 -0.61,2.34 -1.68,3.66 -1.24,1.53 -5.34,5.95 -5.76,5.92 -0.42,-0.02 -4.58,-2.52 -5.32,-4.03 -0.74,-1.51 -0.32,-8.65 -0.32,-8.65 0,0 7.02,6.68 9.76,5.92 C -1.5,2.31 0,0 0,0"
             style="fill:#9bebe7;fill-opacity:1;fill-rule:nonzero;stroke:none"
             id="path606" /></g><g
           id="g608"
           transform="translate(432.07,280.59)"><path
             d="m 0,0 c 0,0 -9.17,-8.62 -10.55,-17.37 -1.38,-8.75 -0.85,-54.79 7.64,-70.11 7.36,-13.29 8.06,-55.62 8.06,-75.27 l 25.76,8.88 c 0,0 -0.11,35.25 -8.43,67.89 -6.45,25.3 -0.26,71.53 -3.95,76.05 C 15.96,-6.77 0,0 0,0"
             style="fill:#ffffff;fill-opacity:1;fill-rule:nonzero;stroke:none"
             id="path610" /></g><g
           id="g612"
           transform="translate(421.2,231.46)"><path
             d="m 0,0 c 0,0 -2.13,24.32 -0.07,32.15 2.06,7.83 8.02,17.78 9.63,18.13 2.66,0.57 8.61,-4.04 8.61,-4.04 0,0 -4.82,-8.34 -6.24,-20.99 -0.13,-1.14 -9.58,-4.63 -9.58,-4.63 0,0 7.38,-5.4 7.28,-5.93 C 9.52,14.14 0,0 0,0"
             style="fill:#dae8f7;fill-opacity:1;fill-rule:nonzero;stroke:none"
             id="path614" /></g><g
           id="g616"
           transform="translate(404.29,196.25)"><path
             d="m 0,0 c 5.528,0 10.01,-2.789 10.01,-6.23 0,-3.441 -4.482,-6.23 -10.01,-6.23 -5.528,0 -10.01,2.789 -10.01,6.23 C -10.01,-2.789 -5.528,0 0,0"
             style="fill:#407c91;fill-opacity:1;fill-rule:nonzero;stroke:none"
             id="path618" /></g><g
           id="g620"
           transform="translate(418.01,198.18)"><path
             d="m 0,0 c -3.4,0.45 -6.8,0.9 -10.2,1.35 -0.91,0.12 -1.89,0.23 -2.72,-0.16 -1.15,-0.54 -1.68,-1.86 -1.78,-3.22 1.7,-0.15 3.4,-0.29 5.12,-0.57 -2.08,-2.86 -4.63,-5.38 -7.5,-7.45 -0.64,-0.46 -1.31,-0.91 -1.79,-1.53 -0.49,-0.62 -0.76,-1.46 -0.51,-2.21 0.26,-0.74 1,-1.24 1.77,-1.39 0.77,-0.15 1.56,-0.02 2.48,-0.07 -0.28,-1.13 0.29,-2.4 1.31,-2.95 1.02,-0.55 2.4,-0.32 3.4,0.44 0.52,-0.98 1.53,-1.69 2.63,-1.85 1.1,-0.16 2.27,0.24 3.23,0.51 0.8,-0.93 2.03,-1.48 3.25,-1.46 1.23,0.02 2.43,0.61 3.42,1.49 2.95,2.62 5.3,5.92 6.81,9.57 C 5.69,-6.6 2.69,-3.46 0,0"
             style="fill:#fbbd9a;fill-opacity:1;fill-rule:nonzero;stroke:none"
             id="path622" /></g><g
           id="g624"
           transform="translate(434.49,261.39)"><path
             d="M 0,0 C -0.25,4.83 2.2,13.92 5.68,14.87 11.1,16.34 20.31,8.2 22.73,1.72 c 2.42,-6.48 9.73,-46.19 7.68,-51.6 -2.81,-7.38 -39.92,-27.23 -39.92,-27.23 l -11.5,16.81 c 0,0 25.73,13.96 27.26,18.4 C 7.2,-39.12 0.59,-11.33 0,0"
             style="fill:#ffffff;fill-opacity:1;fill-rule:nonzero;stroke:none"
             id="path626" /></g><g
           id="g628"
           transform="translate(446.94,269.71)"><path
             d="m 0,0 c 0,0 -4.15,-5.43 -4.15,-15.21 0,-9.78 2.4,-32.94 1.84,-33.79 C -2.86,-49.85 -21,-61.61 -21,-61.61"
             style="fill:none;stroke:#b8c8e3;stroke-width:1;stroke-linecap:round;stroke-linejoin:miter;stroke-miterlimit:10;stroke-dasharray:none;stroke-opacity:1"
             id="path630" /></g><g
           id="g632"
           transform="translate(443.09,239.75)"><path
             d="M 0,0 C -2.74,3.25 -4.63,7.04 -5.48,11.01"
             style="fill:none;stroke:#b8c8e3;stroke-width:1;stroke-linecap:round;stroke-linejoin:miter;stroke-miterlimit:10;stroke-dasharray:none;stroke-opacity:1"
             id="path634" /></g><g
           id="g636"
           transform="translate(433.24,188.27)"><path
             d="M 0,0 C 5.89,3.21 14.41,8.22 19.54,12.31"
             style="fill:none;stroke:#b8c8e3;stroke-width:1;stroke-linecap:round;stroke-linejoin:miter;stroke-miterlimit:10;stroke-dasharray:none;stroke-opacity:1"
             id="path638" /></g><g
           id="g640"
           transform="translate(400.36,278.88)"><path
             d="m 0,0 c 0,0 -1.56,-6 -1.56,-16.43 0,-17.5 -2.28,-66.16 -11.49,-73.35 -7.24,-5.65 -16.31,-5.29 -20.43,-5.29 0,0 8.57,4.56 11.77,9.85 3.56,5.88 4.16,24.57 4.63,34.31 0.5,10.32 1.43,38.76 2.61,41.24 C -11.91,-4.32 0,0 0,0"
             style="fill:#ffffff;fill-opacity:1;fill-rule:nonzero;stroke:none"
             id="path642" /></g><g
           id="g644"
           transform="translate(397.37,229.97)"><path
             d="m 0,0 c 0,0 2.09,16.47 2.09,27.92 0,12.82 2.11,21.64 2.11,21.64 0,0 -7.28,-2.31 -8.08,-3.49 -0.8,-1.18 -4.57,-7.95 -6.5,-20.78 -0.32,-2.12 8.28,-3.87 8.28,-3.87 0,0 -6.63,-5.15 -6.63,-6.44 C -8.72,12.48 0,0 0,0"
             style="fill:#dae8f7;fill-opacity:1;fill-rule:nonzero;stroke:none"
             id="path646" /></g><g
           id="g648"
           transform="translate(385.49,264.12)"><path
             d="M 0,0 C 0,-27.9 -2.53,-50.22 -3.75,-57.97"
             style="fill:none;stroke:#b8c8e3;stroke-width:1;stroke-linecap:round;stroke-linejoin:miter;stroke-miterlimit:10;stroke-dasharray:none;stroke-opacity:1"
             id="path650" /></g><g
           id="g652"
           transform="translate(381.53,254.12)"><path
             d="M 0,0 C 0.72,-4 2.46,-7.95 3.53,-9.16"
             style="fill:none;stroke:#b8c8e3;stroke-width:1;stroke-linecap:round;stroke-linejoin:miter;stroke-miterlimit:10;stroke-dasharray:none;stroke-opacity:1"
             id="path654" /></g><g
           id="g656"
           transform="translate(386.67,300.26)"><path
             d="M 0,0 C 0,0 1.37,-32.19 20.67,-33.42 36.96,-34.46 46,-14.44 46,0.05"
             style="fill:none;stroke:#163649;stroke-width:1;stroke-linecap:butt;stroke-linejoin:miter;stroke-miterlimit:10;stroke-dasharray:none;stroke-opacity:1"
             id="path658" /></g><g
           id="g660"
           transform="translate(408.56,266.44)"><path
             d="m 0,0 c 0,0 -11.87,-43.38 -44.8,-51.22 -40.3,-9.6 -79.79,1.19 -79.79,1.19"
             style="fill:none;stroke:#163649;stroke-width:1;stroke-linecap:round;stroke-linejoin:miter;stroke-miterlimit:10;stroke-dasharray:none;stroke-opacity:1"
             id="path662" /></g><g
           id="g664"
           transform="translate(355.34,265.21)"><path
             d="m 0,0 c 0,0 4.55,-26.3 -15.84,-39.92 -18.06,-12.07 -55.53,-8.34 -55.53,-8.34"
             style="fill:none;stroke:#163649;stroke-width:1;stroke-linecap:round;stroke-linejoin:miter;stroke-miterlimit:10;stroke-dasharray:none;stroke-opacity:1"
             id="path666" /></g><g
           id="g668"
           transform="translate(394.96,190.18)"><path
             d="M 0,0 C 0,0 -73.86,-0.15 -111.5,26.23"
             style="fill:none;stroke:#163649;stroke-width:1;stroke-linecap:round;stroke-linejoin:miter;stroke-miterlimit:10;stroke-dasharray:none;stroke-opacity:1"
             id="path670" /></g><g
           id="g672"
           transform="translate(549.59,375.35)"><path
             d="m 0,0 c -0.45,7.88 5.27,15.68 12.92,17.61 7.65,1.93 16.39,-2.22 19.73,-9.37 2.86,-6.12 1.88,-13.29 0.5,-19.91 -1.37,-6.62 -3.08,-13.47 -1.51,-20.04 1.33,-5.53 4.9,-10.41 5.61,-16.05 0.97,-7.76 -4.49,-15.82 -12.06,-17.79 -4.28,-1.11 -9.81,0.26 -11.17,4.47 -1.26,3.9 1.62,8.05 1.04,12.1 -0.49,3.4 -3.26,5.92 -5.54,8.48 C 1.12,-31.04 1,-17.41 0,0"
             style="fill:#381b07;fill-opacity:1;fill-rule:nonzero;stroke:none"
             id="path674" /></g><g
           id="g676"
           transform="translate(476.16,275.74)"><path
             d="m 0,0 c -3.83,4.37 -6.63,12.24 -6.63,14.89 0,3.13 -0.5,6.34 0.6,9.27 0.57,1.51 1.44,2.88 2.31,4.24 0.99,1.55 1.97,3.1 2.96,4.65 0.41,0.64 0.88,1.32 1.61,1.52 1.23,0.33 2.36,-1.06 2.3,-2.34 C 3.08,30.96 2.24,29.88 0.79,28.75 1.34,31.08 2.52,33.26 4.16,35 4.59,35.46 5.17,35.92 5.79,35.78 6.8,35.54 6.77,34.1 6.5,33.1 5.82,30.59 5.15,28.08 4.61,25.92 6.75,21.84 6.56,17 6.6,12.4 6.64,7.8 7.09,2.82 10.13,-0.64 7.21,-1.92 3.77,3.18 0,0"
             style="fill:#db8e62;fill-opacity:1;fill-rule:nonzero;stroke:none"
             id="path678" /></g><g
           id="g680"
           transform="translate(475.72,276.28)"><path
             d="m 0,0 c 0,0 10.15,-34.68 17.82,-35.39 9.28,-0.87 16.82,7.71 16.82,7.71 L 40.7,3.38 26.96,11.61 19.38,-13.28 8.56,-1.05 Z"
             style="fill:#db8e62;fill-opacity:1;fill-rule:nonzero;stroke:none"
             id="path682" /></g><g
           id="g684"
           transform="translate(521.43,274.48)"><path
             d="m 0,0 c -7.56,2.86 -15.15,5.66 -22.7,8.56 2.06,9.87 4.92,21.7 7.42,25.48 4.68,7.07 12.24,7.43 12.24,7.43 L 0.41,31.26 0,0.21 C 0,0.21 0,0.13 0,0"
             style="fill:#1d9fb3;fill-opacity:1;fill-rule:nonzero;stroke:none"
             id="path686" /></g><g
           id="g688"
           transform="translate(514.46,254.39)"><path
             d="M 0,0 -22.1,57.13 -49.2,50.1 -24.12,-13.51 Z"
             style="fill:#b23f37;fill-opacity:1;fill-rule:nonzero;stroke:none"
             id="path690" /></g><g
           id="g692"
           transform="translate(510.78,257.53)"><path
             d="m 0,0 -19.91,50.85 -22.1,-5.99 21.77,-55.64 z"
             style="fill:#ebf5ff;fill-opacity:1;fill-rule:nonzero;stroke:none"
             id="path694" /></g><g
           id="g696"
           transform="translate(483.77,309.76)"><path
             d="M 0,0 1.38,-3.69 -7.29,-6.1 -8.84,-2.33 Z"
             style="fill:#678ca8;fill-opacity:1;fill-rule:nonzero;stroke:none"
             id="path698" /></g><g
           id="g700"
           transform="translate(501.4,47.89)"><path
             d="m 0,0 c 0.08,-3.75 39.41,-2.48 41.18,0.61 1.15,2.02 -0.97,7.1 -2.59,10.39 -0.86,1.77 -1.58,3.02 -1.58,3.02 l -5,7 -3.99,0.11 C 19.17,16.02 10.35,10.46 5.03,6.11 1.89,3.53 -0.03,1.39 0,0"
             style="fill:#136d94;fill-opacity:1;fill-rule:nonzero;stroke:none"
             id="path702" /></g><g
           id="g704"
           transform="translate(506.43,53.99)"><path
             d="M 0,0 C 8.13,-5.12 26.86,2.04 33.56,4.89 32.7,6.66 31.98,7.91 31.98,7.91 l -5,7 -3.99,0.11 C 14.14,9.91 5.31,4.35 0,0"
             style="fill:#db8e62;fill-opacity:1;fill-rule:nonzero;stroke:none"
             id="path706" /></g><g
           id="g708"
           transform="translate(518.5,84.44)"><path
             d="m 0,0 1.39,-15.33 0.5,-5.5 0.35,-3.78 15.91,1.67 0.13,2.67 v 0.01 l 0.13,2.8 0.88,18.12 0.09,1.82 -9.69,-1.24 z"
             style="fill:#db8e62;fill-opacity:1;fill-rule:nonzero;stroke:none"
             id="path710" /></g><g
           id="g712"
           transform="translate(518.5,84.44)"><path
             d="m 0,0 1.39,-15.33 7.96,-0.99 h 0.01 l 6.71,-0.85 2.34,-0.29 0.88,18.12 -9.6,0.58 z"
             style="fill:#cf6e4a;fill-opacity:1;fill-rule:nonzero;stroke:none"
             id="path714" /></g><g
           id="g716"
           transform="translate(507.26,237.82)"><path
             d="M 0,0 C 0,0 -6.84,-18.92 -5.49,-45.82 -4.14,-72.72 7.2,-166.53 7.2,-166.53 l 28.26,1.33 -4.84,121.1 -6.82,37.5"
             style="fill:#1d9fb3;fill-opacity:1;fill-rule:nonzero;stroke:none"
             id="path718" /></g><g
           id="g720"
           transform="translate(572.11,48.27)"><path
             d="m 0,0 c 2.49,-2.8 31.6,23.68 30.95,27.17 -0.43,2.28 -5.34,4.77 -8.71,6.22 -1.8,0.78 -3.16,1.27 -3.16,1.27 l -8.35,2.08 -3.11,-2.5 C 4.2,24.61 1.09,14.65 -0.13,7.9 -0.86,3.92 -0.92,1.04 0,0"
             style="fill:#136d94;fill-opacity:1;fill-rule:nonzero;stroke:none"
             id="path722" /></g><g
           id="g724"
           transform="translate(571.98,56.18)"><path
             d="m 0,0 c 9.51,1.38 19.12,18.98 22.37,25.49 -1.8,0.78 -3.16,1.27 -3.16,1.27 l -8.35,2.08 -3.11,-2.5 C 4.33,16.71 1.22,6.76 0,0"
             style="fill:#db8e62;fill-opacity:1;fill-rule:nonzero;stroke:none"
             id="path726" /></g><g
           id="g728"
           transform="translate(561.42,87.18)"><path
             d="m 0,0 6.61,-6.47 8.33,-8.15 2.72,-2.65 11.03,11.58 -1.64,2.13 -4.77,6.18 -9.14,11.84 z"
             style="fill:#db8e62;fill-opacity:1;fill-rule:nonzero;stroke:none"
             id="path730" /></g><g
           id="g732"
           transform="translate(561.42,87.18)"><path
             d="M 0,0 6.61,-6.47 22.28,2.62 13.14,14.46 Z"
             style="fill:#cf6e4a;fill-opacity:1;fill-rule:nonzero;stroke:none"
             id="path734" /></g><g
           id="g736"
           transform="translate(503.5,220.04)"><path
             d="m 0,0 c 2.75,-7.64 23.46,-21.1 23.46,-21.1 0,0 -0.2,-53.33 0.57,-66.77 0.77,-13.44 28.62,-57.32 28.62,-57.32 l 26.1,23.17 c 0,0 -20.23,33.83 -21.62,41.78 -1.39,7.96 7.36,49.76 7.36,66.78 0,3.14 -0.29,6.39 -0.77,9.61 -1.04,7.1 -2.97,14.04 -4.65,19.19 -1.67,5.15 -3.08,8.53 -3.08,8.53 0,0 -14.18,-2.06 -28.34,-6.02 C 14.69,14.23 1.78,9 -0.19,2.33 -0.39,1.65 -0.31,0.86 0,0"
             style="fill:#25b2c2;fill-opacity:1;fill-rule:nonzero;stroke:none"
             id="path738" /></g><g
           id="g740"
           transform="translate(503.5,220.04)"><path
             d="m 0,0 c 6.9,-4.08 14.09,-7.67 21.49,-10.72 0.46,1.23 0.92,2.46 1.56,3.69 0.65,-1.41 1.31,-2.8 2.11,-4.71 12.76,3.2 25.64,5.91 38.57,7.89 -1.04,7.1 -2.97,14.04 -4.65,19.19 C 48.62,16.32 38.14,17.16 27.66,17.85 14.7,14.23 1.79,9 -0.18,2.33 -0.39,1.65 -0.31,0.86 0,0"
             style="fill:#1d9fb3;fill-opacity:1;fill-rule:nonzero;stroke:none"
             id="path742" /></g><g
           id="g744"
           transform="translate(575.98,307.67)"><path
             d="M 0,0 C -0.99,6 -23.7,13.71 -31.42,13.01 -48,11.5 -60.01,8.49 -63.79,6.12 c -3.78,-2.37 -7.23,-24.51 -7.23,-30.68 0,-7.3 2.51,-21.63 1.84,-27.41 -1.3,-11.21 -8.1,-34.95 -8.1,-34.95 l 24.99,-8.76 3.1,5.46 2.83,-6.92 41.3,9.47 c 0,0 -3.16,32.89 -3.16,38.66 C -8.21,-43.48 1.28,-7.74 0,0"
             style="fill:#27b8c1;fill-opacity:1;fill-rule:nonzero;stroke:none"
             id="path746" /></g><g
           id="g748"
           transform="translate(537.4,303.75)"><path
             d="M 0,0 C -8.3,-43.23 -8.76,-55.61 -10.65,-85.98"
             style="fill:none;stroke:#51dbdb;stroke-width:1;stroke-linecap:round;stroke-linejoin:miter;stroke-miterlimit:10;stroke-dasharray:none;stroke-opacity:1"
             id="path750" /></g><g
           id="g752"
           transform="translate(538.5,296.58)"><path
             d="m 0,0 c 0.768,0 1.39,-0.622 1.39,-1.39 0,-0.768 -0.622,-1.39 -1.39,-1.39 -0.768,0 -1.39,0.622 -1.39,1.39 C -1.39,-0.622 -0.768,0 0,0"
             style="fill:#136d94;fill-opacity:1;fill-rule:nonzero;stroke:none"
             id="path754" /></g><g
           id="g756"
           transform="translate(535.02,277.67)"><path
             d="m 0,0 c 0.768,0 1.39,-0.622 1.39,-1.39 0,-0.768 -0.622,-1.39 -1.39,-1.39 -0.768,0 -1.39,0.622 -1.39,1.39 C -1.39,-0.622 -0.768,0 0,0"
             style="fill:#136d94;fill-opacity:1;fill-rule:nonzero;stroke:none"
             id="path758" /></g><g
           id="g760"
           transform="translate(532.34,257.74)"><path
             d="m 0,0 c 0.768,0 1.39,-0.622 1.39,-1.39 0,-0.768 -0.622,-1.39 -1.39,-1.39 -0.768,0 -1.39,0.622 -1.39,1.39 C -1.39,-0.622 -0.768,0 0,0"
             style="fill:#136d94;fill-opacity:1;fill-rule:nonzero;stroke:none"
             id="path762" /></g><g
           id="g764"
           transform="translate(530.95,234.89)"><path
             d="m 0,0 c 0.768,0 1.39,-0.622 1.39,-1.39 0,-0.768 -0.622,-1.39 -1.39,-1.39 -0.768,0 -1.39,0.622 -1.39,1.39 C -1.39,-0.622 -0.768,0 0,0"
             style="fill:#136d94;fill-opacity:1;fill-rule:nonzero;stroke:none"
             id="path766" /></g><g
           id="g768"
           transform="translate(489.2,276.99)"><path
             d="m 0,0 4.14,-0.33 0.32,-0.03 27.76,7.29 c 1.9,1.01 2.22,2.57 1.77,3.84 -0.57,1.58 -2.42,2.32 -4.01,1.76 L 3.5,3.17 3.23,2.93 Z"
             style="fill:#136d94;fill-opacity:1;fill-rule:nonzero;stroke:none"
             id="path770" /></g><g
           id="g772"
           transform="translate(489.2,276.99)"><path
             d="m 0,0 1.14,-0.09 3,-0.24 C 4.05,-0.26 3.95,-0.19 3.87,-0.1 3.52,0.25 3.31,0.77 3.46,1.24 3.52,1.44 3.64,1.65 3.56,1.84 3.52,1.93 3.44,1.99 3.38,2.06 3.18,2.29 3.15,2.64 3.22,2.93 L 0.85,0.77 Z"
             style="fill:#d68a5a;fill-opacity:1;fill-rule:nonzero;stroke:none"
             id="path774" /></g><g
           id="g776"
           transform="translate(489.2,276.99)"><path
             d="M 0,0 1.14,-0.09 C 1.02,0.04 0.94,0.19 0.89,0.36 0.85,0.49 0.84,0.63 0.85,0.77 Z"
             style="fill:#24151a;fill-opacity:1;fill-rule:nonzero;stroke:none"
             id="path778" /></g><g
           id="g780"
           transform="translate(522,270.82)"><path
             d="m 0,0 c -2.73,5.06 -5.45,10.12 -8.36,15.19 -2.16,1.68 -4.59,2.95 -7.07,3.9 -2.96,-0.96 -5.74,-2.73 -8.03,-5.11 -0.56,-0.59 -1.15,-1.42 -0.89,-2.21 0.19,-0.58 0.79,-0.86 1.35,-0.82 0.55,0.04 1.07,0.34 1.57,0.63 1.51,0.88 3.02,1.77 4.77,2.62 0.49,-0.42 0.98,-0.84 1.35,-1.27 -1.02,-0.01 -2.04,-0.03 -3.26,-0.38 -1.95,-0.92 -3.86,-1.97 -5.71,-3.15 -0.52,-0.33 -1.09,-0.77 -1.15,-1.43 -0.05,-0.54 0.28,-1.03 0.71,-1.26 0.43,-0.23 0.92,-0.24 1.4,-0.2 1.74,0.12 3.47,0.75 4.9,1.83 0.58,-0.17 1.16,-0.34 1.6,-0.62 -0.75,-0.14 -1.5,-0.28 -2.2,-0.63 -0.7,-0.35 -1.34,-0.93 -1.65,-1.72 -0.31,-0.79 -0.2,-1.79 0.21,-2.62 -0.4,-0.15 -0.62,-0.67 -0.6,-1.14 0.02,-0.47 0.22,-0.89 0.42,-1.29 0.43,-0.85 0.9,-1.67 1.41,-2.45 0.49,-0.73 1.05,-1.45 1.82,-1.77 0.77,-0.31 1.78,-0.09 2.29,0.87 2.06,-3.56 5.92,-5.65 9.66,-5.25 2.23,2.41 4.09,5.24 5.46,8.28"
             style="fill:#db8e62;fill-opacity:1;fill-rule:nonzero;stroke:none"
             id="path782" /></g><g
           id="g784"
           transform="translate(510.1,283.17)"><path
             d="M 0,0 C -0.99,0.41 -2.04,0.55 -3.11,0.66"
             style="fill:none;stroke:#a8473e;stroke-width:0.5;stroke-linecap:round;stroke-linejoin:miter;stroke-miterlimit:10;stroke-dasharray:none;stroke-opacity:1"
             id="path786" /></g><g
           id="g788"
           transform="translate(508.09,278.8)"><path
             d="M 0,0 C -1,0.08 -1.98,0.05 -2.73,-0.08"
             style="fill:none;stroke:#a8473e;stroke-width:0.5;stroke-linecap:round;stroke-linejoin:miter;stroke-miterlimit:10;stroke-dasharray:none;stroke-opacity:1"
             id="path790" /></g><g
           id="g792"
           transform="translate(501.68,273.88)"><path
             d="M 0,0 C 1.39,0.77 3.69,1.21 5.27,1.01"
             style="fill:none;stroke:#a8473e;stroke-width:0.5;stroke-linecap:round;stroke-linejoin:miter;stroke-miterlimit:10;stroke-dasharray:none;stroke-opacity:1"
             id="path794" /></g><g
           id="g796"
           transform="translate(506.45,268.06)"><path
             d="M 0,0 C -0.49,0.79 -0.92,2.09 -1.11,3"
             style="fill:none;stroke:#a8473e;stroke-width:0.5;stroke-linecap:round;stroke-linejoin:miter;stroke-miterlimit:10;stroke-dasharray:none;stroke-opacity:1"
             id="path798" /></g><g
           id="g800"
           transform="translate(505.66,269.43)"><path
             d="M 0,0 C -0.63,-0.08 -1.29,-0.19 -1.8,-0.14"
             style="fill:none;stroke:#a8473e;stroke-width:0.5;stroke-linecap:round;stroke-linejoin:miter;stroke-miterlimit:10;stroke-dasharray:none;stroke-opacity:1"
             id="path802" /></g><g
           id="g804"
           transform="translate(514.86,263.83)"><path
             d="m 0,0 c 0,0 34.56,-29.31 43.89,-26.01 3.71,1.32 7.39,12.08 10.06,22.1 2.46,9.21 4.06,17.78 4.06,17.78 l -19.58,8.27 c 0,0 -1.31,-8.88 -2.63,-16.1 C 34.93,1.17 34.05,-2.94 33.58,-3.06 31.58,-3.62 6.21,7.67 6.21,7.67 Z"
             style="fill:#db8e62;fill-opacity:1;fill-rule:nonzero;stroke:none"
             id="path806" /></g><g
           id="g808"
           transform="translate(550.66,269.86)"><path
             d="M 0,0 C 4.67,-3.06 12.01,-7.57 18.14,-9.95 20.6,-0.74 22.2,7.83 22.2,7.83 L 2.62,16.1 C 2.62,16.1 1.32,7.22 0,0"
             style="fill:#cf6e4a;fill-opacity:1;fill-rule:nonzero;stroke:none"
             id="path810" /></g><g
           id="g812"
           transform="translate(572.86,267.27)"><path
             d="m 0,0 c -8.57,1.63 -15.37,3.04 -23.56,5.97 1.16,9.62 3.87,27.02 6.07,32.38 1.56,3.8 7.69,10.48 14.6,7.59 C 4.02,43.05 6.67,38.49 5.94,26.46 5.67,22.18 1.6,8.71 0,0"
             style="fill:#32c9cf;fill-opacity:1;fill-rule:nonzero;stroke:none"
             id="path814" /></g><g
           id="g816"
           transform="translate(531.08,316.3)"><path
             d="m 0,0 c 0,0 2.01,-9.1 5.89,-11.76 3.88,-2.66 18.57,13.7 18.57,13.7 -2.53,2.36 -3.14,6.99 -3.11,11.09 0.03,4.18 0.73,7.78 0.73,7.78 L 4.18,15.64 C 4.36,11.22 4,8.03 3.44,5.74 2.22,0.77 0,0 0,0"
             style="fill:#db8e62;fill-opacity:1;fill-rule:nonzero;stroke:none"
             id="path818" /></g><g
           id="g820"
           transform="translate(534.53,322.04)"><path
             d="m 0,0 c 8.25,-1.75 14.56,3.5 17.9,7.29 0.03,4.18 0.73,7.78 0.73,7.78 L 0.73,9.9 C 0.92,5.47 0.56,2.29 0,0"
             style="fill:#cf6e4a;fill-opacity:1;fill-rule:nonzero;stroke:none"
             id="path822" /></g><g
           id="g824"
           transform="translate(537.63,304.22)"><path
             d="m 0,0 c -0.23,0.04 0.92,6.18 1.5,6.71 0.58,0.53 14.69,12.89 15.53,12.43 1.23,-0.66 3.26,-4.58 3.26,-4.58 0,0 -2.9,-3.93 -8.37,-8.37 C 8.16,3.14 2.16,-0.37 0,0"
             style="fill:#136d94;fill-opacity:1;fill-rule:nonzero;stroke:none"
             id="path826" /></g><g
           id="g828"
           transform="translate(537.63,304.25)"><path
             d="m 0,0 c 0.31,0.31 -0.32,6.4 -0.68,6.96 -1.17,1.85 -3.15,6.67 -3.15,9.95 0,0 -3.56,-1.35 -4,-2.13 -0.43,-0.79 1.5,-6.56 2.99,-9.31 C -2.31,0.84 -0.25,-0.25 0,0"
             style="fill:#136d94;fill-opacity:1;fill-rule:nonzero;stroke:none"
             id="path830" /></g><g
           id="g832"
           transform="translate(513.2032,346.7828)"><path
             d="M 0,0 C 0.338,2.985 3.927,5.03 8.015,4.566 12.103,4.103 15.143,1.307 14.805,-1.678 14.466,-4.663 10.878,-6.707 6.79,-6.244 2.702,-5.781 -0.338,-2.985 0,0"
             style="fill:#cf6e4a;fill-opacity:1;fill-rule:nonzero;stroke:none"
             id="path834" /></g><g
           id="g836"
           transform="translate(563.01,354.51)"><path
             d="M 0,0 C 0,14.1 -9.75,25.53 -21.78,25.53 -33.81,25.53 -43.56,14.1 -43.56,0 c 0,-14.1 6.01,-28.12 18.2,-27.62 C -13.35,-27.12 0,-14.1 0,0"
             style="fill:#db8e62;fill-opacity:1;fill-rule:nonzero;stroke:none"
             id="path838" /></g><g
           id="g840"
           transform="translate(558.18,348.46)"><path
             d="m 0,0 c -2.53,2.75 -4.13,7.94 -4.52,10.15 -2.42,0.7 -5.35,3.02 -6.82,6.15 -3.69,-3.69 -17.71,-5.77 -22.39,-4.55 -3.33,-4.11 -3.43,-6.15 -4.61,-11.4 -0.76,6.41 -0.42,12.95 0.99,19.25 8.77,2.83 17.35,6.24 25.67,10.22 1.42,0.68 3.12,1.37 4.48,0.57 0.87,-0.51 1.32,-1.5 1.77,-2.41 1.88,-3.83 4.58,-7.26 7.86,-9.99 C 3.28,17.28 4.25,16.48 4.29,15.38 4.32,14.66 3.94,14 3.59,13.37 2.02,10.48 2.29,3.53 0,0"
             style="fill:#cf6e4a;fill-opacity:1;fill-rule:nonzero;stroke:none"
             id="path842" /></g><g
           id="g844"
           transform="translate(515.75,363.15)"><path
             d="m 0,0 c -0.07,-5.34 4.28,-16.43 4.28,-16.43 0,0 0.03,9.13 4.19,15.06 8.61,0 18.15,0.4 23.43,5.3 1.53,-3.88 4.16,-6.14 7.33,-7.2 -0.1,-4.84 2.12,-9.37 3.51,-13.44 2.71,1.65 4.75,0.95 6.96,3.56 1.28,4.73 2.64,12.12 2.25,16.69 -0.32,3.68 -1.32,7.4 -3.32,10.49 -0.47,0.74 -1.01,1.45 -1.6,2.11 -3.08,3.41 -7.94,5.4 -12.39,4.29 -2.46,2.96 -6.26,4.71 -10.05,4.92 -3.8,0.21 -7.57,-0.98 -10.88,-2.87 C 7.26,18.81 2.22,13.13 0.57,5.23 0.21,3.53 0.03,1.78 0,0"
             style="fill:#412408;fill-opacity:1;fill-rule:nonzero;stroke:none"
             id="path846" /></g><g
           id="g848"
           transform="translate(515.75,363.15)"><path
             d="m 0,0 c 0.18,0.69 0.4,1.37 0.65,2.04 1.23,3.25 3.23,6.17 5.53,8.78 3.47,3.98 7.78,7.41 12.87,8.83 5.09,1.41 11,0.52 14.8,-3.15 4.8,2.04 10.69,0.93 14.77,-2.46 -0.47,0.74 -1.01,1.45 -1.6,2.11 -3.08,3.41 -7.94,5.4 -12.39,4.29 -2.46,2.96 -6.26,4.71 -10.05,4.92 C 20.78,25.57 17.01,24.38 13.7,22.49 7.25,18.82 2.21,13.14 0.56,5.24 0.21,3.53 0.03,1.78 0,0"
             style="fill:#664216;fill-opacity:1;fill-rule:nonzero;stroke:none"
             id="path850" /></g><g
           id="g852"
           transform="translate(561.6826,351.1236)"><path
             d="m 0,0 c 3.986,1.02 7.822,-0.512 8.567,-3.423 0.745,-2.91 -1.883,-6.097 -5.869,-7.118 -3.986,-1.02 -7.821,0.512 -8.566,3.423 C -6.614,-4.207 -3.986,-1.02 0,0"
             style="fill:#db8e62;fill-opacity:1;fill-rule:nonzero;stroke:none"
             id="path854" /></g><g
           id="g856"
           transform="translate(542.71,346.59)"><path
             d="m 0,0 c 0.525,0 0.95,-0.681 0.95,-1.52 0,-0.839 -0.425,-1.52 -0.95,-1.52 -0.525,0 -0.95,0.681 -0.95,1.52 C -0.95,-0.681 -0.525,0 0,0"
             style="fill:#411f00;fill-opacity:1;fill-rule:nonzero;stroke:none"
             id="path858" /></g><g
           id="g860"
           transform="translate(525.26,346.59)"><path
             d="m 0,0 c 0.525,0 0.95,-0.681 0.95,-1.52 0,-0.839 -0.425,-1.52 -0.95,-1.52 -0.525,0 -0.95,0.681 -0.95,1.52 C -0.95,-0.681 -0.525,0 0,0"
             style="fill:#411f00;fill-opacity:1;fill-rule:nonzero;stroke:none"
             id="path862" /></g><g
           id="g864"
           transform="translate(528.06,354.28)"><path
             d="M 0,0 C -1.82,0.63 -3.91,0.47 -5.61,-0.45"
             style="fill:none;stroke:#412408;stroke-width:2;stroke-linecap:round;stroke-linejoin:miter;stroke-miterlimit:10;stroke-dasharray:none;stroke-opacity:1"
             id="path866" /></g><g
           id="g868"
           transform="translate(541.23,353.49)"><path
             d="M 0,0 C 2.04,0.89 4.53,0.64 6.36,-0.62"
             style="fill:none;stroke:#412408;stroke-width:2;stroke-linecap:round;stroke-linejoin:miter;stroke-miterlimit:10;stroke-dasharray:none;stroke-opacity:1"
             id="path870" /></g><g
           id="g872"
           transform="translate(531.79,343.91)"><path
             d="M 0,0 C -0.16,-0.98 -0.15,-3.32 0.02,-4.27"
             style="fill:none;stroke:#a8473e;stroke-width:2;stroke-linecap:round;stroke-linejoin:miter;stroke-miterlimit:10;stroke-dasharray:none;stroke-opacity:1"
             id="path874" /></g><g
           id="g876"
           transform="translate(532.86,335.42)"><path
             d="M 0,0 C 2.65,-1.05 5.42,-0.48 6.85,1.69"
             style="fill:none;stroke:#a8473e;stroke-width:2;stroke-linecap:round;stroke-linejoin:miter;stroke-miterlimit:10;stroke-dasharray:none;stroke-opacity:1"
             id="path878" /></g><g
           id="g880"
           transform="translate(225.44,440.39)"><path
             d="m 0,0 c 20.263,0 36.69,-16.427 36.69,-36.69 0,-20.263 -16.427,-36.69 -36.69,-36.69 -20.263,0 -36.69,16.427 -36.69,36.69 C -36.69,-16.427 -20.263,0 0,0"
             style="fill:#ffa8b1;fill-opacity:1;fill-rule:nonzero;stroke:none"
             id="path882" /></g><g
           id="g884"
           transform="translate(201.47,416.04)"><path
             d="m 0,0 c 8.03,14.96 23.91,-5.12 23.91,-5.12 0,0 15.91,17.16 23.91,6.01 8.31,-11.57 -23.91,-38.52 -23.91,-38.52 0,0 -30.74,24.9 -23.91,37.63"
             style="fill:#b82621;fill-opacity:1;fill-rule:nonzero;stroke:none"
             id="path886" /></g><g
           id="g888"
           transform="translate(198.82,399.25)"><path
             d="m 0,0 11.13,-0.12 3.46,13.54 7.13,-25.74 5.64,31.18 6.13,-28.08 3.66,20.36 3.92,-10.68 12.17,-0.33"
             style="fill:none;stroke:#ffffff;stroke-width:1;stroke-linecap:round;stroke-linejoin:miter;stroke-miterlimit:10;stroke-dasharray:none;stroke-opacity:1"
             id="path890" /></g><g
           id="g892"
           transform="translate(327,384.02)"><path
             d="M 0,0 C 20.711,0 37.5,-16.789 37.5,-37.5 37.5,-58.211 20.711,-75 0,-75 -20.711,-75 -37.5,-58.211 -37.5,-37.5 -37.5,-16.789 -20.711,0 0,0"
             style="fill:#ffa8b1;fill-opacity:1;fill-rule:nonzero;stroke:none"
             id="path894" /></g><g
           id="g896"
           transform="translate(347.01,344.86)"><path
             d="m 0,0 -28.7,-16.44 c -5.46,-3.13 -12.42,-1.24 -15.54,4.21 -1.56,2.73 -1.87,5.83 -1.11,8.65 0.76,2.82 2.59,5.33 5.33,6.9 l 28.7,16.44 C -5.87,22.88 1.09,20.99 4.22,15.53 5.78,12.8 6.09,9.7 5.32,6.89 4.56,4.07 2.73,1.56 0,0"
             style="fill:#ffffff;fill-opacity:1;fill-rule:nonzero;stroke:none"
             id="path898" /></g><g
           id="g900"
           transform="translate(347.01,344.86)"><path
             d="m 0,0 -14.36,-8.22 -11.32,19.76 14.36,8.22 C -5.87,22.88 1.09,20.99 4.22,15.53 5.78,12.8 6.09,9.7 5.32,6.89 4.56,4.07 2.73,1.56 0,0"
             style="fill:#b82621;fill-opacity:1;fill-rule:nonzero;stroke:none"
             id="path902" /></g><g
           id="g904"
           transform="translate(422.37,452.39)"><path
             d="m 0,0 c 20.263,0 36.69,-16.427 36.69,-36.69 0,-20.263 -16.427,-36.69 -36.69,-36.69 -20.263,0 -36.69,16.427 -36.69,36.69 C -36.69,-16.427 -20.263,0 0,0"
             style="fill:#ffa8b1;fill-opacity:1;fill-rule:nonzero;stroke:none"
             id="path906" /></g><g
           id="g908"
           transform="translate(441.07,434.11)"><path
             d="m 0,0 v -25.15 c 0,-6.13 -3.11,-11.87 -8.3,-15.25 l -10.4,-6.07 -9.54,6.19 c -5.68,3.28 -9.17,9.3 -9.17,15.79 l 0,24.49 18.58,5.32 0.13,-0.04 z"
             style="fill:#ffffff;fill-opacity:1;fill-rule:nonzero;stroke:none"
             id="path910" /></g><g
           id="g912"
           transform="translate(441.07,434.11)"><path
             d="m 0,0 v -25.15 c 0,-6.13 -3.11,-11.87 -8.3,-15.25 l -10.4,-6.07 V 5.28 Z"
             style="fill:#f2e4e5;fill-opacity:1;fill-rule:nonzero;stroke:none"
             id="path914" /></g><path
           d="m 418.05,427.75 h 8.63 v -28.42 h -8.63 z"
           style="fill:#b82621;fill-opacity:1;fill-rule:nonzero;stroke:none"
           id="path916" /><path
           d="m 436.571,409.222 h -28.42 v 8.63 h 28.42 z"
           style="fill:#b82621;fill-opacity:1;fill-rule:nonzero;stroke:none"
           id="path918" /></g></g></g></svg>
