<?xml version="1.0" encoding="UTF-8" standalone="no"?>
<!-- Created with Inkscape (http://www.inkscape.org/) -->

<svg
   version="1.1"
   id="svg2"
   xml:space="preserve"
   width="1000"
   height="666.66669"
   viewBox="0 0 1000 666.66669"
   sodipodi:docname="4990221.ai"
   xmlns:inkscape="http://www.inkscape.org/namespaces/inkscape"
   xmlns:sodipodi="http://sodipodi.sourceforge.net/DTD/sodipodi-0.dtd"
   xmlns="http://www.w3.org/2000/svg"
   xmlns:svg="http://www.w3.org/2000/svg"><defs
     id="defs6"><clipPath
       clipPathUnits="userSpaceOnUse"
       id="clipPath18"><path
         d="M 0,500 H 750 V 0 H 0 Z"
         id="path16" /></clipPath><clipPath
       clipPathUnits="userSpaceOnUse"
       id="clipPath90"><path
         d="m 300.893,268.557 h 11.203 v -21.621 h -11.203 z"
         id="path88" /></clipPath><clipPath
       clipPathUnits="userSpaceOnUse"
       id="clipPath106"><path
         d="m 269.353,326.637 h 95.532 v -55.375 h -95.532 z"
         id="path104" /></clipPath><clipPath
       clipPathUnits="userSpaceOnUse"
       id="clipPath154"><path
         d="m 398.014,194.29 h 86.388 V 66.761 h -86.388 z"
         id="path152" /></clipPath><clipPath
       clipPathUnits="userSpaceOnUse"
       id="clipPath174"><path
         d="m 509.093,264.7 h 29.641 v -21.672 h -29.641 z"
         id="path172" /></clipPath><clipPath
       clipPathUnits="userSpaceOnUse"
       id="clipPath194"><path
         d="m 509.093,197.73 h 70.228 V 50.0074 h -70.228 z"
         id="path192" /></clipPath><clipPath
       clipPathUnits="userSpaceOnUse"
       id="clipPath222"><path
         d="m 505.538,224.259 h 94.235 V 73.2612 h -94.235 z"
         id="path220" /></clipPath></defs><sodipodi:namedview
     id="namedview4"
     pagecolor="#ffffff"
     bordercolor="#666666"
     borderopacity="1.0"
     inkscape:pageshadow="2"
     inkscape:pageopacity="0.0"
     inkscape:pagecheckerboard="0" /><g
     id="g8"
     inkscape:groupmode="layer"
     inkscape:label="4990221"
     transform="matrix(1.3333333,0,0,-1.3333333,0,666.66667)"><path
       d="M 0,0 H 750 V 500 H 0 Z"
       style="fill:#f2fbff;fill-opacity:1;fill-rule:nonzero;stroke:none"
       id="path10" /><g
       id="g12"><g
         id="g14"
         clip-path="url(#clipPath18)"><g
           id="g20"
           transform="translate(676.6152,53.2354)"><path
             d="m 0,0 c 4.204,8.002 14.424,31.568 20.162,80.029 7.35,62.064 -26.132,102.895 -34.298,124.944 -8.166,22.049 17.966,68.596 -19.599,114.327 -37.565,45.731 -100.445,44.915 -135.56,26.949 -35.115,-17.966 -80.029,-36.748 -115.961,-2.45 -35.931,34.299 -61.061,50.652 -118.89,57.742 -60.558,7.423 -156.874,-31.118 -150.047,-112.756 6.734,-80.526 -50.058,-69.888 -65.879,-146.692 C -638.817,51.088 -591.472,7.72 -586.327,0 Z"
             style="fill:#c9f5ff;fill-opacity:1;fill-rule:nonzero;stroke:none"
             id="path22" /></g><path
           d="M 567.405,50.007 H 109.85 V 206.65 h 457.555 z"
           style="fill:#00c0d0;fill-opacity:1;fill-rule:nonzero;stroke:none"
           id="path24" /><g
           id="g26"
           transform="translate(575.5225,50.0068)"><path
             d="M 0,0 H -9.338 V 156.643 H -464.452 V 0 h -9.338 V 165.979 H 0 Z"
             style="fill:#69d4e3;fill-opacity:1;fill-rule:nonzero;stroke:none"
             id="path28" /></g><path
           d="M 570.854,126.948 H 106.402 v 9.337 h 464.452 z"
           style="fill:#69d4e3;fill-opacity:1;fill-rule:nonzero;stroke:none"
           id="path30" /><path
           d="m 259.249,53.235 h -9.337 v 158.083 h 9.337 z"
           style="fill:#69d4e3;fill-opacity:1;fill-rule:nonzero;stroke:none"
           id="path32" /><path
           d="m 427.344,53.235 h -9.337 v 158.083 h 9.337 z"
           style="fill:#69d4e3;fill-opacity:1;fill-rule:nonzero;stroke:none"
           id="path34" /><g
           id="g36"
           transform="translate(137.5322,50.5068)"><path
             d="m 0,0 c 0,0 -46.689,101.549 -29.181,134.231 17.509,32.683 91.044,24.512 107.385,-5.835 C 94.545,98.047 119.057,0 119.057,0 Z"
             style="fill:#0054ae;fill-opacity:1;fill-rule:nonzero;stroke:none"
             id="path38" /></g><g
           id="g40"
           transform="translate(215.7363,178.9023)"><path
             d="m 0,0 c -2.397,4.453 -6.034,8.424 -10.537,11.863 -13.61,5.493 -41.088,13.342 -58.178,-3.748 -18.934,-18.934 20.244,-103.034 40.067,-136.511 h 69.501 c 0,0 -24.512,98.047 -40.853,128.396"
             style="fill:#0079ca;fill-opacity:1;fill-rule:nonzero;stroke:none"
             id="path42" /></g><g
           id="g44"
           transform="translate(632.4404,50.5068)"><path
             d="M 0,0 C 0,0 46.688,101.549 29.181,134.231 11.672,166.914 -61.863,158.743 -78.205,128.396 -94.546,98.047 -119.058,0 -119.058,0 Z"
             style="fill:#0079ca;fill-opacity:1;fill-rule:nonzero;stroke:none"
             id="path46" /></g><g
           id="g48"
           transform="translate(571.2373,195.0127)"><path
             d="M 0,0 C -7.513,-4.26 -13.542,-9.686 -17.002,-16.11 -33.343,-46.459 -57.854,-144.506 -57.854,-144.506 H 19.117 C 35.205,-109.83 66.448,-36.859 55.334,-15.168 47.398,0.32 21.886,1.872 0,0"
             style="fill:#0054ae;fill-opacity:1;fill-rule:nonzero;stroke:none"
             id="path50" /></g><g
           id="g52"
           transform="translate(396.6064,110.0547)"><path
             d="m 0,0 c 0,0 9.151,-1.989 13.926,-1.989 4.774,0 18.449,7.246 21.119,4.576 2.67,-2.671 -10.376,-6.168 -7.591,-8.953 2.785,-2.785 25.863,-3.78 23.675,-5.968 -2.189,-2.188 -15.12,-1.194 -15.12,-1.194 0,0 16.114,-1.591 16.114,-3.78 0,-2.188 -15.915,-0.796 -15.915,-0.796 0,0 14.051,-2.012 12.136,-3.927 -1.916,-1.916 -13.299,0 -13.299,0 0,0 10.061,-1.498 7.529,-4.031 -0.796,-0.795 -16.512,-0.199 -23.475,2.985 -6.963,3.182 -10.01,6.764 -11.272,6.764 -1.263,0 -14.592,2.387 -14.592,2.387 z"
             style="fill:#cd6167;fill-opacity:1;fill-rule:nonzero;stroke:none"
             id="path54" /></g><g
           id="g56"
           transform="translate(308.0137,223.4229)"><path
             d="m 0,0 c 0,0 11.023,-73.67 26.456,-83.958 15.432,-10.288 64.669,-24.251 64.669,-24.251 0,0 2.939,-17.637 -8.818,-27.19 0,0 -55.851,11.023 -75.693,24.985 -19.842,13.963 -43.358,98.475 -40.419,107.293 C -30.865,5.697 0,0 0,0"
             style="fill:#f2eef3;fill-opacity:1;fill-rule:nonzero;stroke:none"
             id="path58" /></g><g
           id="g60"
           transform="translate(321.0601,237.4902)"><path
             d="m 0,0 c -0.407,0 -0.66,0.054 -0.691,0.061 l 0.456,2.134 c 0.06,-0.008 1.446,-0.241 3.013,1.31 3.201,3.167 7.61,14.096 1.185,51.718 L 6.115,55.59 C 12.421,18.667 8.55,5.978 4.191,1.834 2.534,0.259 0.896,0 0,0"
             style="fill:#00657f;fill-opacity:1;fill-rule:nonzero;stroke:none"
             id="path62" /></g><g
           id="g64"
           transform="translate(348.0952,285.1265)"><path
             d="m 0,0 c 0.816,8.752 0.802,18.114 0.031,26.167 -1.629,17.026 -19.726,21.025 -19.726,21.025 0,0 -31.317,14.255 -44.477,-12.552 -13.161,-26.807 -1.191,-45.059 -2.143,-51.151 -0.953,-6.092 -7.498,-23.011 -7.498,-23.011 l 28.142,-14.745 c 0,0 2.497,11.127 3.271,16.076 0.773,4.95 6.401,6.021 6.401,6.021 10.304,-3.951 22.069,-6.643 30.067,7.84 1.651,2.99 2.974,6.961 3.988,11.504 1.536,0.095 4.72,0.425 5.853,1.558 C 5.099,-10.078 1.576,-2.999 0,0"
             style="fill:#ffb4bf;fill-opacity:1;fill-rule:nonzero;stroke:none"
             id="path66" /></g><g
           id="g68"
           transform="translate(343.0898,267.8735)"><path
             d="m 0,0 -8.924,2.525 c 0,0 0.337,-8.419 3.115,-8.419 C -3.031,-5.894 0,0 0,0"
             style="fill:#ffffff;fill-opacity:1;fill-rule:nonzero;stroke:none"
             id="path70" /></g><g
           id="g72"
           transform="translate(344.353,290.2427)"><path
             d="m 0,0 c 0,-1.581 -1.282,-2.862 -2.862,-2.862 -1.581,0 -2.863,1.281 -2.863,2.862 0,1.581 1.282,2.862 2.863,2.862 C -1.282,2.862 0,1.581 0,0"
             style="fill:#00657f;fill-opacity:1;fill-rule:nonzero;stroke:none"
             id="path74" /></g><g
           id="g76"
           transform="translate(334.1655,296.5352)"><path
             d="m 0,0 c 0,0 6.025,1.164 12.242,0 0,0 1.193,4.823 -3.612,4.823 C 3.825,4.823 0,0 0,0"
             style="fill:#00657f;fill-opacity:1;fill-rule:nonzero;stroke:none"
             id="path78" /></g><g
           id="g80"
           transform="translate(350.1836,338.3262)"><path
             d="m 0,0 c 5.995,1.035 11.831,-2.421 13.587,-8.246 1.198,-3.973 1.953,-8.518 1.276,-12.85 -1.785,-11.423 -14.023,-14.121 -23.847,-11.938 -8.01,1.78 -14.738,7.583 -14.738,7.583 0,0 0.216,-11.427 -5.728,-15.764 -5.943,-4.337 -3.697,-9.663 -6.363,-9.246 -2.665,0.416 1.466,11.186 -5.374,13.051 -6.756,1.843 -8.504,-10.639 -3.992,-14.587 l -1.536,-4.913 c 0,0 -6.734,-9.801 -14.587,-10.134 -7.852,-0.333 -11.82,3.438 -16.412,18.978 -4.593,15.539 -6.239,33.412 2.256,45.345 8.497,11.934 18.986,7.18 19.283,9.084 0.298,1.904 11.228,12.021 26.831,4.022 C -19.718,5.451 -10.939,-1.889 0,0"
             style="fill:#0054ae;fill-opacity:1;fill-rule:nonzero;stroke:none"
             id="path82" /></g><g
           id="g84"><g
             id="g86" /><g
             id="g98"><g
               clip-path="url(#clipPath90)"
               opacity="0.5"
               id="g96"><g
                 transform="translate(301.6821,268.5571)"
                 id="g94"><path
                   d="m 0,0 c -3.118,-3.758 4.013,-21.622 4.013,-21.622 0.773,4.951 6.401,6.021 6.401,6.021 0,0 -13.014,9.967 -10.414,15.601"
                   style="fill:#ffc0c7;fill-opacity:1;fill-rule:nonzero;stroke:none"
                   id="path92" /></g></g></g></g><g
           id="g100"><g
             id="g102" /><g
             id="g114"><g
               clip-path="url(#clipPath106)"
               opacity="0.5"
               id="g112"><g
                 transform="translate(364.8848,316.3745)"
                 id="g110"><path
                   d="m 0,0 c -22.041,-8.525 -47.518,5.636 -51.621,10.263 -0.858,-6.98 -1.007,-13.538 -9.633,-22.631 -14.019,-14.173 -26.916,-6.664 -34.278,0.475 0.656,-4.802 1.755,-9.614 3.116,-14.222 4.593,-15.539 8.561,-19.311 16.413,-18.978 7.853,0.333 14.587,10.135 14.587,10.135 l 1.536,4.913 c -4.512,3.947 -2.764,16.429 3.992,14.587 6.84,-1.866 2.709,-12.635 5.374,-13.052 2.665,-0.416 0.42,4.909 6.363,9.246 5.943,4.337 5.728,15.765 5.728,15.765 0,0 6.728,-5.804 14.737,-7.584 C -14.112,-13.21 -2.252,-10.698 0,0"
                   style="fill:#0054ae;fill-opacity:1;fill-rule:nonzero;stroke:none"
                   id="path108" /></g></g></g></g><g
           id="g116"
           transform="translate(371.6431,124.6289)"><path
             d="m 0,0 c -2.605,0 -5.318,0.273 -8.148,0.854 -37.627,7.719 -43.414,101.815 -43.94,112.284 -11.593,4.109 -12.893,49.791 -13.005,55.107 l 2.183,0.046 c 0.3,-14.296 3.053,-51.727 12.053,-53.227 l 0.873,-0.145 0.039,-0.885 c 0.044,-1.033 4.894,-103.381 42.236,-111.042 27.245,-5.586 42.858,18.464 56.631,39.686 5.177,7.974 10.067,15.509 15.114,20.555 18.132,18.134 29.465,18.404 29.939,18.407 l 0.013,-2.184 C 93.885,79.454 82.968,79.08 65.579,61.689 60.695,56.805 55.866,49.365 50.753,41.488 38.626,22.804 23.827,0.001 0,0"
             style="fill:#00657f;fill-opacity:1;fill-rule:nonzero;stroke:none"
             id="path118" /></g><g
           id="g120"
           transform="translate(310.2783,292.897)"><path
             d="m 0,0 c 0,-1.457 -1.181,-2.637 -2.637,-2.637 -1.457,0 -2.637,1.18 -2.637,2.637 0,1.457 1.18,2.637 2.637,2.637 C -1.181,2.637 0,1.457 0,0"
             style="fill:#ffffff;fill-opacity:1;fill-rule:nonzero;stroke:none"
             id="path122" /></g><g
           id="g124"
           transform="translate(269.1597,248.1436)"><path
             d="m 0,0 c 0,0 26.81,-6.659 45.917,-33.851 16.159,-22.995 16.477,-163.606 16.477,-163.606 l -118.168,-0.607 c 0,0 11.305,32.398 16.137,63.153 5.259,33.472 6.111,85.108 14.707,105.641 C -11.831,2.023 0,0 0,0"
             style="fill:#ffffff;fill-opacity:1;fill-rule:nonzero;stroke:none"
             id="path126" /></g><g
           id="g128"
           transform="translate(287.2617,71.9268)"><path
             d="m 0,0 c -11.826,-1.075 -24.188,9.675 -24.726,1.075 -0.29,-4.633 -2.759,-14.098 -3.551,-22.688 l 72.569,0.373 c 0,0 -1.631,137.408 -17.79,160.404 -6.582,9.366 -25.111,17.778 -31.926,21.79 -16.562,-3.579 -20.504,-3.174 -27.365,-15.824 0,0 -5.913,-10.213 15.051,-42.464 C 3.225,70.415 27.951,51.064 33.326,41.389 38.701,31.714 37.089,15.588 26.338,12.9 15.588,10.213 -17.201,46.227 -15.051,36.014 -12.9,25.801 11.825,1.075 0,0"
             style="fill:#f2eef3;fill-opacity:1;fill-rule:nonzero;stroke:none"
             id="path130" /></g><g
           id="g132"
           transform="translate(269.1597,248.1436)"><path
             d="m 0,0 c 0,0 13.868,-8.734 22.687,-25.637 8.818,-16.902 5.144,-18.372 5.144,-18.372 l 17.637,-5.144 -14.698,-8.819 30.294,-87.883 c 0,0 -2.368,78.33 -8.982,99.641 C 45.468,-24.902 7.989,8.167 7.989,8.167 Z"
             style="fill:#f2eef3;fill-opacity:1;fill-rule:nonzero;stroke:none"
             id="path134" /></g><g
           id="g136"
           transform="translate(386.1934,83.7822)"><path
             d="m 0,0 c 0,0 -2.312,0.342 2.104,-7.071 4.417,-7.413 9.736,-10.751 11.335,-9.95 1.6,0.801 4.754,5.534 1.915,11.37 C 12.516,0.185 0,0 0,0"
             style="fill:#fe4b34;fill-opacity:1;fill-rule:nonzero;stroke:none"
             id="path138" /></g><g
           id="g140"
           transform="translate(402.3877,70.1992)"><path
             d="m 0,0 c 0,0 -6.701,-3.269 -7.801,-4.215 -1.099,-0.946 -3.369,-5.375 -9.995,-9.094 -5.773,-3.241 -10.454,-6.856 -12.032,-5.024 -1.576,1.832 4.576,5.433 6.347,6.956 1.771,1.524 2.266,4.274 2.266,4.274 0,0 -3.863,0.298 -8.764,-1.048 -4.9,-1.348 -10.393,-9.481 -12.411,-8.669 -3.081,1.238 5.51,10.635 5.51,10.635 0,0 -8.766,-8.835 -10.133,-7.247 -1.367,1.589 7.516,10.933 7.516,10.933 0,0 4.805,4.643 9.748,6.557 4.942,1.915 10.738,2.241 17.093,4.049 6.354,1.81 14.522,10.281 14.522,10.281 0,0 12.488,-7.848 9.971,-11.39 C 10.625,5.291 0,0 0,0"
             style="fill:#f69398;fill-opacity:1;fill-rule:nonzero;stroke:none"
             id="path142" /></g><g
           id="g144"
           transform="translate(484.0293,227.7002)"><path
             d="m 0,0 c 0,0 -18.925,-6.104 -26.745,-35.382 -7.821,-29.277 -12.368,-58.404 -19.103,-67.421 -6.735,-9.017 -51.988,-41.115 -51.988,-41.115 0,0 6.617,-2.096 11.359,-7.607 4.744,-5.511 2.081,-9.414 2.081,-9.414 0,0 53.46,21.011 65.391,44.071 11.93,23.06 20.556,89.097 21.515,101.886 C 3.468,-2.193 0,0 0,0"
             style="fill:#ed4234;fill-opacity:1;fill-rule:nonzero;stroke:none"
             id="path146" /></g><g
           id="g148"><g
             id="g150" /><g
             id="g162"><g
               clip-path="url(#clipPath154)"
               id="g160"><g
                 transform="translate(465.0234,110.832)"
                 id="g158"><path
                   d="M 0,0 C 8.906,17.215 15.97,58.374 19.378,83.458 10.914,83.381 3.254,81.871 3.254,81.871 c 0,0 -0.671,-52.712 -8.199,-68.834 -6.351,-13.599 -48.899,-40.261 -62.064,-48.275 4.074,-5.2 1.618,-8.833 1.618,-8.833 0,0 53.461,21.011 65.391,44.071"
                   style="fill:#fe4b34;fill-opacity:1;fill-rule:nonzero;stroke:none"
                   id="path156" /></g></g></g></g><g
           id="g164"
           transform="translate(500.4678,234.9443)"><path
             d="m 0,0 c 0,0 5.929,2.864 7.801,4.736 1.871,1.871 1.019,25.02 1.019,25.02 h 29.447 c 0,0 -2.621,-22.583 0,-25.203 2.62,-2.62 5.478,-2.388 5.478,-2.388 0,0 5.75,-16.882 -13.963,-24.091 C 10.068,-29.135 -3.656,-16.741 -3.656,-8.839 -3.656,-0.937 0,0 0,0"
             style="fill:#ffc0c7;fill-opacity:1;fill-rule:nonzero;stroke:none"
             id="path166" /></g><g
           id="g168"><g
             id="g170" /><g
             id="g182"><g
               clip-path="url(#clipPath174)"
               opacity="0.5"
               id="g180"><g
                 transform="translate(538.6602,264.0342)"
                 id="g178"><path
                   d="m 0,0 c 0.046,0.422 0.074,0.666 0.074,0.666 h -29.446 c 0,0 0.543,-14.78 -0.194,-21.672 C -20.421,-19.695 -4.349,-15.23 0,0"
                   style="fill:#ffc0c7;fill-opacity:1;fill-rule:nonzero;stroke:none"
                   id="path176" /></g></g></g></g><g
           id="g184"
           transform="translate(500.4678,234.9443)"><path
             d="m 0,0 c 0,0 -7.794,-17.326 15.92,-19.104 23.714,-1.776 27.825,21.269 27.825,21.269 0,0 22.898,-2.066 31.765,-21.633 8.867,-19.567 -2.697,-165.469 -2.697,-165.469 H -54.104 c 0,0 18.666,47.788 18.661,76.755 -0.007,28.968 1.998,75.775 8.689,93.171 C -24.341,-8.735 0,0 0,0"
             style="fill:#fe4b34;fill-opacity:1;fill-rule:nonzero;stroke:none"
             id="path186" /></g><g
           id="g188"><g
             id="g190" /><g
             id="g202"><g
               clip-path="url(#clipPath194)"
               id="g200"><g
                 transform="translate(553.165,190.7187)"
                 id="g198"><path
                   d="m 0,0 v -53.955 c 0,-20.273 -25.093,-24.816 -23.104,-31.487 1.987,-6.672 15.153,-10.83 12.346,-19.484 -2.807,-8.653 -33.313,-8.911 -33.313,-26.142 0,-3.161 0.94,-6.419 2.615,-9.643 h 61.572 c 0,0 8.043,101.494 5.567,146.528 C 17.219,8.354 8.37,7.042 0,0"
                   style="fill:#fe4b34;fill-opacity:1;fill-rule:nonzero;stroke:none"
                   id="path196" /></g></g></g></g><g
           id="g204"
           transform="translate(502.1113,235.707)"><path
             d="m 0,0 c 0,0 -3.437,2.005 -6.301,-2.578 -2.864,-4.583 -4.87,-19.191 15.467,-21.483 20.336,-2.291 29.788,8.021 31.793,11.745 2.005,3.723 4.583,10.31 4.01,12.888 -0.573,2.578 -5.226,1.37 -5.226,1.37 0,0 1.374,-20.519 -24.117,-20.805 C -9.866,-19.149 0,0 0,0"
             style="fill:#ffffff;fill-opacity:1;fill-rule:nonzero;stroke:none"
             id="path206" /></g><g
           id="g208"
           transform="translate(512.5762,95.0098)"><path
             d="m 0,0 c 0,0 -12.918,-1.524 -20.937,-0.531 -8.018,0.993 -9.618,1.601 -19.841,-1.725 -10.223,-3.326 -28.788,-15.014 -24.829,-16.757 3.959,-1.743 16.027,6.366 16.027,6.366 0,0 -13.942,-9.755 -12.501,-11.604 1.441,-1.849 15.743,7.444 15.743,7.444 0,0 -10.678,-10.368 -7.388,-10.775 3.289,-0.407 12.068,8.108 12.068,8.108 0,0 -7.956,-8.617 -4.872,-8.999 3.084,-0.382 10.091,7.309 10.091,7.309 0,0 10.483,0.372 13.95,3.074 3.466,2.702 5.862,3.832 8.329,3.527 2.468,-0.305 18.444,-1.416 18.444,-1.416 z"
             style="fill:#f69398;fill-opacity:1;fill-rule:nonzero;stroke:none"
             id="path210" /></g><g
           id="g212"
           transform="translate(561.2344,231.3877)"><path
             d="m 0,0 c 0,0 18.089,-6.59 27.956,-37.469 10.012,-31.331 15.475,-96.919 4.662,-108.7 -10.811,-11.781 -86.067,-11.958 -86.067,-11.958 0,0 -3.539,13.4 -3.963,23.283 0,0 62.009,8.865 65.307,12.457 3.297,3.593 -17.743,77.719 -18.499,95.348 C -11.359,-9.409 0,0 0,0"
             style="fill:#fe4b34;fill-opacity:1;fill-rule:nonzero;stroke:none"
             id="path214" /></g><g
           id="g216"><g
             id="g218" /><g
             id="g230"><g
               clip-path="url(#clipPath222)"
               id="g228"><g
                 transform="translate(571.4844,224.2588)"
                 id="g226"><path
                   d="m 0,0 c 0.141,-0.687 0.3,-1.391 0.498,-2.13 0,0 15.278,-72.201 17.483,-98.26 2.206,-26.059 -0.577,-33.796 -25.619,-38.076 -17.967,-3.071 -44.661,-2.825 -58.308,-2.441 1.075,-5.651 2.247,-10.091 2.247,-10.091 0,0 75.256,0.177 86.068,11.958 10.812,11.781 5.349,77.369 -4.663,108.7 C 12.765,-14.875 5.761,-5.504 0,0"
                   style="fill:#fe4b34;fill-opacity:1;fill-rule:nonzero;stroke:none"
                   id="path224" /></g></g></g></g><g
           id="g232"
           transform="translate(503.8223,95.998)"><path
             d="m 0,0 c -0.262,0 -0.493,0.188 -0.538,0.455 -0.05,0.298 0.151,0.579 0.448,0.629 0.527,0.088 52.892,8.871 64.548,11.975 8.71,2.318 15.259,-1.919 18.232,-4.461 -0.921,1.873 -2.813,4.589 -6.535,6.6 -1.6,0.864 -2.292,1.555 -2.245,2.238 0.016,0.234 0.14,0.664 0.79,0.907 1.984,0.744 8.299,-0.503 10.783,-2.988 0.214,-0.213 0.214,-0.558 0,-0.772 -0.212,-0.213 -0.558,-0.213 -0.771,0 -2.379,2.378 -8.616,3.302 -9.67,2.733 0.11,-0.155 0.471,-0.531 1.631,-1.158 C 83.382,12.533 84.524,6.879 84.57,6.641 84.617,6.396 84.492,6.151 84.268,6.046 84.043,5.938 83.773,5.998 83.615,6.188 83.541,6.277 76.06,15.023 64.739,12.004 53.033,8.887 0.619,0.096 0.091,0.007 0.061,0.002 0.029,0 0,0"
             style="fill:#fe4b34;fill-opacity:1;fill-rule:nonzero;stroke:none"
             id="path234" /></g><g
           id="g236"
           transform="translate(555.833,174.9912)"><path
             d="m 0,0 c -0.235,0 -0.453,0.153 -0.523,0.391 -9.718,32.838 -3.308,42.879 -3.03,43.29 0.17,0.25 0.511,0.314 0.757,0.147 0.25,-0.168 0.316,-0.506 0.15,-0.756 C -2.712,42.975 -9.009,32.912 0.523,0.701 0.609,0.411 0.443,0.108 0.155,0.022 0.104,0.007 0.052,0 0,0"
             style="fill:#fe4b34;fill-opacity:1;fill-rule:nonzero;stroke:none"
             id="path238" /></g><g
           id="g240"
           transform="translate(486.7461,318.0493)"><path
             d="m 0,0 c 0,0 -9.441,-31.472 1.415,-57.242 6.418,-15.236 18.592,-12.796 29.881,-9.688 12.421,3.42 27.058,14.598 33.935,33.76 6.878,19.161 7.457,40.348 -14.243,49.422 C 29.289,25.327 5.206,13.906 0,0"
             style="fill:#ffc0c7;fill-opacity:1;fill-rule:nonzero;stroke:none"
             id="path242" /></g><g
           id="g244"
           transform="translate(493.9541,284.5962)"><path
             d="m 0,0 c 0.047,-1.497 -1.128,-2.748 -2.624,-2.794 -1.497,-0.047 -2.748,1.128 -2.795,2.625 -0.046,1.496 1.129,2.747 2.625,2.794 C -1.297,2.671 -0.047,1.496 0,0"
             style="fill:#511e1a;fill-opacity:1;fill-rule:nonzero;stroke:none"
             id="path246" /></g><g
           id="g248"
           transform="translate(484.125,290.251)"><path
             d="m 0,0 c 0,0 5.669,1.28 11.588,0.362 0,0 0.987,4.6 -3.562,4.458 C 3.479,4.678 0,0 0,0"
             style="fill:#511e1a;fill-opacity:1;fill-rule:nonzero;stroke:none"
             id="path250" /></g><g
           id="g252"
           transform="translate(510.0508,283.9692)"><path
             d="M 0,0 C 0.047,-1.497 1.298,-2.671 2.794,-2.625 4.291,-2.578 5.466,-1.327 5.419,0.169 5.372,1.666 4.121,2.841 2.625,2.794 1.129,2.747 -0.047,1.496 0,0"
             style="fill:#511e1a;fill-opacity:1;fill-rule:nonzero;stroke:none"
             id="path254" /></g><g
           id="g256"
           transform="translate(519.5078,290.2266)"><path
             d="m 0,0 c 0,0 -5.737,0.924 -11.588,-0.362 0,0 -1.271,4.53 3.276,4.672 C -3.763,4.452 0,0 0,0"
             style="fill:#511e1a;fill-opacity:1;fill-rule:nonzero;stroke:none"
             id="path258" /></g><g
           id="g260"
           transform="translate(495.2207,273.041)"><path
             d="M 0,0 C 0,0 4.611,-1.397 9.084,0 9.084,0 7.127,-2.112 3.586,-2.112 0.045,-2.112 0,0 0,0"
             style="fill:#cd6167;fill-opacity:1;fill-rule:nonzero;stroke:none"
             id="path262" /></g><g
           id="g264"
           transform="translate(496.1504,266.6631)"><path
             d="m 0,0 12.979,0.642 c 0,0 -4.984,-8.223 -9.367,-6.167 C -0.771,-3.47 0,0 0,0"
             style="fill:#ffffff;fill-opacity:1;fill-rule:nonzero;stroke:none"
             id="path266" /></g><g
           id="g268"
           transform="translate(527.0654,313.3955)"><path
             d="m 0,0 c 0,0 -17.466,-10.349 -37.361,-0.618 0,0 -6.066,-3.082 -6.066,-10.631 0,-5.906 -11.259,8.736 -7.687,22.419 3.57,13.684 38.958,22.483 51.515,20.677 12.558,-1.806 14.147,-8.753 16.349,-12.502 0,0 9.936,-0.971 12.81,-12.834 2.618,-10.809 3.123,-31.944 -8.29,-47.718 -1.562,-2.159 -4.996,-1.406 -5.385,1.23 -0.212,1.43 -0.306,6.557 0.588,6.383 4.695,-0.914 11.212,10.362 7.165,14.853 -5.709,6.335 -10.397,-1.574 -10.397,-6.68 0,-5.289 -4.727,4.566 -5.106,9.887 C 7.755,-10.213 1.145,-9.553 0,0"
             style="fill:#511e1a;fill-opacity:1;fill-rule:nonzero;stroke:none"
             id="path270" /></g><g
           id="g272"
           transform="translate(481.5273,221.0791)"><path
             d="M 0,0 H -5.301 V -31.806 H 0 c 5.855,0 10.602,7.12 10.602,15.904 C 10.602,-7.119 5.855,0 0,0"
             style="fill:#e7e0e9;fill-opacity:1;fill-rule:nonzero;stroke:none"
             id="path274" /></g><g
           id="g276"
           transform="translate(486.8281,205.1768)"><path
             d="m 0,0 c 0,-8.783 -4.747,-15.903 -10.602,-15.903 -5.855,0 -10.602,7.12 -10.602,15.903 0,8.783 4.747,15.902 10.602,15.902 C -4.747,15.902 0,8.783 0,0"
             style="fill:#b6abbb;fill-opacity:1;fill-rule:nonzero;stroke:none"
             id="path278" /></g><g
           id="g280"
           transform="translate(474.043,215.6504)"><path
             d="M 0,0 H -6.982 V -20.947 H 0 c 3.856,0 6.982,4.688 6.982,10.473 C 6.982,-4.689 3.856,0 0,0"
             style="fill:#e7e0e9;fill-opacity:1;fill-rule:nonzero;stroke:none"
             id="path282" /></g><g
           id="g284"
           transform="translate(474.043,205.1768)"><path
             d="m 0,0 c 0,-5.785 -3.126,-10.474 -6.982,-10.474 -3.857,0 -6.983,4.689 -6.983,10.474 0,5.784 3.126,10.474 6.983,10.474 C -3.126,10.474 0,5.784 0,0"
             style="fill:#b6abbb;fill-opacity:1;fill-rule:nonzero;stroke:none"
             id="path286" /></g><g
           id="g288"
           transform="translate(420.3535,188.4922)"><path
             d="m 0,0 c 0,0 11.034,1.636 15.858,5.717 4.825,4.082 11.503,15.586 17.441,17.811 5.937,2.227 21.151,8.535 21.522,5.567 0.371,-2.969 -12.617,-8.906 -12.617,-8.906 0,0 16.328,5.195 15.586,1.484 -0.742,-3.71 -15.215,-7.421 -15.215,-7.421 0,0 16.699,-0.371 13.36,-2.969 -3.34,-2.597 -12.989,-1.855 -12.989,-1.855 0,0 12.246,-2.969 9.278,-4.453 -2.969,-1.485 -10.02,-0.371 -10.02,-0.371 0,0 -10.018,-11.503 -21.521,-11.132 L 5.468,-14.692 Z"
             style="fill:#cd6167;fill-opacity:1;fill-rule:nonzero;stroke:none"
             id="path290" /></g><g
           id="g292"
           transform="translate(256.2798,224.7451)"><path
             d="m 0,0 c -2.743,-5.171 -2.613,-11.392 -0.052,-16.656 8.899,-18.3 49.874,-67.267 73.832,-69.359 20.715,-1.809 101.414,27.925 101.414,27.925 0,0 2.192,20.58 -8.819,23.517 L 78.924,-52.211 c 0,0 -40.078,50.377 -48.427,58.727 C 23.74,13.271 6.442,12.145 0,0"
             style="fill:#ffffff;fill-opacity:1;fill-rule:nonzero;stroke:none"
             id="path294" /></g><g
           id="g296"
           transform="translate(420.3535,172.8008)"><path
             d="m 0,0 c -7.406,-3.979 -83.586,-20.028 -90.13,-26.571 -3.58,-3.581 -2.389,-5.996 -0.577,-7.451 0.138,-0.015 0.277,-0.037 0.414,-0.048 20.714,-1.81 101.413,27.924 101.413,27.924 0,0 1.396,13.167 -3.682,19.938 C 6.91,9.894 5.241,2.816 0,0"
             style="fill:#f2eef3;fill-opacity:1;fill-rule:nonzero;stroke:none"
             id="path298" /></g><g
           id="g300"
           transform="translate(167.7505,117.1523)"><path
             d="m 0,0 h -3.859 v 9.086 c 0,2.452 -1.995,4.447 -4.446,4.447 h -24.016 c -2.452,0 -4.447,-1.995 -4.447,-4.447 V 0 h -3.858 v 9.086 c 0,4.579 3.725,8.306 8.305,8.306 H -8.305 C -3.726,17.392 0,13.665 0,9.086 Z"
             style="fill:#b6abbb;fill-opacity:1;fill-rule:nonzero;stroke:none"
             id="path302" /></g><path
           d="M 177.137,58.325 H 93.508 v 61.002 h 83.629 z"
           style="fill:#ffffff;fill-opacity:1;fill-rule:nonzero;stroke:none"
           id="path304" /><path
           d="m 177.137,58.325 h 24.577 v 61.002 h -24.577 z"
           style="fill:#b6abbb;fill-opacity:1;fill-rule:nonzero;stroke:none"
           id="path306" /><g
           id="g308"
           transform="translate(155.5752,88.8262)"><path
             d="m 0,0 c 0,-11.187 -9.068,-20.254 -20.253,-20.254 -11.186,0 -20.254,9.067 -20.254,20.254 0,11.186 9.068,20.253 20.254,20.253 C -9.068,20.253 0,11.186 0,0"
             style="fill:#00dfcb;fill-opacity:1;fill-rule:nonzero;stroke:none"
             id="path310" /></g><path
           d="m 142.067,75.161 h -13.014 v 27.33 h 13.014 z"
           style="fill:#ffffff;fill-opacity:1;fill-rule:nonzero;stroke:none"
           id="path312" /><path
           d="m 121.895,95.333 h 27.33 V 82.319 h -27.33 z"
           style="fill:#ffffff;fill-opacity:1;fill-rule:nonzero;stroke:none"
           id="path314" /><g
           id="g316"
           transform="translate(233.9209,58.3252)"><path
             d="m 0,0 h -25.899 v 77.85 c 0,7.152 5.798,12.949 12.949,12.949 C -5.798,90.799 0,85.002 0,77.85 Z"
             style="fill:#b6abbb;fill-opacity:1;fill-rule:nonzero;stroke:none"
             id="path318" /></g><g
           id="g320"
           transform="translate(238.6504,58.3252)"><path
             d="m 0,0 h -25.899 v 77.85 c 0,7.152 5.798,12.949 12.949,12.949 h 10e-4 C -5.798,90.799 0,85.002 0,77.85 Z"
             style="fill:#e7e0e9;fill-opacity:1;fill-rule:nonzero;stroke:none"
             id="path322" /></g><path
           d="m 230.989,58.325 h -10.018 v 83.272 h 10.018 z"
           style="fill:#ffffff;fill-opacity:1;fill-rule:nonzero;stroke:none"
           id="path324" /><path
           d="m 223.376,58.324 h -0.546 v 81.598 h 0.546 z"
           style="fill:#00657f;fill-opacity:1;fill-rule:nonzero;stroke:none"
           id="path326" /><path
           d="m 228.599,137.588 h -4.168 v 0.546 h 4.168 z"
           style="fill:#00657f;fill-opacity:1;fill-rule:nonzero;stroke:none"
           id="path328" /><path
           d="m 226.943,136.095 h -2.513 v 0.546 h 2.513 z"
           style="fill:#00657f;fill-opacity:1;fill-rule:nonzero;stroke:none"
           id="path330" /><path
           d="m 226.943,134.603 h -2.513 v 0.546 h 2.513 z"
           style="fill:#00657f;fill-opacity:1;fill-rule:nonzero;stroke:none"
           id="path332" /><path
           d="m 226.943,133.109 h -2.513 v 0.546 h 2.513 z"
           style="fill:#00657f;fill-opacity:1;fill-rule:nonzero;stroke:none"
           id="path334" /><path
           d="m 226.943,131.617 h -2.513 v 0.545 h 2.513 z"
           style="fill:#00657f;fill-opacity:1;fill-rule:nonzero;stroke:none"
           id="path336" /><path
           d="m 228.599,130.083 h -4.168 v 0.546 h 4.168 z"
           style="fill:#00657f;fill-opacity:1;fill-rule:nonzero;stroke:none"
           id="path338" /><path
           d="m 226.943,128.591 h -2.513 v 0.545 h 2.513 z"
           style="fill:#00657f;fill-opacity:1;fill-rule:nonzero;stroke:none"
           id="path340" /><path
           d="m 226.943,127.098 h -2.513 v 0.546 h 2.513 z"
           style="fill:#00657f;fill-opacity:1;fill-rule:nonzero;stroke:none"
           id="path342" /><path
           d="m 226.943,125.605 h -2.513 v 0.545 h 2.513 z"
           style="fill:#00657f;fill-opacity:1;fill-rule:nonzero;stroke:none"
           id="path344" /><path
           d="m 226.943,124.112 h -2.513 v 0.546 h 2.513 z"
           style="fill:#00657f;fill-opacity:1;fill-rule:nonzero;stroke:none"
           id="path346" /><path
           d="m 228.599,122.579 h -4.168 v 0.545 h 4.168 z"
           style="fill:#00657f;fill-opacity:1;fill-rule:nonzero;stroke:none"
           id="path348" /><path
           d="m 226.943,121.086 h -2.513 v 0.546 h 2.513 z"
           style="fill:#00657f;fill-opacity:1;fill-rule:nonzero;stroke:none"
           id="path350" /><path
           d="m 226.943,119.593 h -2.513 v 0.546 h 2.513 z"
           style="fill:#00657f;fill-opacity:1;fill-rule:nonzero;stroke:none"
           id="path352" /><path
           d="m 226.943,118.101 h -2.513 v 0.546 h 2.513 z"
           style="fill:#00657f;fill-opacity:1;fill-rule:nonzero;stroke:none"
           id="path354" /><path
           d="m 226.943,116.607 h -2.513 v 0.546 h 2.513 z"
           style="fill:#00657f;fill-opacity:1;fill-rule:nonzero;stroke:none"
           id="path356" /><path
           d="m 228.599,115.074 h -4.168 v 0.546 h 4.168 z"
           style="fill:#00657f;fill-opacity:1;fill-rule:nonzero;stroke:none"
           id="path358" /><path
           d="m 226.943,113.581 h -2.513 v 0.546 h 2.513 z"
           style="fill:#00657f;fill-opacity:1;fill-rule:nonzero;stroke:none"
           id="path360" /><path
           d="m 226.943,112.088 h -2.513 v 0.546 h 2.513 z"
           style="fill:#00657f;fill-opacity:1;fill-rule:nonzero;stroke:none"
           id="path362" /><path
           d="m 226.943,110.596 h -2.513 v 0.546 h 2.513 z"
           style="fill:#00657f;fill-opacity:1;fill-rule:nonzero;stroke:none"
           id="path364" /><path
           d="m 226.943,109.103 h -2.513 v 0.546 h 2.513 z"
           style="fill:#00657f;fill-opacity:1;fill-rule:nonzero;stroke:none"
           id="path366" /><path
           d="m 228.599,107.569 h -4.168 v 0.546 h 4.168 z"
           style="fill:#00657f;fill-opacity:1;fill-rule:nonzero;stroke:none"
           id="path368" /><path
           d="m 226.943,106.076 h -2.513 v 0.546 h 2.513 z"
           style="fill:#00657f;fill-opacity:1;fill-rule:nonzero;stroke:none"
           id="path370" /><path
           d="m 226.943,104.583 h -2.513 v 0.546 h 2.513 z"
           style="fill:#00657f;fill-opacity:1;fill-rule:nonzero;stroke:none"
           id="path372" /><path
           d="m 226.943,103.091 h -2.513 v 0.546 h 2.513 z"
           style="fill:#00657f;fill-opacity:1;fill-rule:nonzero;stroke:none"
           id="path374" /><path
           d="m 226.943,101.598 h -2.513 v 0.546 h 2.513 z"
           style="fill:#00657f;fill-opacity:1;fill-rule:nonzero;stroke:none"
           id="path376" /><path
           d="m 228.599,100.064 h -4.168 v 0.546 h 4.168 z"
           style="fill:#00657f;fill-opacity:1;fill-rule:nonzero;stroke:none"
           id="path378" /><path
           d="m 226.943,98.571 h -2.513 v 0.546 h 2.513 z"
           style="fill:#00657f;fill-opacity:1;fill-rule:nonzero;stroke:none"
           id="path380" /><path
           d="m 226.943,97.079 h -2.513 v 0.545 h 2.513 z"
           style="fill:#00657f;fill-opacity:1;fill-rule:nonzero;stroke:none"
           id="path382" /><path
           d="m 226.943,95.586 h -2.513 v 0.546 h 2.513 z"
           style="fill:#00657f;fill-opacity:1;fill-rule:nonzero;stroke:none"
           id="path384" /><path
           d="m 226.943,94.094 h -2.513 v 0.545 h 2.513 z"
           style="fill:#00657f;fill-opacity:1;fill-rule:nonzero;stroke:none"
           id="path386" /><path
           d="m 228.599,92.56 h -4.168 v 0.546 h 4.168 z"
           style="fill:#00657f;fill-opacity:1;fill-rule:nonzero;stroke:none"
           id="path388" /><path
           d="m 226.943,91.067 h -2.513 v 0.545 h 2.513 z"
           style="fill:#00657f;fill-opacity:1;fill-rule:nonzero;stroke:none"
           id="path390" /><path
           d="m 226.943,89.574 h -2.513 v 0.546 h 2.513 z"
           style="fill:#00657f;fill-opacity:1;fill-rule:nonzero;stroke:none"
           id="path392" /><path
           d="m 226.943,88.082 h -2.513 v 0.545 h 2.513 z"
           style="fill:#00657f;fill-opacity:1;fill-rule:nonzero;stroke:none"
           id="path394" /><path
           d="m 226.943,86.589 h -2.513 v 0.546 h 2.513 z"
           style="fill:#00657f;fill-opacity:1;fill-rule:nonzero;stroke:none"
           id="path396" /><path
           d="m 228.599,85.056 h -4.168 v 0.545 h 4.168 z"
           style="fill:#00657f;fill-opacity:1;fill-rule:nonzero;stroke:none"
           id="path398" /><path
           d="m 226.943,83.563 h -2.513 v 0.546 h 2.513 z"
           style="fill:#00657f;fill-opacity:1;fill-rule:nonzero;stroke:none"
           id="path400" /><path
           d="m 226.943,82.069 h -2.513 v 0.546 h 2.513 z"
           style="fill:#00657f;fill-opacity:1;fill-rule:nonzero;stroke:none"
           id="path402" /><path
           d="m 226.943,80.577 h -2.513 v 0.546 h 2.513 z"
           style="fill:#00657f;fill-opacity:1;fill-rule:nonzero;stroke:none"
           id="path404" /><path
           d="m 226.943,79.084 h -2.513 v 0.546 h 2.513 z"
           style="fill:#00657f;fill-opacity:1;fill-rule:nonzero;stroke:none"
           id="path406" /><path
           d="m 228.599,77.551 h -4.168 v 0.546 h 4.168 z"
           style="fill:#00657f;fill-opacity:1;fill-rule:nonzero;stroke:none"
           id="path408" /><path
           d="m 226.943,76.058 h -2.513 v 0.546 h 2.513 z"
           style="fill:#00657f;fill-opacity:1;fill-rule:nonzero;stroke:none"
           id="path410" /><path
           d="m 226.943,74.564 h -2.513 v 0.546 h 2.513 z"
           style="fill:#00657f;fill-opacity:1;fill-rule:nonzero;stroke:none"
           id="path412" /><path
           d="m 226.943,73.072 h -2.513 v 0.546 h 2.513 z"
           style="fill:#00657f;fill-opacity:1;fill-rule:nonzero;stroke:none"
           id="path414" /><path
           d="m 226.943,71.579 h -2.513 v 0.546 h 2.513 z"
           style="fill:#00657f;fill-opacity:1;fill-rule:nonzero;stroke:none"
           id="path416" /><path
           d="m 228.599,70.046 h -4.168 v 0.546 h 4.168 z"
           style="fill:#00657f;fill-opacity:1;fill-rule:nonzero;stroke:none"
           id="path418" /><path
           d="m 226.943,68.553 h -2.513 v 0.546 h 2.513 z"
           style="fill:#00657f;fill-opacity:1;fill-rule:nonzero;stroke:none"
           id="path420" /><path
           d="m 226.943,67.06 h -2.513 v 0.546 h 2.513 z"
           style="fill:#00657f;fill-opacity:1;fill-rule:nonzero;stroke:none"
           id="path422" /><path
           d="m 226.943,65.567 h -2.513 v 0.546 h 2.513 z"
           style="fill:#00657f;fill-opacity:1;fill-rule:nonzero;stroke:none"
           id="path424" /><path
           d="m 226.943,64.074 h -2.513 v 0.546 h 2.513 z"
           style="fill:#00657f;fill-opacity:1;fill-rule:nonzero;stroke:none"
           id="path426" /><path
           d="m 281.202,58.325 h -73.18 v 10.228 h 73.18 z"
           style="fill:#0054ae;fill-opacity:1;fill-rule:nonzero;stroke:none"
           id="path428" /><path
           d="m 266.632,58.325 h -58.61 v 10.228 h 58.61 z"
           style="fill:#0079ca;fill-opacity:1;fill-rule:nonzero;stroke:none"
           id="path430" /><g
           id="g432"
           transform="translate(688.4678,58.3252)"><path
             d="m 0,0 h -617.879 c -4.555,0 -8.246,-3.692 -8.246,-8.246 0,-4.554 3.691,-8.246 8.246,-8.246 H 0 c 4.555,0 8.246,3.692 8.246,8.246 C 8.246,-3.692 4.555,0 0,0"
             style="fill:#511e1a;fill-opacity:1;fill-rule:nonzero;stroke:none"
             id="path434" /></g><path
           d="m 232.538,241.123 h -86.227 v 117.928 h 86.227 z"
           style="fill:#ffb2cb;fill-opacity:1;fill-rule:nonzero;stroke:none"
           id="path436" /><path
           d="m 227.446,248.087 h -76.043 v 104 h 76.043 z"
           style="fill:#ffffff;fill-opacity:1;fill-rule:nonzero;stroke:none"
           id="path438" /><g
           id="g440"
           transform="translate(202.0962,356.7388)"><path
             d="m 0,0 c -1.831,0.274 -2.982,2.12 -2.426,3.885 0.613,1.942 -0.837,3.919 -2.872,3.919 h -7.373 -7.373 c -2.036,0 -3.485,-1.977 -2.873,-3.919 C -22.36,2.12 -23.512,0.274 -25.343,0 l -5.698,-0.854 v -5.904 h 18.37 18.369 v 5.904 z"
             style="fill:#fe4b34;fill-opacity:1;fill-rule:nonzero;stroke:none"
             id="path442" /></g><path
           d="m 177.986,322.089 h -17.941 v 17.941 h 17.941 z"
           style="fill:#00dfcb;fill-opacity:1;fill-rule:nonzero;stroke:none"
           id="path444" /><g
           id="g446"
           transform="translate(161.582,334.4663)"><path
             d="M 0,0 H 2.363 L 7.434,-5.789 15.477,4.253 7.434,-8.034 Z"
             style="fill:#ffffff;fill-opacity:1;fill-rule:nonzero;stroke:none"
             id="path448" /></g><path
           d="m 218.805,336.983 h -37.687 v 0.653 h 37.687 z"
           style="fill:#000942;fill-opacity:1;fill-rule:nonzero;stroke:none"
           id="path450" /><g
           id="g452"
           transform="translate(181.1182,330.7329)"><path
             d="M 0,0 V 0.653 H 37.687 V 0"
             style="fill:#000942;fill-opacity:1;fill-rule:nonzero;stroke:none"
             id="path454" /></g><path
           d="m 218.805,324.483 h -37.687 v 0.653 h 37.687 z"
           style="fill:#000942;fill-opacity:1;fill-rule:nonzero;stroke:none"
           id="path456" /><path
           d="m 177.986,299.961 h -17.941 v 17.941 h 17.941 z"
           style="fill:#00dfcb;fill-opacity:1;fill-rule:nonzero;stroke:none"
           id="path458" /><g
           id="g460"
           transform="translate(161.582,312.3389)"><path
             d="M 0,0 H 2.363 L 7.434,-5.79 15.477,4.253 7.434,-8.034 Z"
             style="fill:#ffffff;fill-opacity:1;fill-rule:nonzero;stroke:none"
             id="path462" /></g><path
           d="m 218.805,314.855 h -37.687 v 0.653 h 37.687 z"
           style="fill:#000942;fill-opacity:1;fill-rule:nonzero;stroke:none"
           id="path464" /><g
           id="g466"
           transform="translate(218.8047,309.2583)"><path
             d="M 0,0 V -0.653 H -37.687 V 0"
             style="fill:#000942;fill-opacity:1;fill-rule:nonzero;stroke:none"
             id="path468" /></g><path
           d="m 218.805,302.355 h -37.687 v 0.653 h 37.687 z"
           style="fill:#000942;fill-opacity:1;fill-rule:nonzero;stroke:none"
           id="path470" /><path
           d="m 177.986,277.833 h -17.941 v 17.941 h 17.941 z"
           style="fill:#00dfcb;fill-opacity:1;fill-rule:nonzero;stroke:none"
           id="path472" /><g
           id="g474"
           transform="translate(161.582,290.2109)"><path
             d="M 0,0 H 2.363 L 7.434,-5.79 15.477,4.253 7.434,-8.034 Z"
             style="fill:#ffffff;fill-opacity:1;fill-rule:nonzero;stroke:none"
             id="path476" /></g><path
           d="m 218.805,292.728 h -37.687 v 0.653 h 37.687 z"
           style="fill:#000942;fill-opacity:1;fill-rule:nonzero;stroke:none"
           id="path478" /><g
           id="g480"
           transform="translate(218.8047,287.1304)"><path
             d="M 0,0 V -0.653 H -37.687 V 0"
             style="fill:#000942;fill-opacity:1;fill-rule:nonzero;stroke:none"
             id="path482" /></g><path
           d="m 218.805,280.227 h -37.687 v 0.653 h 37.687 z"
           style="fill:#000942;fill-opacity:1;fill-rule:nonzero;stroke:none"
           id="path484" /><path
           d="m 177.986,255.705 h -17.941 v 17.941 h 17.941 z"
           style="fill:#00dfcb;fill-opacity:1;fill-rule:nonzero;stroke:none"
           id="path486" /><g
           id="g488"
           transform="translate(161.582,268.083)"><path
             d="M 0,0 H 2.363 L 7.434,-5.79 15.477,4.253 7.434,-8.034 Z"
             style="fill:#ffffff;fill-opacity:1;fill-rule:nonzero;stroke:none"
             id="path490" /></g><path
           d="m 218.805,270.6 h -37.687 v 0.653 h 37.687 z"
           style="fill:#000942;fill-opacity:1;fill-rule:nonzero;stroke:none"
           id="path492" /><g
           id="g494"
           transform="translate(218.8047,265.0024)"><path
             d="M 0,0 V -0.653 H -37.687 V 0"
             style="fill:#000942;fill-opacity:1;fill-rule:nonzero;stroke:none"
             id="path496" /></g><path
           d="m 218.805,258.099 h -37.687 v 0.653 h 37.687 z"
           style="fill:#000942;fill-opacity:1;fill-rule:nonzero;stroke:none"
           id="path498" /><g
           id="g500"
           transform="translate(602.8145,379.376)"><path
             d="m 0,0 v 0 c -4.615,9.407 -16.701,12.208 -24.984,5.792 l -1.837,-1.423 -1.837,1.423 C -36.941,12.208 -49.027,9.407 -53.643,0 c -2.813,-5.735 -2.074,-12.577 1.9,-17.579 l 24.922,-21.613 24.922,21.613 C 2.074,-12.577 2.813,-5.735 0,0"
             style="fill:#fe4b34;fill-opacity:1;fill-rule:nonzero;stroke:none"
             id="path502" /></g><g
           id="g504"
           transform="translate(584.7861,351.2808)"><path
             d="m 0,0 h -0.001 c -0.364,0 -0.683,0.249 -0.77,0.603 L -7.107,25.822 -14.856,4.488 c -0.122,-0.338 -0.458,-0.547 -0.811,-0.523 -0.356,0.029 -0.651,0.292 -0.719,0.644 l -3.209,16.683 -3.445,-8.463 c -0.122,-0.3 -0.414,-0.496 -0.737,-0.496 h -25.017 c -0.44,0 -0.796,0.357 -0.796,0.796 0,0.44 0.356,0.796 0.796,0.796 h 24.481 l 4.256,10.454 c 0.132,0.326 0.456,0.529 0.816,0.492 0.35,-0.035 0.637,-0.296 0.704,-0.642 l 3.17,-16.485 7.651,21.065 c 0.119,0.328 0.445,0.542 0.788,0.523 0.35,-0.018 0.647,-0.262 0.732,-0.601 L 0.002,4.054 4.677,22.54 c 0.09,0.352 0.404,0.598 0.766,0.601 h 0.006 c 0.361,0 0.676,-0.242 0.769,-0.589 l 2.318,-8.627 h 22.672 c 0.44,0 0.797,-0.356 0.797,-0.796 0,-0.439 -0.357,-0.796 -0.797,-0.796 H 7.926 c -0.36,0 -0.675,0.242 -0.769,0.589 L 5.473,19.19 0.772,0.601 C 0.683,0.248 0.364,0 0,0"
             style="fill:#ffffff;fill-opacity:1;fill-rule:nonzero;stroke:none"
             id="path506" /></g><g
           id="g508"
           transform="translate(634.3613,276.627)"><path
             d="m 0,0 c 0,-14.549 -11.795,-26.344 -26.344,-26.344 -14.55,0 -26.344,11.795 -26.344,26.344 0,14.55 11.794,26.344 26.344,26.344 C -11.795,26.344 0,14.55 0,0"
             style="fill:#00dfcb;fill-opacity:1;fill-rule:nonzero;stroke:none"
             id="path510" /></g><path
           d="m 616.791,258.853 h -16.928 v 35.548 h 16.928 z"
           style="fill:#ffffff;fill-opacity:1;fill-rule:nonzero;stroke:none"
           id="path512" /><path
           d="m 590.553,285.091 h 35.549 v -16.927 h -35.549 z"
           style="fill:#ffffff;fill-opacity:1;fill-rule:nonzero;stroke:none"
           id="path514" /><g
           id="g516"
           transform="translate(295.5742,398.6909)"><path
             d="m 0,0 c 0,-17.01 -13.79,-30.799 -30.799,-30.799 -17.011,0 -30.8,13.789 -30.8,30.799 0,17.01 13.789,30.799 30.8,30.799 C -13.79,30.799 0,17.01 0,0"
             style="fill:#00dfcb;fill-opacity:1;fill-rule:nonzero;stroke:none"
             id="path518" /></g><g
           id="g520"
           transform="translate(257.9316,423.5708)"><path
             d="M 0,0 C -4.733,0 -8.571,-3.837 -8.571,-8.571 V -20.828 H 8.571 V -8.571 C 8.571,-3.837 4.734,0 0,0"
             style="fill:#fe4b34;fill-opacity:1;fill-rule:nonzero;stroke:none"
             id="path522" /></g><g
           id="g524"
           transform="translate(257.9316,381.9155)"><path
             d="M 0,0 C -4.733,0 -8.571,3.837 -8.571,8.571 V 20.828 H 8.571 V 8.571 C 8.571,3.837 4.734,0 0,0"
             style="fill:#ffffff;fill-opacity:1;fill-rule:nonzero;stroke:none"
             id="path526" /></g><g
           id="g528"
           transform="translate(283.771,405.2729)"><path
             d="m 0,0 c -3.275,3.418 -8.701,3.533 -12.119,0.258 l -8.849,-8.481 11.861,-12.376 8.849,8.481 C 3.16,-8.843 3.275,-3.417 0,0"
             style="fill:#fe4b34;fill-opacity:1;fill-rule:nonzero;stroke:none"
             id="path530" /></g><g
           id="g532"
           transform="translate(253.6963,376.4517)"><path
             d="M 0,0 C -3.275,3.417 -3.16,8.843 0.258,12.118 L 9.107,20.599 20.967,8.223 12.118,-0.258 C 8.701,-3.533 3.275,-3.417 0,0"
             style="fill:#ffffff;fill-opacity:1;fill-rule:nonzero;stroke:none"
             id="path534" /></g><g
           id="g536"
           transform="translate(449.2705,322.6099)"><path
             d="m 0,0 c 0,-16.56 -13.425,-29.984 -29.984,-29.984 -16.561,0 -29.985,13.424 -29.985,29.984 0,16.56 13.424,29.984 29.985,29.984 C -13.425,29.984 0,16.56 0,0"
             style="fill:#ffb2cb;fill-opacity:1;fill-rule:nonzero;stroke:none"
             id="path538" /></g><g
           id="g540"
           transform="translate(432.8105,335.7456)"><path
             d="m 0,0 -0.39,0.389 21.128,21.127 0.389,-0.389 z"
             style="fill:#00dfcb;fill-opacity:1;fill-rule:nonzero;stroke:none"
             id="path542" /></g><g
           id="g544"
           transform="translate(398.6338,287.9585)"><path
             d="m 0,0 -14,14 3.564,3.563 14,-14 z"
             style="fill:#ffffff;fill-opacity:1;fill-rule:nonzero;stroke:none"
             id="path546" /></g><g
           id="g548"
           transform="translate(397.2363,296.4839)"><path
             d="m 0,0 -4.076,4.076 39.709,39.709 4.075,-4.076 z"
             style="fill:#b6abbb;fill-opacity:1;fill-rule:nonzero;stroke:none"
             id="path550" /></g><g
           id="g552"
           transform="translate(409.1982,303.8672)"><path
             d="m 0,0 -8.655,8.655 26.727,26.727 8.655,-8.654 z"
             style="fill:#ffffff;fill-opacity:1;fill-rule:nonzero;stroke:none"
             id="path554" /></g><g
           id="g556"
           transform="translate(409.1982,303.8672)"><path
             d="M 0,0 -8.655,8.655 -7.444,9.865 1.21,1.21 Z"
             style="fill:#b6abbb;fill-opacity:1;fill-rule:nonzero;stroke:none"
             id="path558" /></g><g
           id="g560"
           transform="translate(408.3066,297.6309)"><path
             d="m 0,0 -14,14 3.563,3.563 14,-13.999 z"
             style="fill:#ffffff;fill-opacity:1;fill-rule:nonzero;stroke:none"
             id="path562" /></g><g
           id="g564"
           transform="translate(429.915,332.5381)"><path
             d="M 0,0 -3.351,3.351 -2.912,3.79 0.438,0.439 Z"
             style="fill:#00657f;fill-opacity:1;fill-rule:nonzero;stroke:none"
             id="path566" /></g><g
           id="g568"
           transform="translate(427.3848,332.6689)"><path
             d="m 0,0 -2.02,2.02 0.439,0.438 2.019,-2.02 z"
             style="fill:#00657f;fill-opacity:1;fill-rule:nonzero;stroke:none"
             id="path570" /></g><g
           id="g572"
           transform="translate(426.1846,331.4687)"><path
             d="m 0,0 -2.02,2.02 0.439,0.439 2.019,-2.02 z"
             style="fill:#00657f;fill-opacity:1;fill-rule:nonzero;stroke:none"
             id="path574" /></g><g
           id="g576"
           transform="translate(424.9854,330.2695)"><path
             d="m 0,0 -2.021,2.02 0.44,0.438 2.019,-2.02 z"
             style="fill:#00657f;fill-opacity:1;fill-rule:nonzero;stroke:none"
             id="path578" /></g><g
           id="g580"
           transform="translate(423.7852,329.0693)"><path
             d="M 0,0 -2.02,2.02 -1.581,2.458 0.438,0.439 Z"
             style="fill:#00657f;fill-opacity:1;fill-rule:nonzero;stroke:none"
             id="path582" /></g><g
           id="g584"
           transform="translate(423.8838,326.5063)"><path
             d="m 0,0 -3.351,3.351 0.439,0.438 3.35,-3.351 z"
             style="fill:#00657f;fill-opacity:1;fill-rule:nonzero;stroke:none"
             id="path586" /></g><g
           id="g588"
           transform="translate(421.3525,326.6367)"><path
             d="m 0,0 -2.02,2.02 0.439,0.439 2.019,-2.02 z"
             style="fill:#00657f;fill-opacity:1;fill-rule:nonzero;stroke:none"
             id="path590" /></g><g
           id="g592"
           transform="translate(420.1523,325.437)"><path
             d="m 0,0 -2.02,2.02 0.439,0.438 2.02,-2.02 z"
             style="fill:#00657f;fill-opacity:1;fill-rule:nonzero;stroke:none"
             id="path594" /></g><g
           id="g596"
           transform="translate(418.9531,324.2373)"><path
             d="m 0,0 -2.02,2.02 0.439,0.439 2.019,-2.02 z"
             style="fill:#00657f;fill-opacity:1;fill-rule:nonzero;stroke:none"
             id="path598" /></g><g
           id="g600"
           transform="translate(417.7529,323.0376)"><path
             d="m 0,0 -2.02,2.02 0.439,0.438 2.02,-2.02 z"
             style="fill:#00657f;fill-opacity:1;fill-rule:nonzero;stroke:none"
             id="path602" /></g><g
           id="g604"
           transform="translate(417.8516,320.4746)"><path
             d="m 0,0 -3.351,3.35 0.439,0.439 3.35,-3.351 z"
             style="fill:#00657f;fill-opacity:1;fill-rule:nonzero;stroke:none"
             id="path606" /></g><g
           id="g608"
           transform="translate(415.3213,320.605)"><path
             d="m 0,0 -2.021,2.02 0.439,0.438 2.02,-2.019 z"
             style="fill:#00657f;fill-opacity:1;fill-rule:nonzero;stroke:none"
             id="path610" /></g><g
           id="g612"
           transform="translate(414.1211,319.4053)"><path
             d="m 0,0 -2.021,2.02 0.44,0.438 2.019,-2.02 z"
             style="fill:#00657f;fill-opacity:1;fill-rule:nonzero;stroke:none"
             id="path614" /></g><g
           id="g616"
           transform="translate(412.9209,318.2056)"><path
             d="m 0,0 -2.02,2.02 0.439,0.438 2.02,-2.02 z"
             style="fill:#00657f;fill-opacity:1;fill-rule:nonzero;stroke:none"
             id="path618" /></g><g
           id="g620"
           transform="translate(411.7217,317.0054)"><path
             d="m 0,0 -2.021,2.02 0.44,0.439 2.019,-2.02 z"
             style="fill:#00657f;fill-opacity:1;fill-rule:nonzero;stroke:none"
             id="path622" /></g><g
           id="g624"
           transform="translate(411.8193,314.4424)"><path
             d="m 0,0 -3.351,3.351 0.439,0.438 3.35,-3.35 z"
             style="fill:#00657f;fill-opacity:1;fill-rule:nonzero;stroke:none"
             id="path626" /></g><g
           id="g628"
           transform="translate(409.2891,314.5732)"><path
             d="m 0,0 -2.021,2.02 0.44,0.438 2.019,-2.02 z"
             style="fill:#00657f;fill-opacity:1;fill-rule:nonzero;stroke:none"
             id="path630" /></g><g
           id="g632"
           transform="translate(408.0889,313.373)"><path
             d="M 0,0 -2.02,2.02 -1.581,2.458 0.438,0.439 Z"
             style="fill:#00657f;fill-opacity:1;fill-rule:nonzero;stroke:none"
             id="path634" /></g><g
           id="g636"
           transform="translate(406.8896,312.1738)"><path
             d="m 0,0 -2.021,2.02 0.44,0.438 2.019,-2.02 z"
             style="fill:#00657f;fill-opacity:1;fill-rule:nonzero;stroke:none"
             id="path638" /></g><g
           id="g640"
           transform="translate(405.6895,310.9736)"><path
             d="M 0,0 -2.02,2.02 -1.581,2.458 0.438,0.439 Z"
             style="fill:#00657f;fill-opacity:1;fill-rule:nonzero;stroke:none"
             id="path642" /></g></g></g></g></svg>
