<?xml version="1.0" encoding="UTF-8" standalone="no"?>
<!-- Created with Inkscape (http://www.inkscape.org/) -->

<svg
   version="1.1"
   id="svg2"
   xml:space="preserve"
   width="666.66669"
   height="666.66669"
   viewBox="0 0 666.66669 666.66669"
   sodipodi:docname="3763026.ai"
   xmlns:inkscape="http://www.inkscape.org/namespaces/inkscape"
   xmlns:sodipodi="http://sodipodi.sourceforge.net/DTD/sodipodi-0.dtd"
   xmlns="http://www.w3.org/2000/svg"
   xmlns:svg="http://www.w3.org/2000/svg"><defs
     id="defs6"><clipPath
       clipPathUnits="userSpaceOnUse"
       id="clipPath30"><path
         d="M 0,500 H 500 V 0 H 0 Z"
         id="path28" /></clipPath><clipPath
       clipPathUnits="userSpaceOnUse"
       id="clipPath106"><path
         d="M 0,500 H 500 V 0 H 0 Z"
         id="path104" /></clipPath><clipPath
       clipPathUnits="userSpaceOnUse"
       id="clipPath118"><path
         d="M 89.4384,410.415 H 339.835 V 170.079 H 89.4384 Z"
         id="path116" /></clipPath><clipPath
       clipPathUnits="userSpaceOnUse"
       id="clipPath134"><path
         d="M 0,500 H 500 V 0 H 0 Z"
         id="path132" /></clipPath><clipPath
       clipPathUnits="userSpaceOnUse"
       id="clipPath146"><path
         d="M 0,500 H 500 V 0 H 0 Z"
         id="path144" /></clipPath><clipPath
       clipPathUnits="userSpaceOnUse"
       id="clipPath166"><path
         d="M 0,500 H 500 V 0 H 0 Z"
         id="path164" /></clipPath><clipPath
       clipPathUnits="userSpaceOnUse"
       id="clipPath194"><path
         d="M 0,500 H 500 V 0 H 0 Z"
         id="path192" /></clipPath><clipPath
       clipPathUnits="userSpaceOnUse"
       id="clipPath222"><path
         d="M 181.018,378.756 H 326.561 V 134.804 H 181.018 Z"
         id="path220" /></clipPath><clipPath
       clipPathUnits="userSpaceOnUse"
       id="clipPath238"><path
         d="m 231.972,378.756 h 74.967 V 134.804 h -74.967 z"
         id="path236" /></clipPath><clipPath
       clipPathUnits="userSpaceOnUse"
       id="clipPath254"><path
         d="m 210.135,378.756 h 60.701 V 134.804 h -60.701 z"
         id="path252" /></clipPath><clipPath
       clipPathUnits="userSpaceOnUse"
       id="clipPath282"><path
         d="m 232.898,115.105 h 10.467 v -11.341 h -10.467 z"
         id="path280" /></clipPath><clipPath
       clipPathUnits="userSpaceOnUse"
       id="clipPath322"><path
         d="m 217.206,389.762 h 7.438 V 379.76 h -7.438 z"
         id="path320" /></clipPath><clipPath
       clipPathUnits="userSpaceOnUse"
       id="clipPath382"><path
         d="m 207.965,402.819 h 5.808 v -2.322 h -5.808 z"
         id="path380" /></clipPath><clipPath
       clipPathUnits="userSpaceOnUse"
       id="clipPath398"><path
         d="m 217.422,401.759 h 5.782 v -2.508 h -5.782 z"
         id="path396" /></clipPath><clipPath
       clipPathUnits="userSpaceOnUse"
       id="clipPath438"><path
         d="m 147.512,363.554 h 60.481 v -46.742 h -60.481 z"
         id="path436" /></clipPath><clipPath
       clipPathUnits="userSpaceOnUse"
       id="clipPath458"><path
         d="m 193.357,374.035 h 68.791 V 228.704 h -68.791 z"
         id="path456" /></clipPath><clipPath
       clipPathUnits="userSpaceOnUse"
       id="clipPath494"><path
         d="m 222.645,369.623 h 42.349 v -62.922 h -42.349 z"
         id="path492" /></clipPath><clipPath
       clipPathUnits="userSpaceOnUse"
       id="clipPath538"><path
         d="M 0,500 H 500 V 0 H 0 Z"
         id="path536" /></clipPath><clipPath
       clipPathUnits="userSpaceOnUse"
       id="clipPath566"><path
         d="M 270.091,313.621 H 371.325 V 267.17 H 270.091 Z"
         id="path564" /></clipPath><clipPath
       clipPathUnits="userSpaceOnUse"
       id="clipPath582"><path
         d="m 289.062,300.014 h 65.36 v -2.375 h -65.36 z"
         id="path580" /></clipPath><clipPath
       clipPathUnits="userSpaceOnUse"
       id="clipPath596"><path
         d="m 288.494,291.598 h 25.827 v -2.375 h -25.827 z"
         id="path594" /></clipPath><clipPath
       clipPathUnits="userSpaceOnUse"
       id="clipPath610"><path
         d="m 320.655,291.598 h 16.495 v -2.375 h -16.495 z"
         id="path608" /></clipPath></defs><sodipodi:namedview
     id="namedview4"
     pagecolor="#ffffff"
     bordercolor="#666666"
     borderopacity="1.0"
     inkscape:pageshadow="2"
     inkscape:pageopacity="0.0"
     inkscape:pagecheckerboard="0" /><g
     id="g8"
     inkscape:groupmode="layer"
     inkscape:label="3763026"
     transform="matrix(1.3333333,0,0,-1.3333333,0,666.66667)"><path
       d="m 0,117.352 h 500 v 0.249 H 0 Z"
       style="fill:#ececec;fill-opacity:1;fill-rule:nonzero;stroke:none"
       id="path10" /><path
       d="m 416.779,101.256 h 33.122 v 0.249 h -33.122 z"
       style="fill:#ececec;fill-opacity:1;fill-rule:nonzero;stroke:none"
       id="path12" /><path
       d="m 322.527,98.542 h 8.693 v 0.25 h -8.693 z"
       style="fill:#ececec;fill-opacity:1;fill-rule:nonzero;stroke:none"
       id="path14" /><path
       d="m 368.111,110.542 h 47.668 v 0.25 h -47.668 z"
       style="fill:#ececec;fill-opacity:1;fill-rule:nonzero;stroke:none"
       id="path16" /><path
       d="m 52.459,108.861 h 23.679 v 0.25 H 52.459 Z"
       style="fill:#ececec;fill-opacity:1;fill-rule:nonzero;stroke:none"
       id="path18" /><path
       d="m 85.042,108.861 h 25.847 v 0.25 H 85.042 Z"
       style="fill:#ececec;fill-opacity:1;fill-rule:nonzero;stroke:none"
       id="path20" /><path
       d="m 131.471,104.639 h 64.64 v 0.25 h -64.64 z"
       style="fill:#ececec;fill-opacity:1;fill-rule:nonzero;stroke:none"
       id="path22" /><g
       id="g24"><g
         id="g26"
         clip-path="url(#clipPath30)"><g
           id="g32"
           transform="translate(43.915,444.7979)"><path
             d="M 0,0 C -3.01,0 -5.458,-2.449 -5.458,-5.458 V -276.89 c 0,-3.009 2.448,-5.458 5.458,-5.458 h 193.099 c 3.008,0 5.457,2.449 5.457,5.458 V -5.458 c 0,3.009 -2.449,5.458 -5.457,5.458 z M 193.099,-282.598 H 0 c -3.147,0 -5.708,2.561 -5.708,5.708 V -5.458 c 0,3.146 2.561,5.708 5.708,5.708 h 193.099 c 3.146,0 5.707,-2.562 5.707,-5.708 V -276.89 c 0,-3.147 -2.561,-5.708 -5.707,-5.708"
             style="fill:#ececec;fill-opacity:1;fill-rule:nonzero;stroke:none"
             id="path34" /></g><g
           id="g36"
           transform="translate(260.2119,444.7979)"><path
             d="M 0,0 C -3.009,0 -5.457,-2.449 -5.457,-5.458 V -276.89 c 0,-3.009 2.448,-5.458 5.457,-5.458 h 193.099 c 3.009,0 5.458,2.449 5.458,5.458 V -5.458 c 0,3.009 -2.449,5.458 -5.458,5.458 z M 193.099,-282.598 H 0 c -3.146,0 -5.707,2.561 -5.707,5.708 V -5.458 c 0,3.146 2.561,5.708 5.707,5.708 h 193.099 c 3.147,0 5.708,-2.562 5.708,-5.708 V -276.89 c 0,-3.147 -2.561,-5.708 -5.708,-5.708"
             style="fill:#ececec;fill-opacity:1;fill-rule:nonzero;stroke:none"
             id="path38" /></g><path
           d="M 283.444,419 H 441.416 V 117.602 H 283.444 Z"
           style="fill:#ececec;fill-opacity:1;fill-rule:nonzero;stroke:none"
           id="path40" /><path
           d="M 295.194,409.171 H 429.666 V 117.602 H 295.194 Z"
           style="fill:#f5f5f5;fill-opacity:1;fill-rule:nonzero;stroke:none"
           id="path42" /><path
           d="m 343.528,384.987 h 37.805 v -10.455 h -37.805 z"
           style="fill:#ffffff;fill-opacity:1;fill-rule:nonzero;stroke:none"
           id="path44" /><g
           id="g46"
           transform="translate(398.3711,281.1836)"><path
             d="m 0,0 h 20.51 c 1.77,0 3.204,-1.434 3.204,-3.203 0,-1.769 -1.434,-3.203 -3.204,-3.203 H 0 c -1.769,0 -3.203,1.434 -3.203,3.203 C -3.203,-1.434 -1.769,0 0,0"
             style="fill:#ffffff;fill-opacity:1;fill-rule:nonzero;stroke:none"
             id="path48" /></g><path
           d="M 175.437,302.257 H 70.381 v 84.67 h 105.056 z"
           style="fill:#ececec;fill-opacity:1;fill-rule:nonzero;stroke:none"
           id="path50" /><path
           d="m 76.013,381.289 h 93.783 V 307.896 H 76.013 Z"
           style="fill:#fafafa;fill-opacity:1;fill-rule:nonzero;stroke:none"
           id="path52" /><path
           d="m 86.951,347.138 h 71.908 v -3.506 H 86.951 Z"
           style="fill:#e1e1e1;fill-opacity:1;fill-rule:nonzero;stroke:none"
           id="path54" /><path
           d="m 86.951,339.151 h 71.908 v -3.506 H 86.951 Z"
           style="fill:#e1e1e1;fill-opacity:1;fill-rule:nonzero;stroke:none"
           id="path56" /><path
           d="m 86.951,331.164 h 71.908 v -3.506 H 86.951 Z"
           style="fill:#e1e1e1;fill-opacity:1;fill-rule:nonzero;stroke:none"
           id="path58" /><path
           d="m 104.98,323.178 h 35.85 v -3.506 h -35.85 z"
           style="fill:#e1e1e1;fill-opacity:1;fill-rule:nonzero;stroke:none"
           id="path60" /><g
           id="g62"
           transform="translate(86.9468,381.291)"><path
             d="m 0,0 c 0,-6.04 -4.891,-10.932 -10.931,-10.932 -2.063,0 -3.99,0.576 -5.635,1.568 v 15 H -1.555 C -0.563,3.99 0,2.063 0,0"
             style="fill:#ececec;fill-opacity:1;fill-rule:nonzero;stroke:none"
             id="path64" /></g><g
           id="g66"
           transform="translate(175.4365,386.9268)"><path
             d="m 0,0 v -15 c -1.645,-0.992 -3.572,-1.567 -5.635,-1.567 -6.04,0 -10.943,4.891 -10.943,10.931 0,2.063 0.575,3.99 1.567,5.636 z"
             style="fill:#ececec;fill-opacity:1;fill-rule:nonzero;stroke:none"
             id="path68" /></g><g
           id="g70"
           transform="translate(86.9468,307.8926)"><path
             d="M 0,0 C 0,-2.063 -0.563,-3.99 -1.555,-5.636 H -16.566 V 9.376 c 1.645,0.991 3.572,1.566 5.635,1.566 C -4.891,10.942 0,6.04 0,0"
             style="fill:#ececec;fill-opacity:1;fill-rule:nonzero;stroke:none"
             id="path72" /></g><g
           id="g74"
           transform="translate(175.4365,317.2686)"><path
             d="m 0,0 v -15.012 h -15.011 c -0.992,1.646 -1.567,3.574 -1.567,5.636 0,6.04 4.903,10.942 10.943,10.942 C -3.572,1.566 -1.645,0.991 0,0"
             style="fill:#ececec;fill-opacity:1;fill-rule:nonzero;stroke:none"
             id="path76" /></g><g
           id="g78"
           transform="translate(132.2214,363.416)"><path
             d="m 0,0 c 0,-5.143 -4.169,-9.313 -9.313,-9.313 -5.143,0 -9.313,4.17 -9.313,9.313 0,5.144 4.17,9.313 9.313,9.313 C -4.169,9.313 0,5.144 0,0"
             style="fill:#e1e1e1;fill-opacity:1;fill-rule:nonzero;stroke:none"
             id="path80" /></g><path
           d="M 260.34,230.367 H 52.459 v 7.479 H 260.34 Z"
           style="fill:#ececec;fill-opacity:1;fill-rule:nonzero;stroke:none"
           id="path82" /><path
           d="M 258.537,230.367 H 191 V 117.601 h 67.537 z"
           style="fill:#f5f5f5;fill-opacity:1;fill-rule:nonzero;stroke:none"
           id="path84" /><path
           d="M 122.565,230.367 H 55.028 V 117.601 h 67.537 z"
           style="fill:#f5f5f5;fill-opacity:1;fill-rule:nonzero;stroke:none"
           id="path86" /><path
           d="M 57.333,230.367 H 55.027 V 117.601 h 2.306 z"
           style="fill:#ececec;fill-opacity:1;fill-rule:nonzero;stroke:none"
           id="path88" /><path
           d="M 193.306,230.367 H 191 V 117.601 h 2.306 z"
           style="fill:#ececec;fill-opacity:1;fill-rule:nonzero;stroke:none"
           id="path90" /><g
           id="g92"
           transform="translate(90.5,255.876)"><path
             d="m 0,0 h -12.417 l 0.996,-18.03 h 10.425 z"
             style="fill:#f0f0f0;fill-opacity:1;fill-rule:nonzero;stroke:none"
             id="path94" /></g><path
           d="m 198.333,245.667 h -64.889 v -7.821 h 64.889 z"
           style="fill:#f0f0f0;fill-opacity:1;fill-rule:nonzero;stroke:none"
           id="path96" /><path
           d="m 198.333,244.75 h -29.917 v -5.987 h 29.917 z"
           style="fill:#fafafa;fill-opacity:1;fill-rule:nonzero;stroke:none"
           id="path98" /></g></g><g
       id="g100"><g
         id="g102"
         clip-path="url(#clipPath106)"><g
           id="g108"
           transform="translate(253.7544,319.3594)"><path
             d="m 0,0 c -28.198,40.816 -68.428,129.055 -133.075,72.878 -64.174,-55.765 -16.05,-154.592 24.787,-187.956 41.282,-33.73 174.234,-64.24 192.757,20.873 C 97.214,-35.644 31.147,-45.085 0,0"
             style="fill:#007cff;fill-opacity:1;fill-rule:nonzero;stroke:none"
             id="path110" /></g><g
           id="g112"><g
             id="g114" /><g
             id="g126"><g
               clip-path="url(#clipPath118)"
               opacity="0.899994"
               id="g124"><g
                 transform="translate(253.7544,319.3594)"
                 id="g122"><path
                   d="m 0,0 c -28.198,40.816 -68.428,129.055 -133.075,72.878 -64.174,-55.765 -16.05,-154.592 24.787,-187.956 41.282,-33.73 174.234,-64.24 192.757,20.873 C 97.214,-35.644 31.147,-45.085 0,0"
                   style="fill:#ffffff;fill-opacity:1;fill-rule:nonzero;stroke:none"
                   id="path120" /></g></g></g></g></g></g><g
       id="g128"><g
         id="g130"
         clip-path="url(#clipPath134)"><g
           id="g136"
           transform="translate(443.8894,83.7617)"><path
             d="m 0,0 c 0,-6.254 -86.807,-11.323 -193.889,-11.323 -107.082,0 -193.889,5.069 -193.889,11.323 0,6.254 86.807,11.323 193.889,11.323 C -86.807,11.323 0,6.254 0,0"
             style="fill:#f5f5f5;fill-opacity:1;fill-rule:nonzero;stroke:none"
             id="path138" /></g></g></g><g
       id="g140"><g
         id="g142"
         clip-path="url(#clipPath146)"><g
           id="g148"
           transform="translate(372.3831,185.457)"><path
             d="m 0,0 c 0,-17.495 -14.182,-31.678 -31.677,-31.678 -17.495,0 -31.677,14.183 -31.677,31.678 0,17.495 14.182,31.677 31.677,31.677 C -14.182,31.677 0,17.495 0,0"
             style="fill:#ffffff;fill-opacity:1;fill-rule:nonzero;stroke:none"
             id="path150" /></g><g
           id="g152"
           transform="translate(340.7061,216.7441)"><path
             d="m 0,0 c -17.252,0 -31.288,-14.035 -31.288,-31.287 0,-17.252 14.036,-31.288 31.288,-31.288 17.252,0 31.288,14.036 31.288,31.288 C 31.288,-14.035 17.252,0 0,0 m 0,-63.354 c -17.682,0 -32.067,14.385 -32.067,32.067 0,17.682 14.385,32.066 32.067,32.066 17.682,0 32.067,-14.384 32.067,-32.066 0,-17.682 -14.385,-32.067 -32.067,-32.067"
             style="fill:#007cff;fill-opacity:1;fill-rule:nonzero;stroke:none"
             id="path154" /></g><path
           d="m 345.804,167.497 h -10.197 v 35.919 h 10.197 z"
           style="fill:#007cff;fill-opacity:1;fill-rule:nonzero;stroke:none"
           id="path156" /><path
           d="m 322.746,190.556 h 35.919 v -10.197 h -35.919 z"
           style="fill:#007cff;fill-opacity:1;fill-rule:nonzero;stroke:none"
           id="path158" /></g></g><g
       id="g160"><g
         id="g162"
         clip-path="url(#clipPath166)"><g
           id="g168"
           transform="translate(126.1128,424.9297)"><path
             d="m 0,0 -0.686,0.729 c 4.679,4.401 10.491,7.202 16.81,8.1 l 0.141,-0.99 C 10.151,6.971 4.527,4.26 0,0"
             style="fill:#007cff;fill-opacity:1;fill-rule:nonzero;stroke:none"
             id="path170" /></g><g
           id="g172"
           transform="translate(118.7148,413.998)"><path
             d="M 0,0 -0.932,0.363 C 0.06,2.899 1.388,5.3 3.016,7.501 L 3.819,6.905 C 2.244,4.776 0.959,2.453 0,0"
             style="fill:#007cff;fill-opacity:1;fill-rule:nonzero;stroke:none"
             id="path174" /></g><g
           id="g176"
           transform="translate(174.0479,403.1309)"><path
             d="m 0,0 c 0,-15.153 -12.284,-27.437 -27.437,-27.437 -15.153,0 -27.437,12.284 -27.437,27.437 0,15.152 12.284,27.437 27.437,27.437 C -12.284,27.437 0,15.152 0,0"
             style="fill:#007cff;fill-opacity:1;fill-rule:nonzero;stroke:none"
             id="path178" /></g><g
           id="g180"
           transform="translate(162.9666,415.4902)"><path
             d="M 0,0 C -4.461,4.628 -11.83,4.679 -16.356,0.153 -20.881,4.679 -28.25,4.628 -32.711,0 c -4.379,-4.542 -4.043,-11.859 0.419,-16.32 l 12.969,-12.97 c 1.639,-1.639 4.296,-1.639 5.934,0 l 12.97,12.97 C 4.042,-11.859 4.379,-4.542 0,0"
             style="fill:#ffffff;fill-opacity:1;fill-rule:nonzero;stroke:none"
             id="path182" /></g><g
           id="g184"
           transform="translate(146.6108,391.1377)"><path
             d="M 0,0 C -0.012,0 -0.024,0 -0.036,0.001 -0.45,0.016 -0.812,0.284 -0.946,0.677 L -6.738,17.605 -9.16,10.524 C -9.299,10.119 -9.679,9.848 -10.106,9.848 h -9.692 c -0.553,0 -1,0.447 -1,1 0,0.552 0.447,1 1,1 h 8.977 l 3.137,9.171 c 0.139,0.405 0.518,0.676 0.946,0.676 0.428,0 0.808,-0.271 0.946,-0.676 L 0.101,3.796 5.817,17.264 c 0.149,0.351 0.486,0.587 0.867,0.607 0.384,0.026 0.74,-0.177 0.927,-0.51 l 3.082,-5.513 h 9.105 c 0.553,0 1,-0.448 1,-1 0,-0.553 -0.447,-1 -1,-1 h -9.692 c -0.362,0 -0.696,0.196 -0.873,0.511 L 6.861,14.604 0.92,0.609 C 0.763,0.239 0.4,0 0,0"
             style="fill:#007cff;fill-opacity:1;fill-rule:nonzero;stroke:none"
             id="path186" /></g></g></g><g
       id="g188"><g
         id="g190"
         clip-path="url(#clipPath194)"><g
           id="g196"
           transform="translate(298.8645,118.7988)"><path
             d="m 0,0 h -104.372 c -7.29,0 -12.851,5.965 -12.359,13.255 l 16.881,249.903 c 0.493,7.29 6.86,13.255 14.15,13.255 H 18.672 c 7.29,0 12.851,-5.965 12.359,-13.255 L 14.15,13.255 C 13.657,5.965 7.29,0 0,0"
             style="fill:#1a2e35;fill-opacity:1;fill-rule:nonzero;stroke:none"
             id="path198" /></g><g
           id="g200"
           transform="translate(321.9531,293.4395)"><path
             d="m 0,0 h -2.633 c -2.035,0 -3.588,1.665 -3.451,3.7 l 3.228,47.785 c 0.137,2.036 1.915,3.702 3.951,3.702 h 2.633 c 2.035,0 3.588,-1.666 3.45,-3.702 L 3.951,3.7 C 3.813,1.665 2.035,0 0,0"
             style="fill:#1a2e35;fill-opacity:1;fill-rule:nonzero;stroke:none"
             id="path202" /></g><g
           id="g204"
           transform="translate(197.4834,325.3164)"><path
             d="M 0,0 H -2.628 C -4.292,0 -5.562,1.361 -5.45,3.026 l 1.166,17.257 c 0.112,1.664 1.566,3.027 3.231,3.027 h 2.627 c 1.665,0 2.935,-1.363 2.822,-3.027 L 3.231,3.026 C 3.118,1.361 1.665,0 0,0"
             style="fill:#007cff;fill-opacity:1;fill-rule:nonzero;stroke:none"
             id="path206" /></g><g
           id="g208"
           transform="translate(195.4016,294.4971)"><path
             d="M 0,0 H -2.628 C -4.293,0 -5.562,1.362 -5.45,3.026 l 1.166,17.257 c 0.112,1.665 1.566,3.027 3.231,3.027 h 2.627 c 1.665,0 2.935,-1.362 2.822,-3.027 L 3.231,3.026 C 3.118,1.362 1.665,0 0,0"
             style="fill:#007cff;fill-opacity:1;fill-rule:nonzero;stroke:none"
             id="path210" /></g><g
           id="g212"
           transform="translate(296.6548,118.7988)"><path
             d="m 0,0 h -104.372 c -7.29,0 -12.851,5.965 -12.359,13.255 l 16.881,249.903 c 0.493,7.29 6.86,13.255 14.15,13.255 H 18.672 c 7.29,0 12.851,-5.965 12.359,-13.255 L 14.15,13.255 C 13.657,5.965 7.29,0 0,0"
             style="fill:#007cff;fill-opacity:1;fill-rule:nonzero;stroke:none"
             id="path214" /></g><g
           id="g216"><g
             id="g218" /><g
             id="g230"><g
               clip-path="url(#clipPath222)"
               opacity="0.300003"
               id="g228"><g
                 transform="translate(181.0183,134.8037)"
                 id="g226"><path
                   d="M 0,0 16.479,243.952 H 145.542 L 129.063,0 Z"
                   style="fill:#ffffff;fill-opacity:1;fill-rule:nonzero;stroke:none"
                   id="path224" /></g></g></g></g><g
           id="g232"><g
             id="g234" /><g
             id="g246"><g
               clip-path="url(#clipPath238)"
               opacity="0.100006"
               id="g244"><g
                 transform="translate(231.9719,134.8037)"
                 id="g242"><path
                   d="M 0,0 46.056,243.952 H 74.967 L 28.911,0 Z"
                   style="fill:#ffffff;fill-opacity:1;fill-rule:nonzero;stroke:none"
                   id="path240" /></g></g></g></g><g
           id="g248"><g
             id="g250" /><g
             id="g262"><g
               clip-path="url(#clipPath254)"
               opacity="0.100006"
               id="g260"><g
                 transform="translate(210.1355,134.8037)"
                 id="g258"><path
                   d="M 0,0 46.056,243.952 H 60.7 L 14.644,0 Z"
                   style="fill:#ffffff;fill-opacity:1;fill-rule:nonzero;stroke:none"
                   id="path256" /></g></g></g></g><g
           id="g264"
           transform="translate(250.1421,389.084)"><path
             d="m 0,0 h 25.168 c 0.899,0 1.585,-0.735 1.524,-1.635 -0.06,-0.898 -0.846,-1.634 -1.744,-1.634 H -0.221 c -0.899,0 -1.584,0.736 -1.524,1.634 C -1.684,-0.735 -0.899,0 0,0"
             style="fill:#ffffff;fill-opacity:1;fill-rule:nonzero;stroke:none"
             id="path266" /></g><g
           id="g268"
           transform="translate(244.9023,94.7539)"><path
             d="m 0,0 -8.825,-0.848 -3.182,20.357 8.825,0.847 z"
             style="fill:#ffb670;fill-opacity:1;fill-rule:nonzero;stroke:none"
             id="path270" /></g><g
           id="g272"
           transform="translate(235.073,98.2197)"><path
             d="m 0,0 9.233,2.875 c 0.346,0.107 0.688,-0.051 0.823,-0.38 l 3.017,-7.339 c 0.312,-0.76 -0.147,-1.718 -0.948,-1.952 -3.34,-0.977 -6.514,-1.237 -10.544,-2.966 -4.711,-2.02 -6.687,-4.677 -11.75,-4.677 -3.635,0 -4.45,3.327 -2.917,3.792 6.976,2.118 6.083,3.858 11.167,9.324 C -1.366,-0.729 -0.73,-0.228 0,0"
             style="fill:#1a2e35;fill-opacity:1;fill-rule:nonzero;stroke:none"
             id="path274" /></g><g
           id="g276"><g
             id="g278" /><g
             id="g290"><g
               clip-path="url(#clipPath282)"
               opacity="0.199997"
               id="g288"><g
                 transform="translate(232.8982,114.2568)"
                 id="g286"><path
                   d="M 0,0 1.638,-10.492 10.467,-9.645 8.829,0.849 Z"
                   style="fill:#000000;fill-opacity:1;fill-rule:nonzero;stroke:none"
                   id="path284" /></g></g></g></g><g
           id="g292"
           transform="translate(239.28,371.4043)"><path
             d="m 0,0 c -11.571,1.36 -23.08,0.444 -34.63,-1.795 -3.916,-0.76 -6.961,-3.986 -7.412,-7.964 -1.252,-11.058 -2.68,-35.848 2.898,-72.825 10e-4,-0.004 47.279,3.98 47.279,3.98 0.098,6.712 -4.677,37.279 -0.731,69.012 C 7.998,-4.814 4.716,-0.555 0,0"
             style="fill:#ffffff;fill-opacity:1;fill-rule:nonzero;stroke:none"
             id="path294" /></g><g
           id="g296"
           transform="translate(211.7456,361.9248)"><path
             d="m 0,0 1.695,-3.389 c 0.17,-0.34 0.509,-0.561 0.888,-0.58 l 1.828,-0.094 c 0.327,-0.017 0.65,0.081 0.913,0.277 l 3.154,2.347 -3.896,2.833 z"
             style="fill:#1a2e35;fill-opacity:1;fill-rule:nonzero;stroke:none"
             id="path298" /></g><g
           id="g300"
           transform="translate(216.2236,358.8252)"><path
             d="m 0,0 c -1.363,0.509 -2.134,0.173 -2.134,0.173 -1.491,-5.248 -3.125,-20.319 -3.288,-26.982 4.517,-13.162 5.995,-14.498 5.995,-14.498 l 2.295,15.848 C 2.868,-25.459 0.299,-9.263 0,0"
             style="fill:#1a2e35;fill-opacity:1;fill-rule:nonzero;stroke:none"
             id="path302" /></g><g
           id="g304"
           transform="translate(229.2705,394.2051)"><path
             d="m 0,0 c -1.079,-6.521 -1.996,-18.438 2.675,-22.649 -3.424,-3.596 -7.915,-7.765 -15.616,-8.236 -7.7,-0.47 -6.511,4.863 -4.559,7.711 7.187,1.916 6.841,7.278 5.43,12.285 z"
             style="fill:#ffb670;fill-opacity:1;fill-rule:nonzero;stroke:none"
             id="path306" /></g><g
           id="g308"
           transform="translate(233.9136,372.1309)"><path
             d="M 0,0 C -0.605,0.272 -1.259,0.451 -1.698,0.552 -1.99,0.622 -2.292,0.503 -2.441,0.243 -3.188,-1.021 -5.45,-6.648 -17.586,-8.813 c 1.993,-1.176 4.65,-4.842 5.796,-6.594 3.64,1.887 13.109,7.54 12.204,14.848 C 0.376,-0.318 0.228,-0.1 0,0"
             style="fill:#f5f5f5;fill-opacity:1;fill-rule:nonzero;stroke:none"
             id="path310" /></g><g
           id="g312"
           transform="translate(211.8384,370.7334)"><path
             d="M 0,0 C 0.1,0.499 -0.327,0.934 -0.82,0.84 -1.323,0.745 -1.821,0.584 -2.06,0.504 -2.157,0.473 -2.231,0.42 -2.315,0.356 c -0.929,-0.86 -5.999,-8.174 -1.255,-14.097 1.056,1.606 4.45,5.262 8.059,6.326 C 1.076,-5.869 -0.609,-3.005 0,0"
             style="fill:#f5f5f5;fill-opacity:1;fill-rule:nonzero;stroke:none"
             id="path314" /></g><g
           id="g316"><g
             id="g318" /><g
             id="g330"><g
               clip-path="url(#clipPath322)"
               opacity="0.199997"
               id="g328"><g
                 transform="translate(224.3499,389.7627)"
                 id="g326"><path
                   d="m 0,0 -7.144,-6.44 c 0.338,-1.185 0.61,-2.389 0.729,-3.563 2.753,0.472 6.462,3.604 6.669,6.504 C 0.357,-2.052 0.255,-0.666 0,0"
                   style="fill:#000000;fill-opacity:1;fill-rule:nonzero;stroke:none"
                   id="path324" /></g></g></g></g><g
           id="g332"
           transform="translate(214.8086,413.9111)"><path
             d="m 0,0 c -6.156,-2.406 -6.562,-7.47 -5.954,-13.01 0.609,-5.539 6.576,-1.868 7.912,1.584 C 3.294,-7.974 8.532,3.335 0,0"
             style="fill:#1a2e35;fill-opacity:1;fill-rule:nonzero;stroke:none"
             id="path334" /></g><g
           id="g336"
           transform="translate(234.457,402.8818)"><path
             d="m 0,0 c -1.71,-8.709 -2.273,-13.884 -7.261,-17.895 -7.504,-6.032 -17.68,-0.817 -18.577,8.167 -0.807,8.088 2.125,20.972 11.09,23.512 C -5.915,16.285 1.71,8.71 0,0"
             style="fill:#ffb670;fill-opacity:1;fill-rule:nonzero;stroke:none"
             id="path338" /></g><g
           id="g340"
           transform="translate(234.0989,395.667)"><path
             d="m 0,0 c -7.333,-0.39 -5.778,3.777 -4.445,6.166 1.334,2.39 -1.388,6.334 0.389,8.39 -3.166,-1.26 -6.491,-0.223 -10.722,2.721 -3.283,2.285 -7.389,-6.865 -11.389,-2.277 -3.778,4.333 -0.268,10.862 8.806,11.916 9.073,1.055 10.73,-5.377 16.694,-4.806 5.964,0.573 3.889,-4.333 2.722,-5.333 C 7.055,16.444 9.778,11.666 0,0"
             style="fill:#1a2e35;fill-opacity:1;fill-rule:nonzero;stroke:none"
             id="path342" /></g><g
           id="g344"
           transform="translate(235.0432,411.834)"><path
             d="M 0,0 C 0,0 3.75,1.805 3.805,6.389 5.75,2.916 5.533,-1.023 0,0"
             style="fill:#1a2e35;fill-opacity:1;fill-rule:nonzero;stroke:none"
             id="path346" /></g><g
           id="g348"
           transform="translate(216.0015,393.5771)"><path
             d="M 0,0 C 2.704,-0.433 4.497,1.013 4.579,1.081 4.67,1.155 4.684,1.287 4.612,1.376 4.539,1.465 4.407,1.477 4.316,1.401 4.296,1.385 2.205,-0.29 -0.774,0.611 -0.884,0.645 -1.003,0.582 -1.039,0.471 -1.076,0.36 -1.015,0.243 -0.905,0.209 -0.594,0.115 -0.292,0.047 0,0"
             style="fill:#1a2e35;fill-opacity:1;fill-rule:nonzero;stroke:none"
             id="path350" /></g><g
           id="g352"
           transform="translate(236.2351,393.0186)"><path
             d="M 0,0 C -1.466,-1.905 -3.656,-2.975 -5.595,-3.224 -8.51,-3.597 -9.474,-0.886 -8.25,1.646 -7.149,3.924 -4.304,6.863 -1.577,6.07 1.11,5.289 1.677,2.179 0,0"
             style="fill:#ffb670;fill-opacity:1;fill-rule:nonzero;stroke:none"
             id="path354" /></g><g
           id="g356"
           transform="translate(233.343,203.6328)"><path
             d="m 0,0 c 0.348,26.111 3.683,88.292 3.683,88.292 l -36.86,-3.105 c 0,0 7.332,-64.09 11.758,-90.727 4.598,-27.696 18.711,-92.559 18.711,-92.559 l 14.963,1.275 c 0,0 -5.444,76.636 -12.255,96.824"
             style="fill:#1a2e35;fill-opacity:1;fill-rule:nonzero;stroke:none"
             id="path358" /></g><g
           id="g360"
           transform="translate(229.7278,105.1211)"><path
             d="M 0,0 17.788,1.506 17.089,7.249 -1.442,6.008 Z"
             style="fill:#007cff;fill-opacity:1;fill-rule:nonzero;stroke:none"
             id="path362" /></g><g
           id="g364"
           transform="translate(221.323,402.3613)"><path
             d="m 0,0 c -0.096,-0.715 -0.548,-1.251 -1.01,-1.2 -0.462,0.052 -0.759,0.673 -0.663,1.387 0.096,0.713 0.548,1.25 1.01,1.199 C -0.201,1.334 0.096,0.714 0,0"
             style="fill:#1a2e35;fill-opacity:1;fill-rule:nonzero;stroke:none"
             id="path366" /></g><g
           id="g368"
           transform="translate(213.1619,403.0371)"><path
             d="m 0,0 c -0.096,-0.714 -0.548,-1.251 -1.01,-1.199 -0.462,0.052 -0.759,0.672 -0.663,1.386 0.096,0.714 0.548,1.25 1.01,1.199 C -0.201,1.335 0.096,0.714 0,0"
             style="fill:#1a2e35;fill-opacity:1;fill-rule:nonzero;stroke:none"
             id="path370" /></g><g
           id="g372"
           transform="translate(215.4641,402.1582)"><path
             d="m 0,0 c 0,0 -2.239,-3.448 -4.306,-5.037 1.059,-1.115 3.257,-0.808 3.257,-0.808 z"
             style="fill:#ff8a35;fill-opacity:1;fill-rule:nonzero;stroke:none"
             id="path374" /></g><g
           id="g376"><g
             id="g378" /><g
             id="g390"><g
               clip-path="url(#clipPath382)"
               opacity="0.399994"
               id="g388"><g
                 transform="translate(207.9778,402.8193)"
                 id="g386"><path
                   d="m 0,0 c -0.146,-1.139 1.022,-2.091 2.594,-2.293 1.573,-0.202 3.054,0.676 3.201,1.814"
                   style="fill:#007cff;fill-opacity:1;fill-rule:nonzero;stroke:none"
                   id="path384" /></g></g></g></g><g
           id="g392"><g
             id="g394" /><g
             id="g406"><g
               clip-path="url(#clipPath398)"
               opacity="0.399994"
               id="g404"><g
                 transform="translate(217.4487,401.7588)"
                 id="g402"><path
                   d="m 0,0 c -0.215,-1.128 0.895,-2.148 2.452,-2.445 1.557,-0.296 3.089,0.492 3.303,1.62"
                   style="fill:#007cff;fill-opacity:1;fill-rule:nonzero;stroke:none"
                   id="path400" /></g></g></g></g><g
           id="g408"
           transform="translate(220.5195,399.0381)"><path
             d="m 0,0 c -0.177,0 -0.357,0.012 -0.538,0.034 -0.81,0.105 -1.545,0.434 -2.069,0.927 -0.545,0.513 -0.801,1.142 -0.72,1.771 -0.067,0.053 -0.632,0.277 -1.606,0.403 -0.979,0.126 -1.585,0.053 -1.688,-0.036 -0.139,-1.214 -1.657,-2.06 -3.357,-1.85 -0.811,0.105 -1.545,0.434 -2.07,0.927 -0.545,0.512 -0.801,1.141 -0.72,1.77 l 0.477,-0.06 c -0.06,-0.473 0.143,-0.955 0.573,-1.36 0.451,-0.423 1.091,-0.708 1.801,-0.798 1.433,-0.19 2.713,0.481 2.843,1.486 0.071,0.555 1.235,0.522 2.197,0.399 C -3.913,3.489 -2.778,3.226 -2.85,2.671 -2.91,2.198 -2.707,1.716 -2.277,1.312 -1.826,0.888 -1.187,0.604 -0.476,0.513 0.233,0.42 0.925,0.534 1.469,0.83 1.987,1.112 2.306,1.527 2.366,1.999 L 2.397,2.238 14.743,0.651 14.682,0.173 2.797,1.701 C 2.655,1.173 2.272,0.72 1.699,0.407 1.208,0.14 0.619,0 0,0"
             style="fill:#1a2e35;fill-opacity:1;fill-rule:nonzero;stroke:none"
             id="path410" /></g><g
           id="g412"
           transform="translate(224.458,405.498)"><path
             d="M 0,0 C 0.07,0.002 0.14,0.021 0.205,0.06 0.407,0.179 0.478,0.437 0.365,0.638 -0.772,2.643 -2.701,2.743 -2.782,2.747 -3.014,2.756 -3.213,2.575 -3.227,2.342 -3.242,2.11 -3.068,1.914 -2.839,1.903 -2.775,1.9 -1.273,1.806 -0.365,0.206 -0.288,0.07 -0.146,-0.004 0,0"
             style="fill:#1a2e35;fill-opacity:1;fill-rule:nonzero;stroke:none"
             id="path414" /></g><g
           id="g416"
           transform="translate(210.5247,406.6279)"><path
             d="M 0,0 C 0.135,-0.012 0.275,0.042 0.368,0.157 1.56,1.61 3.061,1.494 3.124,1.488 3.353,1.468 3.561,1.639 3.588,1.869 3.615,2.101 3.453,2.306 3.224,2.328 3.141,2.335 1.221,2.505 -0.272,0.685 -0.421,0.503 -0.399,0.237 -0.222,0.092 -0.156,0.037 -0.079,0.008 0,0"
             style="fill:#1a2e35;fill-opacity:1;fill-rule:nonzero;stroke:none"
             id="path418" /></g><g
           id="g420"
           transform="translate(264.0464,207.8428)"><path
             d="m 0,0 c -7.651,39.315 -9.364,70.068 -16.631,84.957 l -35.705,-3.979 c 0,0 21.273,-58.593 31.655,-83.598 10.792,-26.001 32.095,-70.419 32.095,-70.419 H 29.249 C 29.249,-73.039 12.6,-17.909 0,0"
             style="fill:#1a2e35;fill-opacity:1;fill-rule:nonzero;stroke:none"
             id="path422" /></g><g
           id="g424"
           transform="translate(150.8628,356.6924)"><path
             d="m 0,0 -3.834,2.441 c -1.3,0.828 -3.019,0.628 -4.061,-0.47 l -2.618,-2.761 c -1.193,-1.259 -1.074,-3.231 0.262,-4.371 l 1.873,-1.597 c 1.623,-1.385 3.52,-2.412 5.566,-3.016 l 5.65,-1.666 3.706,3.979 C 7.642,-3.267 0,0 0,0"
             style="fill:#ffb670;fill-opacity:1;fill-rule:nonzero;stroke:none"
             id="path426" /></g><g
           id="g428"
           transform="translate(207.9932,358.5566)"><path
             d="m 0,0 c -1.399,-3.42 -2.771,-6.597 -4.264,-9.851 -1.49,-3.227 -3.008,-6.451 -4.673,-9.645 -1.659,-3.198 -3.45,-6.361 -5.468,-9.538 -1.021,-1.585 -2.112,-3.167 -3.365,-4.752 -1.269,-1.583 -2.649,-3.179 -4.602,-4.77 -0.991,-0.789 -2.141,-1.594 -3.695,-2.277 -0.412,-0.167 -0.807,-0.327 -1.269,-0.464 l -0.697,-0.193 c -0.257,-0.066 -0.714,-0.146 -1.066,-0.191 -1.476,-0.17 -2.674,0.025 -3.644,0.268 -1.93,0.521 -3.1,1.243 -4.184,1.903 -1.061,0.673 -1.933,1.352 -2.749,2.031 -3.192,2.716 -5.588,5.473 -7.946,8.278 -2.332,2.796 -4.53,5.608 -6.637,8.472 -2.127,2.873 -4.147,5.687 -6.222,8.704 l 11.058,7.137 c 3.464,-5.566 7.425,-11.158 11.557,-16.15 2.079,-2.455 4.289,-4.865 6.373,-6.589 0.51,-0.419 1.01,-0.789 1.407,-1.032 0.375,-0.246 0.743,-0.35 0.488,-0.255 -0.137,0.037 -0.467,0.123 -1.086,0.058 -0.14,-0.006 -0.382,-0.065 -0.431,-0.076 -0.026,-0.001 -0.052,-0.005 -0.076,-0.014 -0.049,-0.02 -0.048,-0.004 -0.059,-0.017 0.021,0.021 0.309,0.19 0.651,0.487 0.709,0.602 1.614,1.616 2.461,2.744 0.858,1.137 1.701,2.411 2.513,3.741 1.636,2.666 3.111,5.578 4.522,8.545 1.4,2.976 2.746,6.021 3.976,9.123 1.222,3.077 2.444,6.285 3.449,9.321 z"
             style="fill:#007cff;fill-opacity:1;fill-rule:nonzero;stroke:none"
             id="path430" /></g><g
           id="g432"><g
             id="g434" /><g
             id="g446"><g
               clip-path="url(#clipPath438)"
               opacity="0.600006"
               id="g444"><g
                 transform="translate(207.9932,358.5566)"
                 id="g442"><path
                   d="m 0,0 c -1.399,-3.42 -2.771,-6.597 -4.264,-9.851 -1.49,-3.227 -3.008,-6.451 -4.673,-9.645 -1.659,-3.198 -3.45,-6.361 -5.468,-9.538 -1.021,-1.585 -2.112,-3.167 -3.365,-4.752 -1.269,-1.583 -2.649,-3.179 -4.602,-4.77 -0.991,-0.789 -2.141,-1.594 -3.695,-2.277 -0.412,-0.167 -0.807,-0.327 -1.269,-0.464 l -0.697,-0.193 c -0.257,-0.066 -0.714,-0.146 -1.066,-0.191 -1.476,-0.17 -2.674,0.025 -3.644,0.268 -1.93,0.521 -3.1,1.243 -4.184,1.903 -1.061,0.673 -1.933,1.352 -2.749,2.031 -3.192,2.716 -5.588,5.473 -7.946,8.278 -2.332,2.796 -4.53,5.608 -6.637,8.472 -2.127,2.873 -4.147,5.687 -6.222,8.704 l 11.058,7.137 c 3.464,-5.566 7.425,-11.158 11.557,-16.15 2.079,-2.455 4.289,-4.865 6.373,-6.589 0.51,-0.419 1.01,-0.789 1.407,-1.032 0.375,-0.246 0.743,-0.35 0.488,-0.255 -0.137,0.037 -0.467,0.123 -1.086,0.058 -0.14,-0.006 -0.382,-0.065 -0.431,-0.076 -0.026,-0.001 -0.052,-0.005 -0.076,-0.014 -0.049,-0.02 -0.048,-0.004 -0.059,-0.017 0.021,0.021 0.309,0.19 0.651,0.487 0.709,0.602 1.614,1.616 2.461,2.744 0.858,1.137 1.701,2.411 2.513,3.741 1.636,2.666 3.111,5.578 4.522,8.545 1.4,2.976 2.746,6.021 3.976,9.123 1.222,3.077 2.444,6.285 3.449,9.321 z"
                   style="fill:#ffffff;fill-opacity:1;fill-rule:nonzero;stroke:none"
                   id="path440" /></g></g></g></g><g
           id="g448"
           transform="translate(234.1814,373.9062)"><path
             d="m 0,0 c -3.75,-6.955 -17.102,-33.67 -18.717,-50.129 -5.913,14.961 -4.62,48.18 -4.62,48.18 -2.906,-0.077 -8.236,-1.367 -12.275,-2.951 -2.614,-1.026 -4.409,-3.516 -4.62,-6.306 -0.614,-8.113 -1.464,-27.429 1.622,-51.474 4.146,-32.299 8.031,-82.522 8.031,-82.522 0,0 33.049,1.376 58.546,6.755 -3.113,24.686 -13.753,66.067 -13.849,77.151 -0.123,14.26 0.208,42.142 0.66,53.778 0.134,3.446 -2.19,6.388 -5.521,7.071 C 4.682,0.491 0,0 0,0"
             style="fill:#007cff;fill-opacity:1;fill-rule:nonzero;stroke:none"
             id="path450" /></g><g
           id="g452"><g
             id="g454" /><g
             id="g466"><g
               clip-path="url(#clipPath458)"
               opacity="0.699997"
               id="g464"><g
                 transform="translate(234.1814,373.9062)"
                 id="g462"><path
                   d="m 0,0 c -3.75,-6.955 -17.102,-33.67 -18.717,-50.129 -5.913,14.961 -4.62,48.18 -4.62,48.18 -2.906,-0.077 -8.236,-1.367 -12.275,-2.951 -2.614,-1.026 -4.409,-3.516 -4.62,-6.306 -0.614,-8.113 -1.464,-27.429 1.622,-51.474 4.146,-32.299 8.031,-82.522 8.031,-82.522 0,0 33.049,1.376 58.546,6.755 -3.113,24.686 -13.753,66.067 -13.849,77.151 -0.123,14.263 0.208,42.154 0.66,53.786 0.129,3.323 -2.005,6.292 -5.207,6.996 C 4.898,0.514 0,0 0,0"
                   style="fill:#ffffff;fill-opacity:1;fill-rule:nonzero;stroke:none"
                   id="path460" /></g></g></g></g><g
           id="g468"
           transform="translate(226.3892,234.0605)"><path
             d="m 0,0 c -5.738,31.666 -10.293,78.135 -10.664,83.729 l 0.518,0.035 C -9.774,78.174 -5.223,31.738 0.512,0.092 Z"
             style="fill:#ffffff;fill-opacity:1;fill-rule:nonzero;stroke:none"
             id="path470" /></g><g
           id="g472"
           transform="translate(223.5256,290.3955)"><path
             d="m 0,0 h -30.473 c -1.195,0 -2.384,0.979 -2.642,2.175 l -10.196,47.369 c -0.257,1.196 0.511,2.174 1.707,2.174 h 30.472 c 1.196,0 2.385,-0.978 2.642,-2.174 L 1.706,2.175 C 1.964,0.979 1.196,0 0,0"
             style="fill:#ffffff;fill-opacity:1;fill-rule:nonzero;stroke:none"
             id="path474" /></g><g
           id="g476"
           transform="translate(222.5798,289.9619)"><path
             d="m 0,0 h -30.984 c -1.216,0 -2.425,0.995 -2.686,2.211 l -10.367,48.164 c -0.262,1.216 0.519,2.211 1.735,2.211 h 30.984 c 1.216,0 2.425,-0.995 2.686,-2.211 L 1.735,2.211 C 1.997,0.995 1.216,0 0,0"
             style="fill:#007cff;fill-opacity:1;fill-rule:nonzero;stroke:none"
             id="path478" /></g><g
           id="g480"
           transform="translate(226.1333,317.1777)"><path
             d="M 0,0 -7.712,0.288 C -8.64,0.323 -9.565,0.162 -10.427,-0.185 l -3.981,-1.598 c -1.63,-0.655 -2.369,-2.487 -1.639,-4.06 l 1.601,-3.45 c 0.638,-1.374 2.203,-2.111 3.699,-1.74 l 4.413,1.093 c 0,0 8.284,0.661 8.58,4.986 z"
             style="fill:#ffb670;fill-opacity:1;fill-rule:nonzero;stroke:none"
             id="path482" /></g><g
           id="g484"
           transform="translate(247.4194,369.623)"><path
             d="m 0,0 c 1.914,-2.956 3.656,-5.743 5.384,-8.68 1.722,-2.909 3.41,-5.853 5.002,-8.895 1.582,-3.053 3.103,-6.175 4.47,-9.536 0.673,-1.697 1.302,-3.455 1.825,-5.393 0.497,-1.959 0.982,-4.033 0.88,-6.871 l -0.01,-0.262 -0.006,-0.13 c -0.001,-0.032 -0.004,-0.09 -0.017,-0.197 -0.039,-0.361 -0.094,-0.724 -0.165,-1.079 -0.076,-0.318 -0.164,-0.636 -0.262,-0.947 -0.099,-0.31 -0.205,-0.553 -0.32,-0.828 -0.451,-1.021 -0.978,-1.818 -1.458,-2.422 -0.992,-1.263 -1.901,-2.032 -2.775,-2.764 -1.743,-1.401 -3.369,-2.389 -4.984,-3.308 -3.218,-1.801 -6.368,-3.206 -9.526,-4.538 -3.145,-1.341 -6.29,-2.56 -9.449,-3.713 -3.17,-1.176 -6.27,-2.257 -9.556,-3.359 l -3.807,12.598 c 2.96,0.823 6.056,1.827 9.041,2.845 2.995,1.052 5.959,2.162 8.84,3.351 2.861,1.211 5.669,2.523 8.144,3.936 1.222,0.699 2.377,1.452 3.172,2.112 0.382,0.309 0.693,0.644 0.693,0.684 0.031,0.034 -0.074,-0.055 -0.193,-0.331 -0.042,-0.085 -0.056,-0.144 -0.098,-0.257 -0.044,-0.117 -0.077,-0.237 -0.098,-0.358 -0.04,-0.153 -0.067,-0.313 -0.077,-0.472 -0.002,-0.057 -0.003,-0.065 -0.004,-0.044 l -0.004,0.021 -0.005,0.045 c 0.006,0.436 -0.175,1.604 -0.542,2.787 -0.36,1.209 -0.859,2.523 -1.427,3.851 -1.15,2.671 -2.583,5.389 -4.138,8.069 -1.561,2.684 -3.215,5.359 -4.968,7.984 -1.748,2.598 -3.601,5.272 -5.435,7.67 z"
             style="fill:#007cff;fill-opacity:1;fill-rule:nonzero;stroke:none"
             id="path486" /></g><g
           id="g488"><g
             id="g490" /><g
             id="g502"><g
               clip-path="url(#clipPath494)"
               opacity="0.699997"
               id="g500"><g
                 transform="translate(247.4194,369.623)"
                 id="g498"><path
                   d="m 0,0 c 1.914,-2.956 3.656,-5.743 5.384,-8.68 1.722,-2.909 3.41,-5.853 5.002,-8.895 1.582,-3.053 3.103,-6.175 4.47,-9.536 0.673,-1.697 1.302,-3.455 1.825,-5.393 0.497,-1.959 0.982,-4.033 0.88,-6.871 l -0.01,-0.262 -0.006,-0.13 c -0.001,-0.032 -0.004,-0.09 -0.017,-0.197 -0.039,-0.361 -0.094,-0.724 -0.165,-1.079 -0.076,-0.318 -0.164,-0.636 -0.262,-0.947 -0.099,-0.31 -0.205,-0.553 -0.32,-0.828 -0.451,-1.021 -0.978,-1.818 -1.458,-2.422 -0.992,-1.263 -1.901,-2.032 -2.775,-2.764 -1.743,-1.401 -3.369,-2.389 -4.984,-3.308 -3.218,-1.801 -6.368,-3.206 -9.526,-4.538 -3.145,-1.341 -6.29,-2.56 -9.449,-3.713 -3.17,-1.176 -6.27,-2.257 -9.556,-3.359 l -3.807,12.598 c 2.96,0.823 6.056,1.827 9.041,2.845 2.995,1.052 5.959,2.162 8.84,3.351 2.861,1.211 5.669,2.523 8.144,3.936 1.222,0.699 2.377,1.452 3.172,2.112 0.382,0.309 0.693,0.644 0.693,0.684 0.031,0.034 -0.074,-0.055 -0.193,-0.331 -0.042,-0.085 -0.056,-0.144 -0.098,-0.257 -0.044,-0.117 -0.077,-0.237 -0.098,-0.358 -0.04,-0.153 -0.067,-0.313 -0.077,-0.472 -0.002,-0.057 -0.003,-0.065 -0.004,-0.044 l -0.004,0.021 -0.005,0.045 c 0.006,0.436 -0.175,1.604 -0.542,2.787 -0.36,1.209 -0.859,2.523 -1.427,3.851 -1.15,2.671 -2.583,5.389 -4.138,8.069 -1.561,2.684 -3.215,5.359 -4.968,7.984 -1.748,2.598 -3.601,5.272 -5.435,7.67 z"
                   style="fill:#ffffff;fill-opacity:1;fill-rule:nonzero;stroke:none"
                   id="path496" /></g></g></g></g><g
           id="g504"
           transform="translate(237.3008,334.9248)"><path
             d="m 0,0 c -0.131,0 -0.26,0.064 -0.335,0.184 -0.118,0.184 -0.063,0.43 0.122,0.547 l 1.562,0.994 c 2.993,1.902 4.484,5.38 3.797,8.859 L 2.008,26.489 c -0.606,3.071 -3.103,4.255 -5.056,4.337 -1.96,0.081 -4.541,-0.89 -5.401,-3.899 l -4.454,-15.589 c -0.974,-3.409 0.22,-6.999 3.045,-9.145 l 1.474,-1.12 C -8.21,0.94 -8.176,0.691 -8.309,0.517 -8.441,0.342 -8.689,0.309 -8.865,0.44 l -1.474,1.121 c -3.086,2.345 -4.392,6.268 -3.327,9.996 l 4.454,15.589 c 0.812,2.84 3.254,4.577 6.197,4.473 2.952,-0.124 5.229,-2.077 5.801,-4.975 L 5.925,10.738 C 6.675,6.936 5.046,3.135 1.775,1.055 L 0.212,0.062 C 0.146,0.02 0.073,0 0,0"
             style="fill:#1a2e35;fill-opacity:1;fill-rule:nonzero;stroke:none"
             id="path506" /></g><g
           id="g508"
           transform="translate(239.6982,361.0947)"><path
             d="m 0,0 h -0.017 l -11.228,0.47 c -0.218,0.009 -0.389,0.194 -0.38,0.413 0.01,0.219 0.201,0.362 0.414,0.38 L 0.016,0.793 C 0.235,0.784 0.405,0.599 0.396,0.38 0.387,0.167 0.211,0 0,0"
             style="fill:#1a2e35;fill-opacity:1;fill-rule:nonzero;stroke:none"
             id="path510" /></g><g
           id="g512"
           transform="translate(234.2412,365.752)"><path
             d="m 0,0 c -0.215,0 -0.392,0.171 -0.396,0.387 -0.047,1.955 -0.626,5.468 -2.498,6.236 -0.203,0.083 -0.3,0.315 -0.217,0.518 0.083,0.203 0.315,0.299 0.518,0.216 C 0.179,6.221 0.382,0.998 0.396,0.406 0.402,0.187 0.229,0.005 0.009,0 Z"
             style="fill:#1a2e35;fill-opacity:1;fill-rule:nonzero;stroke:none"
             id="path514" /></g><g
           id="g516"
           transform="translate(199.8896,352.1621)"><path
             d="m 0,0 c -0.026,0 -0.052,0.002 -0.079,0.008 -0.214,0.043 -0.354,0.252 -0.311,0.467 1.317,6.57 6.779,16.948 11.587,19.981 0.187,0.115 0.431,0.061 0.548,-0.124 0.117,-0.186 0.061,-0.431 -0.124,-0.548 C 6.972,16.852 1.674,6.737 0.389,0.318 0.351,0.13 0.185,0 0,0"
             style="fill:#1a2e35;fill-opacity:1;fill-rule:nonzero;stroke:none"
             id="path518" /></g><g
           id="g520"
           transform="translate(203.1736,351.1279)"><path
             d="M 0,0 C -0.625,-1.592 -1.981,-2.547 -3.031,-2.136 -4.08,-1.724 -4.424,-0.1 -3.8,1.491 -3.175,3.082 -1.819,4.038 -0.769,3.626 0.28,3.214 0.625,1.591 0,0"
             style="fill:#ffffff;fill-opacity:1;fill-rule:nonzero;stroke:none"
             id="path522" /></g><g
           id="g524"
           transform="translate(229.5686,335.6445)"><path
             d="m 0,0 c -0.031,-0.747 -0.456,-1.337 -0.949,-1.316 -0.493,0.021 -0.867,0.643 -0.836,1.39 0.032,0.747 0.456,1.336 0.949,1.316 C -0.343,1.369 0.031,0.747 0,0"
             style="fill:#ffffff;fill-opacity:1;fill-rule:nonzero;stroke:none"
             id="path526" /></g><g
           id="g528"
           transform="translate(238.1926,335.2842)"><path
             d="m 0,0 c -0.031,-0.747 -0.456,-1.337 -0.949,-1.315 -0.492,0.02 -0.867,0.642 -0.835,1.389 0.031,0.747 0.456,1.336 0.948,1.316 C -0.343,1.369 0.031,0.747 0,0"
             style="fill:#ffffff;fill-opacity:1;fill-rule:nonzero;stroke:none"
             id="path530" /></g></g></g><g
       id="g532"><g
         id="g534"
         clip-path="url(#clipPath538)"><g
           id="g540"
           transform="translate(407.7666,349.1465)"><path
             d="m 0,0 -0.998,0.066 c 0.298,4.413 -1.161,8.579 -4.107,11.73 -2.94,3.144 -6.982,4.876 -11.382,4.876 v 1 c 4.68,0 8.982,-1.844 12.112,-5.193 C -1.237,9.123 0.316,4.691 0,0"
             style="fill:#007cff;fill-opacity:1;fill-rule:nonzero;stroke:none"
             id="path542" /></g><g
           id="g544"
           transform="translate(406.8989,336.3008)"><path
             d="M 0,0 -0.998,0.066 -0.44,8.324 0.558,8.258 Z"
             style="fill:#007cff;fill-opacity:1;fill-rule:nonzero;stroke:none"
             id="path546" /></g><g
           id="g548"
           transform="translate(391.2793,363.3184)"><path
             d="m 0,0 h -68.96 c -7.665,0 -14.36,-6.271 -14.878,-13.937 l -0.627,-9.291 c -0.518,-7.664 5.33,-13.935 12.995,-13.935 h 68.96 l 13.378,-8.259 2.127,31.485 C 13.513,-6.271 7.665,0 0,0"
             style="fill:#007cff;fill-opacity:1;fill-rule:nonzero;stroke:none"
             id="path550" /></g><path
           d="m 387.778,347.69 h -63.913 v 2.322 h 63.913 z"
           style="fill:#ffffff;fill-opacity:1;fill-rule:nonzero;stroke:none"
           id="path552" /><path
           d="M 387.222,339.46 H 339.77 v 2.322 h 47.452 z"
           style="fill:#ffffff;fill-opacity:1;fill-rule:nonzero;stroke:none"
           id="path554" /><g
           id="g556"
           transform="translate(287.4807,313.6211)"><path
             d="m 0,0 h 70.522 c 7.839,0 13.819,-6.413 13.29,-14.252 L 83.17,-23.753 C 82.64,-31.592 75.793,-38.005 67.955,-38.005 H -2.567 l -14.823,-8.446 2.175,32.199 C -14.685,-6.413 -7.839,0 0,0"
             style="fill:#ffffff;fill-opacity:1;fill-rule:nonzero;stroke:none"
             id="path558" /></g><g
           id="g560"><g
             id="g562" /><g
             id="g574"><g
               clip-path="url(#clipPath566)"
               opacity="0.149994"
               id="g572"><g
                 transform="translate(287.4807,313.6211)"
                 id="g570"><path
                   d="m 0,0 h 70.522 c 7.839,0 13.819,-6.413 13.29,-14.252 L 83.17,-23.753 C 82.64,-31.592 75.793,-38.005 67.955,-38.005 H -2.567 l -14.823,-8.446 2.175,32.199 C -14.685,-6.413 -7.839,0 0,0"
                   style="fill:#007cff;fill-opacity:1;fill-rule:nonzero;stroke:none"
                   id="path568" /></g></g></g></g><g
           id="g576"><g
             id="g578" /><g
             id="g588"><g
               clip-path="url(#clipPath582)"
               opacity="0.5"
               id="g586"><path
                 d="m 354.422,297.639 h -65.36 v 2.375 h 65.36 z"
                 style="fill:#007cff;fill-opacity:1;fill-rule:nonzero;stroke:none"
                 id="path584" /></g></g></g><g
           id="g590"><g
             id="g592" /><g
             id="g602"><g
               clip-path="url(#clipPath596)"
               opacity="0.5"
               id="g600"><path
                 d="m 314.321,289.223 h -25.827 v 2.375 h 25.827 z"
                 style="fill:#007cff;fill-opacity:1;fill-rule:nonzero;stroke:none"
                 id="path598" /></g></g></g><g
           id="g604"><g
             id="g606" /><g
             id="g616"><g
               clip-path="url(#clipPath610)"
               opacity="0.5"
               id="g614"><path
                 d="m 337.15,289.223 h -16.496 v 2.375 h 16.496 z"
                 style="fill:#007cff;fill-opacity:1;fill-rule:nonzero;stroke:none"
                 id="path612" /></g></g></g></g></g></g></svg>
