<?xml version="1.0" encoding="UTF-8" standalone="no"?>
<!-- Created with Inkscape (http://www.inkscape.org/) -->

<svg
   version="1.1"
   id="svg2"
   xml:space="preserve"
   width="3333.3333"
   height="3333.3333"
   viewBox="0 0 3333.3333 3333.3333"
   sodipodi:docname="Sandy_Med-04_Single-12.eps"
   xmlns:inkscape="http://www.inkscape.org/namespaces/inkscape"
   xmlns:sodipodi="http://sodipodi.sourceforge.net/DTD/sodipodi-0.dtd"
   xmlns="http://www.w3.org/2000/svg"
   xmlns:svg="http://www.w3.org/2000/svg"><defs
     id="defs6"><clipPath
       clipPathUnits="userSpaceOnUse"
       id="clipPath112"><path
         d="m 20548.7,13003.5 c 0,-995 -807.5,-1801.5 -1803.5,-1801.5 -996.1,0 -1803.5,806.5 -1803.5,1801.5 0,994.9 807.4,1801.5 1803.5,1801.5 996,0 1803.5,-806.6 1803.5,-1801.5 z"
         id="path110" /></clipPath></defs><sodipodi:namedview
     id="namedview4"
     pagecolor="#ffffff"
     bordercolor="#666666"
     borderopacity="1.0"
     inkscape:pageshadow="2"
     inkscape:pageopacity="0.0"
     inkscape:pagecheckerboard="0" /><g
     id="g8"
     inkscape:groupmode="layer"
     inkscape:label="ink_ext_XXXXXX"
     transform="matrix(1.3333333,0,0,-1.3333333,0,3333.3333)"><g
       id="g10"
       transform="scale(0.1)"><path
         d="M 25000,0 H 0 V 25000 H 25000 V 0"
         style="fill:#ffffff;fill-opacity:1;fill-rule:nonzero;stroke:none"
         id="path12" /><path
         d="m 21629,12500 c 0,-5053.4 -4086.7,-9150 -9128,-9150 -5041.2,0 -9127.93,4096.6 -9127.93,9150 0,5053.4 4086.73,9150 9127.93,9150 5041.3,0 9128,-4096.6 9128,-9150"
         style="fill:#f2e6dc;fill-opacity:1;fill-rule:nonzero;stroke:none"
         id="path14" /><path
         d="M 4823.85,4239 H 16585.4 V 19378.3 H 4823.85 Z M 16595.4,4219 H 4813.85 c -5.52,0 -10,4.5 -10,10 v 15159.3 c 0,5.5 4.48,10 10,10 H 16595.4 c 5.5,0 10,-4.5 10,-10 V 4229 c 0,-5.5 -4.5,-10 -10,-10"
         style="fill:#363e44;fill-opacity:1;fill-rule:nonzero;stroke:none"
         id="path16" /><path
         d="M 16286.7,4521.5 H 4505.17 V 19388.3 H 16286.7 V 4521.5"
         style="fill:#efbc73;fill-opacity:1;fill-rule:nonzero;stroke:none"
         id="path18" /><path
         d="M 15678.4,5289.1 H 5113.48 v 13331.6 h 7620.62 l 2892.3,25.5 52,-2823.8 V 5289.1"
         style="fill:#f2e6dc;fill-opacity:1;fill-rule:nonzero;stroke:none"
         id="path20" /><path
         d="m 9070.87,16172.6 c 0,-812.3 -658.52,-1470.9 -1470.83,-1470.9 -812.32,0 -1470.84,658.6 -1470.84,1470.9 0,812.3 658.52,1470.8 1470.84,1470.8 812.31,0 1470.83,-658.5 1470.83,-1470.8"
         style="fill:#d3bba3;fill-opacity:1;fill-rule:nonzero;stroke:none"
         id="path22" /><path
         d="m 8630.34,16399.6 h -803.27 v 803.3 H 7373 v -803.3 h -803.27 v -454.1 H 7373 v -803.2 h 454.07 v 803.2 h 803.27 v 454.1"
         style="fill:#ffffff;fill-opacity:1;fill-rule:nonzero;stroke:none"
         id="path24" /><path
         d="M 14636.8,15367.6 H 10012.5 V 17332 h 2947.3 1631.2 l 45.8,-1964.4"
         style="fill:#e6d0be;fill-opacity:1;fill-rule:nonzero;stroke:none"
         id="path26" /><path
         d="m 14636.8,14381.4 h -4624.3 v 602.8 h 4624.3 v -602.8"
         style="fill:#f7f1eb;fill-opacity:1;fill-rule:nonzero;stroke:none"
         id="path28" /><path
         d="M 14636.8,12202.1 H 7548.74 v 1093.8 h 7088.06 v -1093.8"
         style="fill:#f7f1eb;fill-opacity:1;fill-rule:nonzero;stroke:none"
         id="path30" /><path
         d="M 14636.8,9666.2 H 7548.74 v 1032.1 H 14636.8 V 9666.2"
         style="fill:#e6d0be;fill-opacity:1;fill-rule:nonzero;stroke:none"
         id="path32" /><path
         d="M 14636.8,7856.7 H 7548.74 V 8935.6 H 14636.8 V 7856.7"
         style="fill:#e6d0be;fill-opacity:1;fill-rule:nonzero;stroke:none"
         id="path34" /><path
         d="m 6892.31,12912.5 c 0,-211.7 -171.62,-383.3 -383.32,-383.3 -211.7,0 -383.32,171.6 -383.32,383.3 0,211.7 171.62,383.4 383.32,383.4 211.7,0 383.32,-171.7 383.32,-383.4"
         style="fill:#e6d0be;fill-opacity:1;fill-rule:nonzero;stroke:none"
         id="path36" /><path
         d="m 6892.31,10229.3 c 0,-211.7 -171.62,-383.3 -383.32,-383.3 -211.7,0 -383.32,171.6 -383.32,383.3 0,211.7 171.62,383.3 383.32,383.3 211.7,0 383.32,-171.6 383.32,-383.3"
         style="fill:#e6d0be;fill-opacity:1;fill-rule:nonzero;stroke:none"
         id="path38" /><path
         d="m 6892.31,8552.3 c 0,-211.7 -171.62,-383.3 -383.32,-383.3 -211.7,0 -383.32,171.6 -383.32,383.3 0,211.7 171.62,383.3 383.32,383.3 211.7,0 383.32,-171.6 383.32,-383.3"
         style="fill:#e6d0be;fill-opacity:1;fill-rule:nonzero;stroke:none"
         id="path40" /><path
         d="m 10395.9,21637.9 c -789.79,0 -1432.35,-642.5 -1432.35,-1432.3 0,-789.9 642.56,-1432.4 1432.35,-1432.4 789.8,0 1432.4,642.5 1432.4,1432.4 0,789.8 -642.6,1432.3 -1432.4,1432.3 z m 0,-2884.7 c -800.81,0 -1452.35,651.5 -1452.35,1452.4 0,800.8 651.54,1452.3 1452.35,1452.3 800.9,0 1452.4,-651.5 1452.4,-1452.3 0,-800.9 -651.5,-1452.4 -1452.4,-1452.4"
         style="fill:#e6d0be;fill-opacity:1;fill-rule:nonzero;stroke:none"
         id="path42" /><path
         d="m 10395.9,21310.1 c -609.02,0 -1104.53,-495.5 -1104.53,-1104.5 0,-609.1 495.51,-1104.6 1104.53,-1104.6 609.1,0 1104.6,495.5 1104.6,1104.6 0,609 -495.5,1104.5 -1104.6,1104.5 z m 0,-2229.1 c -620.06,0 -1124.53,504.5 -1124.53,1124.6 0,620 504.47,1124.5 1124.53,1124.5 620.1,0 1124.6,-504.5 1124.6,-1124.5 0,-620.1 -504.5,-1124.6 -1124.6,-1124.6"
         style="fill:#e6d0be;fill-opacity:1;fill-rule:nonzero;stroke:none"
         id="path44" /><path
         d="M 12412,17979.8 H 8379.88 v 1787.1 H 12412 v -1787.1"
         style="fill:#ffd092;fill-opacity:1;fill-rule:nonzero;stroke:none"
         id="path46" /><path
         d="m 4167.9,9370.9 c 285.12,-1832.6 391.89,-3337.5 238.46,-3361.4 -153.42,-23.9 -508.93,1442.3 -794.06,3274.9 -285.12,1832.6 -238.46,3361.4 -238.46,3361.4 0,0 508.93,-1442.4 794.06,-3274.9"
         style="fill:#8b865c;fill-opacity:1;fill-rule:nonzero;stroke:none"
         id="path48" /><path
         d="m 3829.27,12577.2 c -26.77,-256.4 -157.2,-1683.7 57.2,-3336 115.38,-889.2 263.28,-1719.9 416.46,-2339.3 145,-586.3 286.15,-933.3 379.1,-933.3 1.59,0 3.16,0.1 4.71,0.3 92.86,12 142.57,385.9 132.99,1000.1 -9.96,637.9 -78.99,1478.9 -194.37,2368.1 -214.39,1652.3 -704.77,2999 -796.09,3240.1 z m 853.19,-6628.6 c -135.61,-0.1 -291.36,513.5 -398.94,948.5 -153.36,620.1 -301.41,1451.6 -416.87,2341.5 -236.08,1819.4 -54.63,3366.4 -52.77,3381.9 l 4.71,39 14.52,-36.5 c 5.73,-14.5 576.02,-1464 812.1,-3283.4 213.03,-1641.8 287.78,-3358.9 44.11,-3390.5 -2.28,-0.3 -4.57,-0.5 -6.86,-0.5"
         style="fill:#776e42;fill-opacity:1;fill-rule:nonzero;stroke:none"
         id="path50" /><path
         d="m 6783.65,8414.3 c -255.34,-1837 -587.02,-3308.8 -740.81,-3287.4 -153.79,21.4 -71.46,1527.8 183.88,3364.8 255.36,1836.9 740.81,3287.4 740.81,3287.4 0,0 71.47,-1527.9 -183.88,-3364.8"
         style="fill:#8b865c;fill-opacity:1;fill-rule:nonzero;stroke:none"
         id="path52" /><path
         d="m 6441.48,12098.1 c -71.5,-275.7 -380.04,-1523.9 -514.63,-3024.1 -74.39,-829.2 -118.18,-1611 -123.31,-2201.4 -5.83,-668.6 41.14,-911.2 87.03,-915.4 0.4,0 0.81,0 1.22,0 46.24,0 135.06,232.1 247.35,885.3 100.04,581.9 196.1,1359 270.49,2188.1 l 9.96,-0.9 -9.96,0.9 c 134.6,1500.3 53.14,2783.5 31.85,3067.5 z M 5891.93,5937.2 c -1.07,0 -2.13,0 -3.14,0.1 -25.49,2.3 -62.03,31.9 -85.01,261.8 -15.94,159.4 -22.75,386.1 -20.24,673.7 5.13,590.9 48.95,1373.3 123.38,2202.9 152.16,1696.2 526.47,3070.6 530.24,3084.2 l 14.66,53.4 4.94,-55.1 c 1.27,-14.1 124.96,-1433.2 -27.21,-3129.4 -74.43,-829.6 -170.57,-1607.3 -270.69,-2189.7 -48.73,-283.5 -95.78,-505.3 -139.84,-659.3 -60.96,-213.2 -101.39,-242.6 -127.09,-242.6"
         style="fill:#776e42;fill-opacity:1;fill-rule:nonzero;stroke:none"
         id="path54" /><path
         d="m 6062.36,8707.7 c 29.85,-2035.9 -71.8,-3688.3 -227.06,-3690.5 -155.25,-2.3 -305.31,1646.3 -335.16,3682.3 -29.86,2035.9 227.05,3690.5 227.05,3690.5 0,0 305.31,-1646.3 335.17,-3682.3"
         style="fill:#8b865c;fill-opacity:1;fill-rule:nonzero;stroke:none"
         id="path56" /><path
         d="M 5236.36,6713.9 C 4994.8,4875.1 4674.18,3400.8 4520.23,3421 c -153.95,20.3 -82.93,1527.3 158.63,3366.1 241.56,1838.8 716.13,3292.9 716.13,3292.9 0,0 82.93,-1527.3 -158.63,-3366.1"
         style="fill:#8b865c;fill-opacity:1;fill-rule:nonzero;stroke:none"
         id="path58" /><path
         d="M 5147.49,11647.5 C 5094.22,11440 4801.46,10223.6 4863.4,8790.9 4896.54,8024 4971.03,7305 5073.11,6766.2 c 98.93,-522 214.88,-820.6 318.51,-820.6 0.77,0 1.54,0 2.33,0.1 104.21,4.5 194.92,312.5 248.83,845.1 55.23,545.6 67.39,1268.4 34.24,2035.3 -61.93,1432.7 -458.54,2619.3 -529.53,2821.4 z m 244.17,-5721.9 c -148.36,0 -265.69,454.3 -338.2,836.9 -102.26,539.6 -176.86,1259.7 -210.04,2027.5 -67.87,1570.1 289.36,2880.9 292.98,2893.9 l 8.24,29.8 10.77,-28.9 c 4.73,-12.7 473.72,-1287.9 541.59,-2857.9 33.19,-767.8 21,-1491.6 -34.31,-2038.1 -39.51,-390.2 -118.04,-856.6 -267.89,-863.1 -1.04,-0.1 -2.09,-0.1 -3.14,-0.1"
         style="fill:#776e42;fill-opacity:1;fill-rule:nonzero;stroke:none"
         id="path60" /><path
         d="m 5017.98,8424.9 c 226.68,-1840.7 285.52,-3348.3 131.42,-3367.3 -154.11,-19 -462.8,1457.8 -689.49,3298.5 -226.68,1840.7 -131.42,3367.3 -131.42,3367.3 0,0 462.8,-1457.8 689.49,-3298.5"
         style="fill:#8b865c;fill-opacity:1;fill-rule:nonzero;stroke:none"
         id="path62" /><path
         d="M 6732.74,3376.8 H 3796.39 v 3280 h 2936.35 v -3280"
         style="fill:#e6d0be;fill-opacity:1;fill-rule:nonzero;stroke:none"
         id="path64" /><path
         d="m 21311,8167.1 c 0,-1165.3 -945.7,-2109.9 -2112.2,-2109.9 -1166.5,0 -2112.2,944.6 -2112.2,2109.9 0,1165.2 945.7,2109.8 2112.2,2109.8 1166.5,0 2112.2,-944.6 2112.2,-2109.8"
         style="fill:#ffffff;fill-opacity:1;fill-rule:nonzero;stroke:none"
         id="path66" /><path
         d="m 20869.7,7169.3 c -371.4,252.4 -978.8,416.9 -1665.2,416.9 -691.4,0 -1302.7,-167 -1673.3,-422.5 340.8,-563.9 960.1,-941 1667.6,-941 709.8,0 1330.8,379.6 1670.9,946.6"
         style="fill:#8b865c;fill-opacity:1;fill-rule:nonzero;stroke:none"
         id="path68" /><path
         d="m 18607.8,9394.6 c 108.8,-146.8 95.7,-340.9 -29.3,-433.5 -124.9,-92.6 -314.4,-48.6 -423.2,98.2 -108.8,146.8 -95.7,340.9 29.3,433.5 124.9,92.6 314.4,48.6 423.2,-98.2"
         style="fill:#bc8271;fill-opacity:1;fill-rule:nonzero;stroke:none"
         id="path70" /><path
         d="m 19951,9463 c -93.3,-157.1 -60.6,-348.9 73.1,-428.3 133.7,-79.4 317.7,-16.5 411.1,140.6 93.3,157.1 60.6,348.9 -73.1,428.3 -133.8,79.4 -317.8,16.5 -411.1,-140.6"
         style="fill:#bc8271;fill-opacity:1;fill-rule:nonzero;stroke:none"
         id="path72" /><path
         d="m 19213.7,6901.6 c -326.3,14.9 -578.7,291.6 -563.7,617.9 l 54.8,1677.2 1181.6,-54.1 -54.8,-1677.3 c -15,-326.3 -291.6,-578.7 -617.9,-563.7"
         style="fill:#bc8271;fill-opacity:1;fill-rule:nonzero;stroke:none"
         id="path74" /><path
         d="m 19425.4,7843.6 c -947.8,-56 -983,1526.6 -983,1526.6 l 1679.5,56.8 c 0,0 222.6,-1529.1 -696.5,-1583.4"
         style="fill:#363e44;fill-opacity:1;fill-rule:nonzero;stroke:none"
         id="path76" /><path
         d="m 19370.6,9828.7 c 0,-332.9 -269.9,-602.7 -602.7,-602.7 -332.9,0 -602.7,269.8 -602.7,602.7 0,332.8 269.8,602.7 602.7,602.7 332.8,0 602.7,-269.9 602.7,-602.7"
         style="fill:#363e44;fill-opacity:1;fill-rule:nonzero;stroke:none"
         id="path78" /><path
         d="m 20104.4,9305.6 c 26.8,-526.7 -314.8,-249.7 -763.1,-272.5 -448.2,-22.8 -833.3,-336.8 -860.1,189.9 -26.8,526.6 314.8,827.5 763.1,850.3 448.2,22.8 833.3,-241 860.1,-767.7"
         style="fill:#bc8271;fill-opacity:1;fill-rule:nonzero;stroke:none"
         id="path80" /><path
         d="m 20104.2,9039.9 c -0.5,0 -1.1,0 -1.7,0.1 -5.5,1 -9.1,6.2 -8.1,11.6 15,82.7 20.4,167.9 16.1,253.5 -3.9,76.2 -15.5,151.7 -34.5,224.3 -1.4,5.4 1.8,10.8 7.1,12.2 5.3,1.4 10.8,-1.7 12.2,-7.1 19.4,-74 31.2,-150.8 35.1,-228.4 4.5,-87.1 -1,-173.9 -16.3,-258 -0.9,-4.9 -5.1,-8.2 -9.9,-8.2"
         style="fill:#363e44;fill-opacity:1;fill-rule:nonzero;stroke:none"
         id="path82" /><path
         d="m 18506,8964.4 c -4.3,0 -8.3,2.9 -9.6,7.3 -23,80.8 -36.9,165.2 -41.2,250.8 -4.1,79.1 0.1,158.2 12.4,235.2 0.9,5.4 6,9.1 11.5,8.2 5.4,-0.8 9.1,-5.9 8.3,-11.4 -12.1,-75.5 -16.2,-153.2 -12.3,-231 4.3,-84.1 17.9,-166.9 40.6,-246.3 1.5,-5.3 -1.6,-10.9 -6.9,-12.4 -0.9,-0.2 -1.9,-0.4 -2.8,-0.4"
         style="fill:#363e44;fill-opacity:1;fill-rule:nonzero;stroke:none"
         id="path84" /><path
         d="m 19349.2,9002.9 c -3,0 -6,1.3 -8,3.9 -3.3,4.4 -2.5,10.6 1.9,14 23.5,18.1 35.5,35.9 35.9,52.9 0.2,13.9 -7.3,24.4 -16.9,37.7 -10.3,14.4 -22,30.6 -27.1,55.3 -4.6,22.2 -2.7,45.8 5.8,70.2 1.9,5.2 7.6,8 12.8,6.2 5.2,-1.8 7.9,-7.6 6.1,-12.8 -7.3,-20.9 -9,-40.9 -5.1,-59.5 4.2,-20.6 14.1,-34.3 23.7,-47.7 10.9,-15 21.1,-29.2 20.7,-49.8 -0.5,-23.4 -15.2,-46.4 -43.7,-68.3 -1.9,-1.4 -4,-2.1 -6.1,-2.1"
         style="fill:#363e44;fill-opacity:1;fill-rule:nonzero;stroke:none"
         id="path86" /><path
         d="m 19222.8,8769.7 c -31.9,0 -79.7,6.3 -126.3,36.4 -29.5,19.1 -54.7,45.5 -72.9,76.4 -2.8,4.8 -1.2,10.9 3.5,13.7 4.8,2.8 10.9,1.2 13.7,-3.5 16.6,-28.3 39.6,-52.4 66.6,-69.8 51.6,-33.3 104.8,-34.8 132,-32.6 5.5,0.5 10.3,-3.7 10.8,-9.2 0.4,-5.5 -3.7,-10.3 -9.2,-10.7 -5.2,-0.5 -11.3,-0.7 -18.2,-0.7"
         style="fill:#ffffff;fill-opacity:1;fill-rule:nonzero;stroke:none"
         id="path88" /><path
         d="m 18374.1,9499.2 c 0,0 433.9,-64.3 883.9,466.1 0,0 835.8,-1092.9 1478.7,225 0,0 -376.6,-166.2 -578.6,96.4 -321.5,417.9 -1092.9,755.4 -1398.3,-16 l -385.7,-771.5"
         style="fill:#363e44;fill-opacity:1;fill-rule:nonzero;stroke:none"
         id="path90" /><path
         d="m 19818.1,9441 h -2 c -0.9,-4.2 -3.3,-9.6 -7.7,-9.7 -4.9,-6.4 -6.7,-16.5 -9.9,-23.3 -5.6,-12.2 -24.1,-2.6 -18.5,9.6 3.8,8.1 -23.6,-8.6 -35.7,-14 -38.7,-17.3 -78,-32.9 -117.9,-47.2 -18.6,-6.7 -37.2,-13.6 -56,-19.6 -15.1,-4.8 -64.7,-23.5 -68.9,-21.3 -48.9,-49.9 -75,-96 -75,-96 0,0 75.7,-28.8 171.4,-28.8 0.2,1.3 0.4,2.6 0.6,3.9 1.5,12.9 218.9,76.7 225.4,67.3 89.9,64.3 139.1,151 139.1,151 0,0 -62.1,23.6 -144.9,28.1"
         style="fill:#ffffff;fill-opacity:1;fill-rule:nonzero;stroke:none"
         id="path92" /><path
         d="m 19657.5,9419.6 c -65.1,-23.5 -117.5,-64.9 -155.9,-104 7.3,-41 29,-79.5 64.6,-107 9.1,-7 18.8,-13 28.8,-17.9 43.1,-0.3 90.5,5.3 137,22.1 33.7,12.1 63.7,29.1 90.4,48.1 32.3,57.1 28.9,126.8 -6.3,180.1 -48.7,2.4 -104.2,-1.8 -158.6,-21.4"
         style="fill:#363e44;fill-opacity:1;fill-rule:nonzero;stroke:none"
         id="path94" /><path
         d="m 18739.6,9368 2,0.3 c 1.3,-4.1 4.3,-9.1 8.7,-8.8 5.5,-5.9 8.4,-15.7 12.3,-22.1 6.9,-11.5 24.3,0 17.4,11.4 -4.7,7.8 24.4,-5.9 37,-10 40.3,-13.1 81.1,-24.3 122.2,-34.3 19.2,-4.7 38.5,-9.5 57.8,-13.5 15.5,-3.2 66.9,-16.4 70.8,-13.8 54,-44.4 84.8,-87.4 84.8,-87.4 0,0 -72.1,-36.8 -167.3,-47 -0.3,1.3 -0.7,2.5 -1,3.8 -2.9,12.7 -225.8,52.8 -231.2,42.7 -96.4,54.4 -154.6,135.3 -154.6,135.3 0,0 59.2,30.2 141.1,43.4"
         style="fill:#ffffff;fill-opacity:1;fill-rule:nonzero;stroke:none"
         id="path96" /><path
         d="m 18901.6,9364 c 67.2,-16.4 123.7,-51.9 166.1,-86.7 -2.8,-41.5 -20.3,-82.2 -52.7,-113.2 -8.4,-8 -17.3,-15 -26.7,-21 -42.9,-4.9 -90.7,-4.4 -138.7,7.3 -34.7,8.4 -66.4,22.1 -95,38.1 -38.2,53.3 -42.3,123 -13,179.8 48.1,7.6 103.8,9.4 160,-4.3"
         style="fill:#363e44;fill-opacity:1;fill-rule:nonzero;stroke:none"
         id="path98" /><path
         d="m 20120.5,9295.6 c -1.3,0 -2.5,0.2 -3.7,0.7 -5.1,2 -7.7,7.8 -5.7,12.9 2.5,6.4 61.9,155.2 175.8,168.4 5.6,0.7 10.5,-3.3 11.1,-8.8 0.6,-5.4 -3.3,-10.4 -8.8,-11.1 -101.9,-11.8 -158.9,-154.3 -159.4,-155.7 -1.6,-4 -5.3,-6.4 -9.3,-6.4"
         style="fill:#363e44;fill-opacity:1;fill-rule:nonzero;stroke:none"
         id="path100" /><path
         d="m 18453.5,9150.2 c -3.5,0 -6.9,1.9 -8.8,5.1 -0.8,1.5 -82.1,145 -166.9,147.4 -5.5,0.1 -9.8,4.7 -9.7,10.2 0.2,5.5 4.6,9.8 10,9.8 0.1,0 0.2,0 0.3,0 96,-2.7 180.2,-151.3 183.8,-157.6 2.7,-4.8 0.9,-10.9 -3.9,-13.6 -1.5,-0.9 -3.2,-1.3 -4.8,-1.3"
         style="fill:#363e44;fill-opacity:1;fill-rule:nonzero;stroke:none"
         id="path102" /><path
         d="m 20548.7,13003.5 c 0,-995 -807.5,-1801.5 -1803.5,-1801.5 -996.1,0 -1803.5,806.5 -1803.5,1801.5 0,994.9 807.4,1801.5 1803.5,1801.5 996,0 1803.5,-806.6 1803.5,-1801.5"
         style="fill:#ffffff;fill-opacity:1;fill-rule:nonzero;stroke:none"
         id="path104" /><g
         id="g106"><g
           id="g108"
           clip-path="url(#clipPath112)"><path
             d="m 17458.4,12706 c -541.5,-1199.2 -620.2,-2263.7 1.6,-2544.5 621.8,-280.7 1400.2,493.5 1941.7,1692.7 541.4,1199.1 575.8,2224.9 -46,2505.6 -621.8,280.8 -1355.8,-454.7 -1897.3,-1653.8"
             style="fill:#efbc73;fill-opacity:1;fill-rule:nonzero;stroke:none"
             id="path114" /><path
             d="m 18349.8,13694.4 c -127.5,-282.5 -1.9,-614.8 280.5,-742.3 282.4,-127.5 614.7,-2 742.2,280.4 127.5,282.5 2,614.8 -280.4,742.3 -282.5,127.5 -614.8,2 -742.3,-280.4"
             style="fill:#bc8271;fill-opacity:1;fill-rule:nonzero;stroke:none"
             id="path116" /><path
             d="m 18971.6,14035.8 c -34.3,-70.6 -4.8,-155.6 65.8,-189.9 70.6,-34.2 354.7,-164.5 348.2,-134.9 0,0 -120.7,123.8 -218.6,302.9 -37.7,68.9 -161.1,92.5 -195.4,21.9"
             style="fill:#363e44;fill-opacity:1;fill-rule:nonzero;stroke:none"
             id="path118" /><path
             d="m 19322,13363 c -67.3,-82.6 -77.2,-185.9 -22.1,-230.8 55,-44.9 154.2,-14.3 221.5,68.3 67.3,82.6 77.3,185.9 22.2,230.8 -55.1,44.9 -154.3,14.3 -221.6,-68.3"
             style="fill:#bc8271;fill-opacity:1;fill-rule:nonzero;stroke:none"
             id="path120" /><path
             d="m 19409.3,13185 c -4.2,0 -8.2,2.8 -9.5,7.1 -1.6,5.3 1.3,10.9 6.6,12.5 20.6,6.3 41,20.9 57.3,40.8 16.2,20 26.3,42.9 28.4,64.4 1.9,20 -3.4,36.2 -15.1,45.7 -2.3,1.9 -4.8,3.5 -7.5,4.8 -5,2.3 -7.1,8.3 -4.8,13.3 2.4,5 8.4,7.1 13.4,4.7 4.1,-1.9 8,-4.4 11.5,-7.3 17.1,-13.8 25,-36.3 22.4,-63.2 -2.4,-25.3 -14.1,-52 -32.8,-75 -18.8,-23 -42.5,-39.8 -66.9,-47.3 -1,-0.3 -2,-0.5 -3,-0.5"
             style="fill:#363e44;fill-opacity:1;fill-rule:nonzero;stroke:none"
             id="path122" /><path
             d="m 18481.1,13742.7 c -17.4,-105.1 -88.4,-180.9 -158.5,-169.2 -70,11.6 -112.7,106.2 -95.2,211.3 17.4,105.1 88.4,180.9 158.4,169.3 70.1,-11.7 112.8,-106.3 95.3,-211.4"
             style="fill:#bc8271;fill-opacity:1;fill-rule:nonzero;stroke:none"
             id="path124" /><path
             d="m 18297.4,13687.1 c -3.8,0 -7.5,2.2 -9.2,5.9 -10.4,23.3 -13.5,52.2 -8.7,81.5 4.9,29.2 17.2,55.6 34.6,74.2 18.5,19.8 40.5,28.7 62.2,25.1 4.5,-0.8 8.9,-2.1 13.1,-3.9 5.1,-2.1 7.5,-8 5.3,-13.1 -2.2,-5.1 -8.1,-7.4 -13.1,-5.3 -2.8,1.2 -5.7,2 -8.6,2.5 -14.9,2.5 -30.6,-4.2 -44.3,-18.9 -14.8,-15.8 -25.2,-38.5 -29.4,-63.9 -4.3,-25.4 -1.7,-50.3 7.2,-70 2.3,-5 0,-10.9 -5,-13.2 -1.4,-0.6 -2.8,-0.9 -4.1,-0.9"
             style="fill:#363e44;fill-opacity:1;fill-rule:nonzero;stroke:none"
             id="path126" /><path
             d="m 18785.9,13325.3 c -2.9,0 -5.7,1.2 -7.7,3.6 -22.4,26.5 -31.3,50.7 -26.4,71.9 4.2,18.7 17.6,29 31.7,40 9.8,7.5 20.9,16.2 31.6,29.1 3.5,4.3 9.8,4.9 14.1,1.4 4.2,-3.5 4.9,-9.8 1.3,-14.1 -12.1,-14.7 -24.7,-24.4 -34.8,-32.3 -13.1,-10.1 -21.8,-16.8 -24.4,-28.5 -3.4,-14.8 4.1,-33.1 22.2,-54.6 3.6,-4.3 3,-10.6 -1.2,-14.1 -1.9,-1.6 -4.1,-2.4 -6.4,-2.4"
             style="fill:#363e44;fill-opacity:1;fill-rule:nonzero;stroke:none"
             id="path128" /><path
             d="m 18808.3,13182.1 c -17.2,0 -34.1,3.8 -48.6,11.5 -4.9,2.5 -6.8,8.6 -4.3,13.5 2.6,4.9 8.7,6.7 13.5,4.2 25,-13.1 58.4,-12.2 85.2,2.2 16,8.6 28.8,21.7 35.9,36.8 2.4,5 8.3,7.1 13.3,4.7 5,-2.3 7.2,-8.3 4.8,-13.3 -8.9,-18.9 -24.8,-35.2 -44.5,-45.8 -17,-9.2 -36.4,-13.8 -55.3,-13.8"
             style="fill:#363e44;fill-opacity:1;fill-rule:nonzero;stroke:none"
             id="path130" /><path
             d="m 19201,13399.1 c -32,0 -69.3,4.8 -108.7,19.3 -79.3,29.4 -126.5,83.7 -147.5,113.4 -3.2,4.5 -2.1,10.7 2.4,13.9 4.5,3.2 10.8,2.1 14,-2.4 19.6,-27.8 63.8,-78.6 138.1,-106.1 75.6,-28 143.1,-17.4 176.6,-8.6 5.4,1.3 10.8,-1.8 12.3,-7.2 1.4,-5.3 -1.8,-10.8 -7.2,-12.2 -18.3,-4.8 -46.3,-10.1 -80,-10.1"
             style="fill:#363e44;fill-opacity:1;fill-rule:nonzero;stroke:none"
             id="path132" /><path
             d="m 18719.9,13564.2 c -32.1,0 -69.4,4.8 -108.7,19.4 -79.4,29.4 -126.5,83.6 -147.5,113.4 -3.2,4.5 -2.1,10.7 2.4,13.9 4.5,3.2 10.7,2.1 13.9,-2.4 19.7,-27.8 63.8,-78.6 138.1,-106.1 75.7,-28 143.2,-17.5 176.7,-8.7 5.3,1.4 10.8,-1.8 12.2,-7.1 1.4,-5.4 -1.8,-10.8 -7.1,-12.2 -18.4,-4.8 -46.3,-10.2 -80,-10.2"
             style="fill:#363e44;fill-opacity:1;fill-rule:nonzero;stroke:none"
             id="path134" /><path
             d="m 19164.2,11560.5 c -2.6,0 -5.2,1 -7.1,3 -287.5,289.8 -540.9,612.8 -753.3,959.9 -167.5,273.6 -310.7,564.6 -425.7,864.9 -2,5.2 0.6,10.9 5.7,12.9 5.2,2 11,-0.6 13,-5.8 114.5,-299.1 257.2,-589 424.1,-861.6 211.6,-345.8 464,-667.5 750.4,-956.2 3.8,-4 3.8,-10.3 -0.1,-14.2 -2,-1.9 -4.5,-2.9 -7,-2.9"
             style="fill:#e0aa63;fill-opacity:1;fill-rule:nonzero;stroke:none"
             id="path136" /><path
             d="m 18521.5,10737 c -2.9,0 -5.9,1.3 -7.8,3.8 -273.1,349.7 -505.3,730.7 -690,1132.5 -98.4,213.9 -184.3,436.2 -255.6,660.9 -1.6,5.2 1.3,10.8 6.6,12.5 5.2,1.7 10.8,-1.2 12.5,-6.5 71,-223.8 156.6,-445.4 254.6,-658.5 184.2,-400.4 415.5,-780.1 687.6,-1128.6 3.4,-4.3 2.6,-10.6 -1.7,-14 -1.8,-1.4 -4,-2.1 -6.2,-2.1"
             style="fill:#e0aa63;fill-opacity:1;fill-rule:nonzero;stroke:none"
             id="path138" /><path
             d="m 18721.6,12067.8 c -3.2,0 -6.3,1.5 -8.2,4.3 -3.2,4.6 -2,10.8 2.5,14 237.9,164.4 467.6,346 682.9,539.8 4.1,3.7 10.4,3.4 14.1,-0.7 3.7,-4.1 3.4,-10.5 -0.7,-14.2 -215.9,-194.3 -446.4,-376.5 -684.9,-541.4 -1.7,-1.2 -3.7,-1.8 -5.7,-1.8"
             style="fill:#e0aa63;fill-opacity:1;fill-rule:nonzero;stroke:none"
             id="path140" /><path
             d="m 16983.5,11204.3 c -4.2,0 -8.1,2.6 -9.5,6.9 -1.7,5.2 1.1,10.9 6.4,12.6 333.8,109.7 661.3,246.5 973.5,406.4 4.9,2.5 10.9,0.6 13.5,-4.4 2.5,-4.9 0.5,-10.9 -4.4,-13.4 -313.1,-160.4 -641.6,-297.6 -976.4,-407.6 -1,-0.4 -2.1,-0.5 -3.1,-0.5"
             style="fill:#e0aa63;fill-opacity:1;fill-rule:nonzero;stroke:none"
             id="path142" /><path
             d="m 18477.8,11768.6 c -7.8,0 -15.1,1.5 -21.9,4.6 -64.8,29.3 -52.8,191.2 27.4,368.7 80.1,177.5 193.6,293.6 258.4,264.3 45.1,-20.4 54.6,-102.2 25.5,-219 -1.3,-5.3 -6.8,-8.5 -12.1,-7.3 -5.4,1.4 -8.6,6.8 -7.3,12.2 25.8,103.4 20.2,180.3 -14.3,195.9 -47.1,21.2 -151.5,-75.9 -232,-254.3 -80.6,-178.5 -84.4,-321.1 -37.4,-342.3 39.3,-17.7 112.8,45.4 178.9,153.5 2.9,4.7 9.1,6.2 13.8,3.3 4.7,-2.9 6.2,-9 3.3,-13.7 -63.9,-104.4 -132.5,-165.9 -182.3,-165.9"
             style="fill:#363e44;fill-opacity:1;fill-rule:nonzero;stroke:none"
             id="path144" /><path
             d="m 18762.7,12297.5 h 0.1 z m -51.8,87.6 c -7.4,0 -14.9,-1.7 -22.3,-5 -14.4,-6.5 -26.2,-18.7 -33.2,-34.2 -7,-15.5 -8.3,-32.4 -3.7,-47.6 4.5,-14.6 14.1,-25.9 27,-31.8 27,-12.2 60.6,3.6 74.9,35.1 7,15.5 8.3,32.4 3.6,47.5 -4.4,14.7 -14,26 -26.9,31.8 -6.1,2.8 -12.7,4.2 -19.4,4.2 z m -12.9,-142.7 c -9.4,0 -18.7,1.9 -27.6,5.9 -18.2,8.2 -31.6,23.9 -37.8,44.2 -6,19.8 -4.4,41.7 4.6,61.6 9,20 24.3,35.6 43.2,44.2 19.3,8.8 39.9,9.1 58.1,0.9 18.2,-8.2 31.7,-23.9 37.9,-44.2 6,-19.8 4.4,-41.7 -4.6,-61.6 -14.3,-31.7 -44.1,-51 -73.8,-51"
             style="fill:#363e44;fill-opacity:1;fill-rule:nonzero;stroke:none"
             id="path146" /><path
             d="m 18502.4,11923.5 c -7.3,0 -14.9,-1.7 -22.2,-5 -14.4,-6.6 -26.2,-18.7 -33.2,-34.2 -14.3,-31.5 -3.8,-67.2 23.2,-79.4 12.9,-5.8 27.7,-5.5 41.7,0.9 14.4,6.5 26.2,18.7 33.2,34.2 7,15.4 8.3,32.4 3.7,47.5 -4.5,14.7 -14,26 -26.9,31.8 -6.2,2.8 -12.7,4.2 -19.5,4.2 z m -12.7,-142.8 c -9.6,0 -18.9,2 -27.7,6 -37.1,16.8 -52,64.2 -33.3,105.8 9,20 24.4,35.6 43.2,44.2 19.3,8.8 40,9.1 58.2,0.8 18.2,-8.2 31.6,-23.9 37.8,-44.2 6.1,-19.8 4.5,-41.6 -4.6,-61.6 -8.9,-19.9 -24.3,-35.6 -43.1,-44.2 -10,-4.5 -20.4,-6.8 -30.5,-6.8"
             style="fill:#363e44;fill-opacity:1;fill-rule:nonzero;stroke:none"
             id="path148" /></g></g><path
         d="m 19463.2,16900.8 c 0,-995 -807.5,-1801.5 -1803.5,-1801.5 -996.1,0 -1803.5,806.5 -1803.5,1801.5 0,994.9 807.4,1801.5 1803.5,1801.5 996,0 1803.5,-806.6 1803.5,-1801.5"
         style="fill:#ffffff;fill-opacity:1;fill-rule:nonzero;stroke:none"
         id="path150" /><path
         d="m 19086.4,16048.8 c -317.1,215.6 -835.7,356 -1421.8,356 -590.4,0 -1112.4,-142.5 -1428.8,-360.8 291,-481.4 819.8,-803.4 1423.9,-803.4 606.1,0 1136.3,324.1 1426.7,808.2"
         style="fill:#8b865c;fill-opacity:1;fill-rule:nonzero;stroke:none"
         id="path152" /><path
         d="m 17534.2,15771.4 462.4,72.5 c 80.9,12.7 136.1,88.5 123.5,169.3 l -184.8,1179 c -12.7,80.8 -88.5,136.1 -169.3,123.4 l -462.5,-72.4 c -80.8,-12.7 -136.1,-88.5 -123.4,-169.4 l 184.7,-1178.9 c 12.7,-80.9 88.5,-136.1 169.4,-123.5"
         style="fill:#e2a18d;fill-opacity:1;fill-rule:nonzero;stroke:none"
         id="path154" /><path
         d="m 17497.4,18337.5 c -39.1,6.7 -414.2,66.1 -661.1,-164 -183.7,-171.2 -222.6,-406.5 -225.8,-810.9 -3.7,-476.3 63.2,-761.9 197.8,-866.5 212.6,-165.4 910.5,112.1 1195.7,505.8 205.8,284.2 215.2,670.3 45.7,980.8 -169,309.6 -527.4,350.4 -552.3,354.8"
         style="fill:#e2a18d;fill-opacity:1;fill-rule:nonzero;stroke:none"
         id="path156" /><path
         d="m 17278.8,16473.4 c -4.2,0 -8.2,2.6 -9.5,6.8 -1.8,5.3 1.1,10.9 6.3,12.7 138.7,45.8 279.6,116 407.6,202.8 4.6,3.1 10.8,1.9 13.9,-2.7 3.1,-4.5 1.9,-10.7 -2.7,-13.9 -129.4,-87.8 -272.1,-158.8 -412.5,-205.2 -1.1,-0.4 -2.1,-0.5 -3.1,-0.5"
         style="fill:#363e44;fill-opacity:1;fill-rule:nonzero;stroke:none"
         id="path158" /><path
         d="m 18402.8,17933.1 c -173.7,341.9 -572.4,416.5 -631.7,426.6 -266.5,167.3 -601.4,181.2 -876.3,35.3 -400.8,-212.7 -454,-648.1 -457.7,-683.6 182.6,16 431.7,5.3 598.7,-38.6 l 189.7,264.1 -71.2,-305.5 c 126.5,-53.8 276.4,-142.7 333.7,-218.2 9.7,10.3 93.7,77.4 185.2,63.3 110.8,-17.1 176.2,-129.3 163.5,-236.2 -17.5,-148.1 -121.5,-260.4 -144.2,-281.5 209.5,-121.9 350.4,-93.9 404.5,-77.8 324.7,97.1 503.4,663.4 305.8,1052.1"
         style="fill:#363e44;fill-opacity:1;fill-rule:nonzero;stroke:none"
         id="path160" /><path
         d="m 17296.2,17443.7 c 0,0 -45.7,-173.8 -176.3,-238.2 -130.5,-64.4 -296.3,5 -296.3,5 0,0 12,45.4 41.1,98.3 27.8,50.8 191.4,35.5 191.4,35.5 0,0 49.6,133.6 97.9,130.9 80.5,-4.6 142.2,-31.5 142.2,-31.5"
         style="fill:#ffffff;fill-opacity:1;fill-rule:nonzero;stroke:none"
         id="path162" /><path
         d="m 16999.9,17448.7 c -64.2,-31.6 -107.8,-89.7 -135.7,-140.7 2.5,-7.1 5.2,-14.1 8.6,-21 41.7,-84.6 144,-119.3 228.6,-77.6 84.5,41.8 119.3,144.1 77.5,228.7 -6.8,13.8 -15.3,26.1 -25,37.1 -49,3.2 -104.1,-1.8 -154,-26.5"
         style="fill:#363e44;fill-opacity:1;fill-rule:nonzero;stroke:none"
         id="path164" /><path
         d="m 17670.3,17115.6 c -2.4,0 -4.9,0.9 -6.9,2.8 -4,3.8 -4.1,10.1 -0.3,14.1 54.4,57 53.4,133.7 18.4,169.4 -31.6,32.3 -83.5,25.9 -93.6,24.2 -5.4,-0.8 -10.5,2.9 -11.4,8.3 -0.9,5.5 2.8,10.6 8.3,11.5 11.8,1.9 72.6,9.3 111,-30 41.4,-42.2 46.1,-129.7 -18.2,-197.2 -2,-2.1 -4.6,-3.1 -7.3,-3.1"
         style="fill:#363e44;fill-opacity:1;fill-rule:nonzero;stroke:none"
         id="path166" /><path
         d="m 16691.4,17054.8 c -2.4,0 -4.8,0.8 -6.7,2.5 -31.3,27.9 -44.9,53.3 -41.4,77.4 2.4,17 12.6,27.3 23.5,38.3 7.3,7.4 15.5,15.7 23.1,27.7 13.7,21.4 20.7,47.2 20.9,76.7 0.1,5.5 4.6,9.9 10,9.9 0.1,0 0.1,0 0.1,0 5.5,-0.1 10,-4.6 9.9,-10.1 -0.3,-33.3 -8.3,-62.7 -24,-87.3 -8.7,-13.7 -18.2,-23.3 -25.8,-31 -9.9,-10 -16.4,-16.6 -17.9,-27 -2.4,-16.8 9.4,-36.8 34.9,-59.7 4.2,-3.6 4.5,-10 0.8,-14.1 -1.9,-2.2 -4.7,-3.3 -7.4,-3.3"
         style="fill:#363e44;fill-opacity:1;fill-rule:nonzero;stroke:none"
         id="path168" /><path
         d="m 16884.8,16873.8 c -11.2,0 -22.4,0.8 -33.5,2.4 -5.5,0.8 -9.2,5.9 -8.4,11.3 0.8,5.5 5.8,9.4 11.3,8.5 31.3,-4.6 63.6,-2.1 93.3,7.3 55.1,17.5 89.2,54.2 104.6,74.6 3.3,4.4 9.6,5.3 14,1.9 4.4,-3.3 5.2,-9.6 1.9,-14 -16.8,-22.2 -54.1,-62.4 -114.5,-81.5 -22,-7 -45.3,-10.5 -68.7,-10.5"
         style="fill:#363e44;fill-opacity:1;fill-rule:nonzero;stroke:none"
         id="path170" /><path
         d="m 12026.6,20678.4 c -833,-832.1 -833,-2181.2 0,-3013.3 833,-832.1 2183.5,-832.1 3016.5,0 833,832.1 833,2181.2 0,3013.3 -833,832 -2183.5,832 -3016.5,0"
         style="fill:#ffffff;fill-opacity:1;fill-rule:nonzero;stroke:none"
         id="path172" /><path
         d="M 13559.4,18827.8 11678,18474.5 c 96.4,-256.6 247.9,-497.2 454.5,-703.6 774.5,-773.6 2030.2,-773.6 2804.7,0 212.2,212 366.1,460.1 462.1,724.5 l -1839.9,332.4"
         style="fill:#d87355;fill-opacity:1;fill-rule:nonzero;stroke:none"
         id="path174" /><path
         d="m 15239.5,19484.6 c 0,-387.1 -314.2,-700.9 -701.7,-700.9 -387.6,0 -701.7,313.8 -701.7,700.9 0,387.1 314.1,700.9 701.7,700.9 387.5,0 701.7,-313.8 701.7,-700.9"
         style="fill:#363e44;fill-opacity:1;fill-rule:nonzero;stroke:none"
         id="path176" /><path
         d="m 14630.3,20112.6 c -381.4,0 -691.7,-310 -691.7,-691 0,-380.9 310.3,-690.9 691.7,-690.9 381.4,0 691.8,310 691.8,690.9 0,381 -310.4,691 -691.8,691 z m 0,-1401.9 c -392.4,0 -711.7,318.9 -711.7,710.9 0,392.1 319.3,711 711.7,711 392.5,0 711.8,-318.9 711.8,-711 0,-392 -319.3,-710.9 -711.8,-710.9"
         style="fill:#363e44;fill-opacity:1;fill-rule:nonzero;stroke:none"
         id="path178" /><path
         d="m 13501.7,18136.5 c 279.3,-9.4 513.3,209.1 522.7,488 l 45.9,1355.9 -1011.2,34.1 -45.9,-1355.9 c -9.4,-278.9 209.3,-512.7 488.5,-522.1"
         style="fill:#e2a18d;fill-opacity:1;fill-rule:nonzero;stroke:none"
         id="path180" /><path
         d="m 13477.6,21565.5 c 234.8,128.4 464.9,90 607.9,16.6 406.7,-208.8 609.5,-767.1 462.9,-1426.6 -664,43.7 -1328,87.3 -1991.9,130.9 -58.1,429.7 -62,869.7 180.6,1126.7 313.5,332.1 695.8,154.3 740.5,152.4"
         style="fill:#363e44;fill-opacity:1;fill-rule:nonzero;stroke:none"
         id="path182" /><path
         d="m 12675.8,20362.9 c -35,-548.2 315.2,-1016.6 782.2,-1046.4 467,-29.8 874,390.5 909,938.6 35,548.1 -318.9,973.4 -785.9,1003.2 -467,29.8 -870.3,-347.3 -905.3,-895.4"
         style="fill:#e2a18d;fill-opacity:1;fill-rule:nonzero;stroke:none"
         id="path184" /><path
         d="m 14237.3,20435.5 c -115.4,-151.4 -104.3,-353.7 24.7,-451.8 129,-98.1 327.2,-54.9 442.6,96.6 115.4,151.4 104.3,353.7 -24.7,451.8 -129,98.1 -327.2,54.8 -442.6,-96.6"
         style="fill:#e2a18d;fill-opacity:1;fill-rule:nonzero;stroke:none"
         id="path186" /><path
         d="m 12837.9,20524.7 c 95.2,-164.9 58.5,-364.1 -82,-445 -140.5,-81 -331.5,-12.9 -426.7,151.9 -95.2,164.9 -58.5,364.1 82,445.1 140.5,80.9 331.5,12.8 426.7,-152"
         style="fill:#e2a18d;fill-opacity:1;fill-rule:nonzero;stroke:none"
         id="path188" /><path
         d="m 13505,19305 c -15.8,0 -31.7,0.5 -47.6,1.5 -177.8,11.4 -344.3,85.5 -481.4,214.5 -4,3.8 -4.2,10.1 -0.4,14.1 3.8,4.1 10.1,4.2 14.2,0.5 133.6,-125.8 295.7,-198.1 468.9,-209.1 176.5,-11.3 349.4,41.9 499.9,153.9 4.5,3.3 10.7,2.4 14,-2.1 3.3,-4.4 2.4,-10.6 -2,-13.9 -140.8,-104.8 -300.9,-159.4 -465.6,-159.4"
         style="fill:#363e44;fill-opacity:1;fill-rule:nonzero;stroke:none"
         id="path190" /><path
         d="m 12689.3,20086.3 c -4.8,0 -9,3.5 -9.8,8.3 -10.7,63.4 -16.1,128.6 -16.1,193.8 0,5.5 4.5,10 10,10 v 0 c 5.5,0 10,-4.5 10,-10 0,-64.1 5.3,-128.2 15.8,-190.4 0.9,-5.5 -2.8,-10.6 -8.2,-11.6 -0.6,0 -1.1,-0.1 -1.7,-0.1"
         style="fill:#363e44;fill-opacity:1;fill-rule:nonzero;stroke:none"
         id="path192" /><path
         d="m 14321,19986.8 c -0.9,0 -1.9,0.1 -2.8,0.4 -5.3,1.6 -8.3,7.2 -6.7,12.5 20.8,69.7 35.1,142.5 42.3,216.1 0.5,5.5 5.3,9.5 10.9,9 5.5,-0.6 9.5,-5.5 9,-11 -7.4,-74.9 -21.8,-148.9 -43.1,-219.9 -1.3,-4.3 -5.3,-7.1 -9.6,-7.1"
         style="fill:#363e44;fill-opacity:1;fill-rule:nonzero;stroke:none"
         id="path194" /><path
         d="m 13458.6,19987.7 c -2.1,0 -4.3,0.7 -6.2,2.1 -29.3,23.2 -44.3,47.2 -44.4,71.4 -0.2,21.4 10.6,36 22.1,51.5 10.2,13.7 20.7,28 25.4,49.4 4.3,19.4 2.8,40.4 -4.6,62.3 -1.7,5.3 1.1,10.9 6.4,12.7 5.2,1.7 10.9,-1.1 12.6,-6.3 8.5,-25.5 10.3,-50 5.2,-73 -5.7,-25.6 -18,-42.3 -29,-57 -10.2,-13.9 -18.2,-24.8 -18.1,-39.4 0.1,-17.9 12.5,-36.6 36.8,-55.8 4.4,-3.5 5.1,-9.8 1.7,-14.1 -2,-2.5 -4.9,-3.8 -7.9,-3.8"
         style="fill:#363e44;fill-opacity:1;fill-rule:nonzero;stroke:none"
         id="path196" /><path
         d="m 13591,19793.3 c -8.4,0 -15.9,0.4 -22.1,1 -5.6,0.5 -9.6,5.4 -9.1,10.9 0.5,5.5 5.4,9.6 10.9,9 28.3,-2.6 84,-1.8 138.3,32.3 28.4,17.8 52.8,42.7 70.5,71.9 2.9,4.7 9,6.2 13.7,3.3 4.7,-2.8 6.3,-9 3.4,-13.7 -19.3,-31.9 -45.9,-59 -76.9,-78.5 -47.4,-29.7 -95.5,-36.2 -128.7,-36.2"
         style="fill:#363e44;fill-opacity:1;fill-rule:nonzero;stroke:none"
         id="path198" /><path
         d="m 13387,20154.3 h 0.1 z m -564.7,517 c -95.2,0 -172.1,-31.7 -206.5,-94.4 -31.8,-57.9 -22.8,-134 25.2,-214.4 49,-82.1 132.5,-158.3 235.2,-214.5 210.2,-115.2 435.4,-110.2 502.1,11.1 31.7,57.8 22.8,134 -25.2,214.4 -49.1,82.1 -132.6,158.3 -235.2,214.5 -101.6,55.7 -206.6,83.3 -295.6,83.3 z m 348.5,-625.9 c -92.5,0 -200.3,28.1 -304.2,85 -105.8,58 -192,136.7 -242.8,221.8 -51.8,86.8 -60.9,170 -25.5,234.3 71.9,131 309.3,139.5 529.2,19.1 105.7,-58 191.9,-136.7 242.7,-221.8 51.9,-86.8 60.9,-170 25.6,-234.4 -37.9,-69 -121.9,-104 -225,-104"
         style="fill:#ffffff;fill-opacity:1;fill-rule:nonzero;stroke:none"
         id="path200" /><path
         d="m 13602.9,20161.8 c 45.2,-130.8 266.4,-173.6 493,-95.4 110.6,38.2 205.8,99.2 268,171.9 60.9,71.2 82.5,144.8 61,207.1 -45.3,130.8 -266.4,173.6 -493.1,95.4 -110.6,-38.2 -205.8,-99.2 -268,-171.9 -60.9,-71.2 -82.5,-144.7 -60.9,-207.1 z m 272.8,-154.1 c -143.8,0 -259,52.9 -291.8,147.5 -23.9,69.4 -1,149.9 64.7,226.7 64.5,75.4 162.7,138.5 276.7,177.8 237,81.8 469.6,33.5 518.5,-107.7 24,-69.4 1,-149.9 -64.7,-226.7 -64.5,-75.3 -162.7,-138.5 -276.7,-177.8 -78.2,-27 -155.9,-39.8 -226.7,-39.8"
         style="fill:#ffffff;fill-opacity:1;fill-rule:nonzero;stroke:none"
         id="path202" /><path
         d="m 13575.6,20216.3 c -0.3,0 -0.5,0 -0.8,0 l -168.5,14.3 c -5.5,0.5 -9.6,5.3 -9.1,10.8 0.5,5.5 5.4,9.6 10.8,9.1 l 168.5,-14.2 c 5.5,-0.5 9.5,-5.4 9.1,-10.9 -0.5,-5.2 -4.8,-9.1 -10,-9.1"
         style="fill:#ffffff;fill-opacity:1;fill-rule:nonzero;stroke:none"
         id="path204" /><path
         d="m 14139.3,20412 -2.2,0.4 c -1.5,-4.5 -5.1,-10.1 -9.9,-9.5 -6.4,-6.4 -10,-17.3 -14.5,-24.3 -8.2,-12.6 -27.2,0.8 -19.1,13.4 5.5,8.4 -27.4,-5.9 -41.7,-10 -45.4,-13.2 -91.3,-24.4 -137.5,-34.1 -21.6,-4.5 -43.3,-9.2 -65,-13 -17.4,-3.1 -75.2,-16.1 -79.5,-13 -61.8,-47.7 -97.7,-94.7 -97.7,-94.7 0,0 79.3,-43.4 185.2,-58 0.4,1.4 0.9,2.8 1.2,4.2 3.7,14.1 254,51.2 259.7,39.8 109.4,57.3 177,145.6 177,145.6 0,0 -65,35.6 -156,53.2"
         style="fill:#ffffff;fill-opacity:1;fill-rule:nonzero;stroke:none"
         id="path206" /><path
         d="m 13958.4,20413 c -75.6,-16 -139.9,-53.7 -188.4,-91 1.8,-46.4 19.9,-92.4 55,-128.1 9.1,-9.2 18.9,-17.3 29.1,-24.3 47.8,-6.9 101,-8 155.1,3.4 39,8.3 74.9,22.5 107.3,39.3 44.4,58.2 51.4,135.8 20.6,200.1 -53.4,10.1 -115.5,13.9 -178.7,0.6"
         style="fill:#363e44;fill-opacity:1;fill-rule:nonzero;stroke:none"
         id="path208" /><path
         d="m 12935.1,20496.6 h 2.2 c 0.8,-4.7 3.4,-10.7 8.3,-11 5.2,-7.4 6.9,-18.7 10.2,-26.4 5.9,-13.7 26.9,-3.7 21,10.1 -4,9.2 26.1,-10.4 39.4,-16.9 42.6,-20.6 85.9,-39.2 130,-56.6 20.5,-8.1 41,-16.3 61.8,-23.7 16.7,-5.9 71.5,-28.3 76.2,-26.1 53,-57.3 80.5,-109.6 80.5,-109.6 0,0 -85.5,-29.6 -192.3,-26.3 -0.2,1.5 -0.4,2.9 -0.5,4.4 -1.3,14.5 -241.8,92.9 -249.3,82.6 -98.3,74.8 -150.2,173.1 -150.2,173.1 0,0 70.1,24.3 162.7,26.4"
         style="fill:#ffffff;fill-opacity:1;fill-rule:nonzero;stroke:none"
         id="path210" /><path
         d="m 13113.6,20467.4 c 71.8,-28.4 129,-76.4 170.5,-121.3 -9.5,-45.4 -35.1,-87.7 -75.7,-117 -10.5,-7.6 -21.4,-13.9 -32.7,-19.1 -48.2,1.2 -101,9 -152.3,29.3 -37.1,14.6 -70.1,34.6 -99.3,56.6 -34,64.8 -27.9,142.5 13.2,200.7 54.4,1.1 116.3,-5.5 176.3,-29.2"
         style="fill:#363e44;fill-opacity:1;fill-rule:nonzero;stroke:none"
         id="path212" /><path
         d="m 14759.6,7922.8 c 0,0 -800.1,4016.8 -4865.79,4011 C 5828.12,11928 5061.62,9477.9 5113.79,7676 5140.6,6749.8 5382.64,5096.1 5714.78,3373.5 H 12765 v 3112.4 c 0,0 -55,241.6 -115.6,549.3 901.3,182.2 1690.4,483 2110.2,887.6"
         style="fill:#ffffff;fill-opacity:1;fill-rule:nonzero;stroke:none"
         id="path214" /><path
         d="m 15133.2,9288 c 0,0 1281.5,-2206 -155.4,-3114.6 -873.9,-552.6 -1692.1,-58.1 -2212.9,312.5 -530.5,377.5 -820.1,871.8 -820.1,871.8 L 15133.2,9288"
         style="fill:#ffffff;fill-opacity:1;fill-rule:nonzero;stroke:none"
         id="path216" /><path
         d="m 8619.21,11573.9 c 348.5,-841.3 571.75,-1584.6 776.96,-2493 539.31,-2387.6 344.16,-4071.2 168.5,-5707.4 621.63,0 1477.83,0 2099.43,0 322.4,1401.5 377.2,2927.4 104.4,5034.5 -155,1196.3 -750.6,2578.9 -1177.9,3236.6 -558.3,-5.1 -1413.03,-65.6 -1971.39,-70.7"
         style="fill:#8b865c;fill-opacity:1;fill-rule:nonzero;stroke:none"
         id="path218" /><path
         d="m 13765.9,6841.2 h -3550.2 l 1793.6,4186.6 h 3550.3 L 13765.9,6841.2"
         style="fill:#d87355;fill-opacity:1;fill-rule:nonzero;stroke:none"
         id="path220" /><path
         d="m 10118.4,7072 c -1.3,0 -2.6,0.3 -3.9,0.8 -5.1,2.2 -7.4,8.1 -5.2,13.2 l 1754.4,4095.1 c 1.6,3.6 5.2,6 9.2,6 H 15338 c 5.5,0 10,-4.5 10,-10 0,-5.5 -4.5,-10 -10,-10 h -3458.5 l -1751.9,-4089 c -1.6,-3.8 -5.3,-6.1 -9.2,-6.1"
         style="fill:#d87355;fill-opacity:1;fill-rule:nonzero;stroke:none"
         id="path222" /><path
         d="m 13707.9,10001.3 c 28.6,213.1 507.4,241.7 972,233.7 341.1,-6 728.9,-38.3 728.9,-316 0,-322.9 -480.5,-322.5 -793.2,-295.6 -464.2,39.9 -935.6,169.6 -907.7,377.9"
         style="fill:#e2a18d;fill-opacity:1;fill-rule:nonzero;stroke:none"
         id="path224" /><path
         d="m 13554.1,9515.7 c 31.2,225 553.3,255.2 1059.8,246.7 372,-6.3 794.9,-40.5 794.9,-333.6 0,-340.9 -524,-340.4 -865,-312.1 -506.1,42.1 -1020.2,179.1 -989.7,399"
         style="fill:#e2a18d;fill-opacity:1;fill-rule:nonzero;stroke:none"
         id="path226" /><path
         d="m 13536.1,8932.7 c 17.7,234.1 476.8,285.2 923.9,295.7 328.3,7.7 702.8,-11.6 715.6,-315.2 14.8,-352.9 -447.3,-372.4 -749.3,-356 -448.2,24.3 -907.5,146.6 -890.2,375.5"
         style="fill:#e2a18d;fill-opacity:1;fill-rule:nonzero;stroke:none"
         id="path228" /><path
         d="m 13651.1,8444 c 13.5,193.9 373.8,235.4 724.7,243.2 257.7,5.8 551.7,-10.9 562.2,-262.3 12.3,-292.4 -350.4,-307.7 -587.5,-293.5 -351.8,21 -712.6,123.1 -699.4,312.6"
         style="fill:#e2a18d;fill-opacity:1;fill-rule:nonzero;stroke:none"
         id="path230" /><path
         d="m 14437.4,8119.7 c -37.5,0 -77,1.3 -118.5,3.7 -5.5,0.4 -9.7,5.1 -9.3,10.6 0.3,5.6 5,9.6 10.5,9.4 271.2,-16.1 454.4,20.7 544.8,109.5 44.8,44 66.1,101.7 63.1,171.5 -2.6,63.4 -23.5,113.1 -63.7,152.1 l -13.1,12.7 17.8,4.2 c 203.7,48.4 303.5,155.9 296.6,319.4 -3.7,88.8 -38.8,156 -107.1,205.5 l -19,13.8 23.1,4.1 c 49.8,9 94.7,20.9 133.5,35.6 5.2,2 10.9,-0.6 12.9,-5.8 1.9,-5.1 -0.7,-10.9 -5.8,-12.9 -34.2,-12.9 -72.9,-23.8 -115.3,-32.4 61.2,-51.5 94.1,-121 97.7,-207 7.1,-169.9 -92.2,-282.7 -295.2,-335.6 35.7,-40.4 55,-91.7 57.6,-152.8 3.2,-75.7 -20,-138.5 -69.1,-186.7 -80.4,-79 -228.7,-118.9 -441.5,-118.9"
         style="fill:#363e44;fill-opacity:1;fill-rule:nonzero;stroke:none"
         id="path232" /><path
         d="m 15231.9,9663 c -0.1,0 -0.3,0 -0.5,0 l -986.2,51.1 c -5.5,0.3 -9.7,5 -9.4,10.5 0.3,5.6 4.9,10 10.5,9.5 l 986.2,-51.1 c 5.5,-0.3 9.7,-5 9.4,-10.5 -0.3,-5.4 -4.7,-9.5 -10,-9.5"
         style="fill:#363e44;fill-opacity:1;fill-rule:nonzero;stroke:none"
         id="path234" /><path
         d="m 15092.1,9119.6 c -0.3,0 -0.5,0 -0.7,0 l -958.5,61.6 c -5.5,0.3 -9.7,5.1 -9.4,10.6 0.4,5.5 4.9,9.7 10.7,9.3 l 958.5,-61.5 c 5.5,-0.4 9.7,-5.2 9.3,-10.7 -0.3,-5.3 -4.7,-9.3 -9.9,-9.3"
         style="fill:#363e44;fill-opacity:1;fill-rule:nonzero;stroke:none"
         id="path236" /><path
         d="m 14882.2,8576.2 c -0.1,0 -0.3,0 -0.5,0 l -978.2,45.2 c -5.5,0.2 -9.8,4.9 -9.5,10.4 0.2,5.5 5,9.7 10.4,9.5 l 978.3,-45.1 c 5.5,-0.3 9.8,-5 9.5,-10.5 -0.2,-5.3 -4.7,-9.5 -10,-9.5"
         style="fill:#363e44;fill-opacity:1;fill-rule:nonzero;stroke:none"
         id="path238" /><path
         d="M 9280.39,10816.5 C 8120.35,9924.4 5921.53,5885.1 5921.53,5885.1 l 608.67,-582 c 893.82,-382.5 1927.06,5.2 2359.53,885.4 L 10186,8901.4 c 0,0 237.4,-59.6 336.1,33.1 119.3,112 139.2,340.4 139.2,340.4 0,0 149.4,38.3 205.1,205.1 50.4,150.6 -54.6,264.7 -54.6,264.7 0,0 124.3,178.2 40.7,359.1 -124.5,269.6 -636.8,365.1 -636.8,365.1 0,0 1231.7,-108.9 1216.5,219.2 -14.1,302.4 -1722.55,458.5 -2151.81,128.4"
         style="fill:#e2a18d;fill-opacity:1;fill-rule:nonzero;stroke:none"
         id="path240" /><path
         d="m 10809.6,9735 c -3.2,0 -6.4,1.5 -8.3,4.3 -57.6,84.2 -186.9,236.7 -405.2,311.8 -159.7,54.9 -304.4,46.9 -397.54,30.4 -5.43,-1 -10.63,2.7 -11.58,8.1 -0.96,5.4 2.67,10.6 8.11,11.6 95.51,16.9 243.71,25.2 407.51,-31.2 223.7,-77 356.2,-233.1 415.2,-319.4 3.1,-4.5 2,-10.8 -2.6,-13.9 -1.7,-1.2 -3.7,-1.7 -5.6,-1.7"
         style="fill:#363e44;fill-opacity:1;fill-rule:nonzero;stroke:none"
         id="path242" /><path
         d="m 10669.1,9272.3 c -3,0 -5.9,1.3 -7.9,3.8 -68,86.2 -150.2,155.9 -244.1,207.4 -146.5,80.2 -288.7,97.4 -383.4,97.4 -1.2,0 -2.3,0 -3.5,0 h -0.1 c -5.5,0 -9.9,4.4 -10,9.9 0,5.5 4.5,10 10,10.1 1.2,0 2.4,0 3.6,0 97,0 242.8,-17.6 393,-99.9 96.3,-52.7 180.5,-124.2 250.2,-212.5 3.5,-4.3 2.7,-10.6 -1.6,-14 -1.9,-1.5 -4,-2.2 -6.2,-2.2"
         style="fill:#363e44;fill-opacity:1;fill-rule:nonzero;stroke:none"
         id="path244" /><path
         d="m 10179.6,8897.9 c -1.2,0 -2.5,0.2 -3.7,0.7 -5.1,2 -7.6,7.8 -5.6,13 l 72.1,184.7 c 2,5.1 7.8,7.7 13,5.7 5.1,-2 7.7,-7.8 5.6,-13 l -72.1,-184.7 c -1.5,-4 -5.3,-6.4 -9.3,-6.4"
         style="fill:#363e44;fill-opacity:1;fill-rule:nonzero;stroke:none"
         id="path246" /><path
         d="M 6568.33,5198.6 5522.43,5956.9 7933.16,9544.3 10030.1,8179.3 8899.19,5794.6 C 8479.87,4910.4 7360.62,4624.2 6568.33,5198.6"
         style="fill:#ffffff;fill-opacity:1;fill-rule:nonzero;stroke:none"
         id="path248" /><path
         d="m 6372.84,7212.4 c -1.91,0 -3.86,0.6 -5.56,1.7 -4.59,3.1 -5.81,9.3 -2.73,13.9 L 7930.36,9558.1 8104.12,9445 c 4.63,-3 5.94,-9.2 2.92,-13.8 -3.02,-4.7 -9.18,-6 -13.84,-3 L 7935.97,9530.6 6381.15,7216.8 c -1.93,-2.8 -5.09,-4.4 -8.31,-4.4"
         style="fill:#363e44;fill-opacity:1;fill-rule:nonzero;stroke:none"
         id="path250" /><path
         d="m 7270.42,4748.7 c -527.85,0 -1273.45,259.6 -1995.94,1402.9 -2.95,4.7 -1.55,10.9 3.12,13.8 4.7,3 10.85,1.6 13.8,-3.1 762.66,-1207 1549.13,-1422.3 2074.75,-1390.7 700.76,42.3 1297.1,548.8 1524.01,1027.3 l 1127.14,2376.8 -136.94,89.2 c -4.63,3 -5.94,9.2 -2.92,13.8 3,4.6 9.18,5.9 13.84,2.9 l 151.62,-98.7 -3.7,-7.9 -1130.98,-2384.7 c -116.85,-246.4 -328.85,-494 -581.66,-679.3 -293.16,-214.9 -624.85,-339.2 -959.2,-359.4 -31.39,-1.9 -63.76,-2.9 -96.94,-2.9"
         style="fill:#363e44;fill-opacity:1;fill-rule:nonzero;stroke:none"
         id="path252" /><path
         d="m 7153,8373.4 c -5.26,0 -9.67,4.1 -9.97,9.4 -36.49,630 -193.29,1288.4 -317.66,1537.1 -2.47,5 -0.47,11 4.47,13.4 4.96,2.5 10.94,0.5 13.42,-4.4 128.02,-256.1 282.62,-903.9 319.73,-1544.9 0.32,-5.6 -3.89,-10.3 -9.41,-10.6 -0.19,0 -0.39,0 -0.58,0"
         style="fill:#363e44;fill-opacity:1;fill-rule:nonzero;stroke:none"
         id="path254" /><path
         d="m 11260.7,13571.3 c 507.1,358.1 550.5,525.4 560.9,606.4 58.8,458.7 -574.1,1021.5 -1227.9,1091.4 -480.1,51.3 -857.17,-175.5 -1000.46,-272.9 14.31,220.1 -55.92,292.7 -90.95,318.4 -170.26,124.7 -551.8,-94.4 -757.94,-348.7 -192.7,-237.6 -359.05,-662.5 -181.92,-833.7 117.5,-113.6 337.14,-68.2 424.46,-45.5 -0.12,-134.4 17.74,-429.7 197.06,-742.8 170.85,-298.3 401.03,-460.5 515.4,-530.5 723.65,222.2 1237.15,529 1561.35,757.9"
         style="fill:#363e44;fill-opacity:1;fill-rule:nonzero;stroke:none"
         id="path256" /><path
         d="m 8982.52,11631.5 622.19,1804.8 1066.39,-383.8 -267.9,-1500.3 -1420.68,79.3"
         style="fill:#e2a18d;fill-opacity:1;fill-rule:nonzero;stroke:none"
         id="path258" /><path
         d="m 10597,11609.3 c 0,-168.8 -444.3,-305.7 -992.29,-305.7 -548.02,0 -992.27,136.9 -992.27,305.7 0,168.8 444.25,350 992.27,350 547.99,0 992.29,-181.2 992.29,-350"
         style="fill:#e2a18d;fill-opacity:1;fill-rule:nonzero;stroke:none"
         id="path260" /><path
         d="m 11548.9,13937.2 c 0,0 -161.1,-1591.2 -824.8,-1642.1 -401.6,-30.8 -769.62,437.1 -858.88,656.8 -89.27,219.6 0,578.6 0,578.6 0,0 134.88,-127.9 243.18,-43.4 108.3,84.5 -16.8,616 459.7,594.2 476.5,-21.7 528.1,-225.8 980.8,-144.1"
         style="fill:#e2a18d;fill-opacity:1;fill-rule:nonzero;stroke:none"
         id="path262" /><path
         d="m 10537.9,12281.6 c -1.1,0 -2.3,0.1 -3.5,0.6 -209.4,77.6 -638.84,383.9 -679.09,668.3 -0.77,5.4 3.04,10.5 8.51,11.3 5.51,0.8 10.53,-3.1 11.3,-8.5 39.16,-276.7 460.68,-576.1 666.28,-652.4 5.2,-1.9 7.8,-7.6 5.9,-12.8 -1.5,-4.1 -5.3,-6.5 -9.4,-6.5"
         style="fill:#363e44;fill-opacity:1;fill-rule:nonzero;stroke:none"
         id="path264" /><path
         d="m 10085.5,13668.4 c 47.3,-149.5 1.6,-421.5 -145.85,-469.4 -147.44,-47.9 -340.76,146.5 -388.03,295.9 -47.28,149.4 33.92,309.3 181.36,357.2 147.44,48 305.32,-34.3 352.52,-183.7"
         style="fill:#e2a18d;fill-opacity:1;fill-rule:nonzero;stroke:none"
         id="path266" /><path
         d="m 11514,13390.8 c -1.4,-3 -0.3,-6.1 -1.7,-9 0,-0.2 -0.1,-0.2 -0.2,-0.4 -5.6,-45.3 -11.5,-93.1 -8.9,-138.7 1.2,-20.2 9.7,-34.3 12.9,-53.2 2.4,-13.9 4.6,-27.2 7.4,-40.7 133.4,68.4 213.7,186.3 213.7,186.3 0,0 -99.3,48 -223.2,55.7"
         style="fill:#ffffff;fill-opacity:1;fill-rule:nonzero;stroke:none"
         id="path268" /><path
         d="m 11367.1,13377 c -169.6,-45.2 -281.2,-191.7 -299.2,-216.7 1,-2.3 2,-4.6 3,-6.8 31.9,-14.5 197.4,-83.5 364.2,-39.1 31.3,8.3 60.4,20.3 87.5,34.1 5.5,11.2 10.4,22.7 14.3,34.9 22.9,72 12.1,146.7 -23.1,207.2 -46.5,2.6 -96.5,-0.3 -146.7,-13.6"
         style="fill:#363e44;fill-opacity:1;fill-rule:nonzero;stroke:none"
         id="path270" /><path
         d="m 10618.3,13361.7 c -17.3,-51.1 -20.9,-93 -6.2,-142.5 123.1,-32 233.1,-14.9 233.1,-14.9 0,0 -51.4,160.9 -178.1,268.1 -24.5,-31.1 -36.6,-74.5 -48.8,-110.7"
         style="fill:#ffffff;fill-opacity:1;fill-rule:nonzero;stroke:none"
         id="path272" /><path
         d="m 10609.5,13219.9 c 62.1,66.1 85.6,162.7 57.4,252.3 -14.3,11.9 -29.3,23.3 -45.6,33.6 -162.9,103 -365.8,71.2 -365.8,71.2 0,0 61.1,-198.6 224,-301.5 42.1,-26.6 86.8,-44.1 130,-55.6"
         style="fill:#363e44;fill-opacity:1;fill-rule:nonzero;stroke:none"
         id="path274" /><path
         d="m 9700.33,13471.4 c -4.28,0 -8.24,2.8 -9.56,7.1 -2.94,9.6 -5.11,19.6 -6.42,29.8 -10.79,83.2 37.68,158.6 108.02,167.9 17.45,2.4 34.9,0.5 51.88,-5.4 5.21,-1.9 7.95,-7.6 6.12,-12.8 -1.83,-5.2 -7.51,-8 -12.74,-6.1 -14,4.9 -28.31,6.4 -42.62,4.5 -59.45,-7.9 -100.21,-73.2 -90.83,-145.6 1.17,-9 3.1,-17.9 5.71,-26.4 1.62,-5.3 -1.35,-10.9 -6.63,-12.5 -0.97,-0.3 -1.96,-0.5 -2.93,-0.5"
         style="fill:#363e44;fill-opacity:1;fill-rule:nonzero;stroke:none"
         id="path276" /><path
         d="m 10995.3,12938.7 c -2.9,0 -5.8,1.3 -7.8,3.7 -3.5,4.3 -2.8,10.6 1.5,14.1 19.3,15.5 30.2,32.2 32.3,49.6 2.4,18.2 -5.5,32.1 -16.5,51.4 -8.5,15.2 -18.3,32.3 -25.4,55.8 -9.1,30 -11.4,62.5 -6.8,96.7 0.7,5.4 5.7,9.2 11.2,8.6 5.5,-0.8 9.3,-5.8 8.6,-11.3 -4.2,-31.3 -2.1,-61 6.1,-88.1 6.5,-21.4 15.7,-37.6 23.7,-51.8 11.9,-21 22.1,-39 19,-63.8 -2.9,-22.7 -16.2,-43.8 -39.6,-62.7 -1.9,-1.5 -4.1,-2.2 -6.3,-2.2"
         style="fill:#363e44;fill-opacity:1;fill-rule:nonzero;stroke:none"
         id="path278" /><path
         d="m 10804.2,12737.1 c -20.7,0 -39.3,5.3 -55.6,15.7 -50.4,32.3 -59.7,102.3 -60.1,105.2 -0.7,5.5 3.2,10.5 8.7,11.2 5.4,0.8 10.5,-3.2 11.2,-8.7 0,-0.6 8.6,-63.7 51,-90.9 22.7,-14.5 51.6,-16.3 85.9,-5.5 5.2,1.7 10.9,-1.3 12.5,-6.5 1.7,-5.3 -1.2,-10.9 -6.5,-12.6 -16.7,-5.2 -32.4,-7.9 -47.1,-7.9"
         style="fill:#363e44;fill-opacity:1;fill-rule:nonzero;stroke:none"
         id="path280" /><path
         d="m 11193.3,13928.5 c -1.9,0 -3.8,0.6 -5.5,1.7 -4.6,3 -5.9,9.2 -2.9,13.8 102.6,156.2 132.6,267.6 89.2,331 -43.7,63.8 -148.8,67 -260,70.3 -120.8,3.7 -245.6,7.4 -303.9,91.5 -40.4,58.2 -26.3,124.2 -13.9,182.5 12.8,59.7 23.8,111.3 -16.3,150.6 -36.3,35.7 -87.3,33.3 -146.4,30.6 -66.1,-3.1 -141.1,-6.6 -214.8,42.2 -58.1,38.3 -76.8,83.2 -94.9,126.6 -14.8,35.3 -28.7,68.6 -64,95.7 -96.2,73.7 -285.83,48.4 -563.7,-75.2 -5.03,-2.2 -10.96,0.1 -13.2,5.1 -2.24,5.1 0.03,11 5.08,13.2 285.07,126.8 481.52,151.3 584.02,72.8 39.6,-30.3 55.1,-67.7 70.2,-103.9 17,-40.6 34.5,-82.6 87.5,-117.7 68.3,-45.1 139.8,-41.8 202.9,-38.9 61.1,2.9 118.8,5.5 161.4,-36.2 47.8,-47 34.6,-109.1 21.8,-169.1 -12.2,-56.9 -24.7,-115.8 10.7,-166.8 52.6,-75.9 172.3,-79.5 288.1,-83 116.5,-3.5 226.5,-6.8 275.9,-78.9 48.5,-70.9 18.6,-189.7 -89,-353.4 -1.9,-2.9 -5.1,-4.5 -8.3,-4.5"
         style="fill:#ffffff;fill-opacity:1;fill-rule:nonzero;stroke:none"
         id="path282" /><path
         d="m 11193.3,13928.5 c -1.9,0 -3.8,0.6 -5.5,1.7 -4.6,3 -5.9,9.2 -2.9,13.8 42.8,65.1 50.2,122.9 21.9,171.8 -41.9,72.6 -158.8,112.2 -243.1,107.4 -63.3,-3.7 -118.3,-17.6 -166.8,-29.7 -105.8,-26.6 -189.4,-47.7 -267.2,64.5 -38.7,55.8 -40.8,122.1 -42.8,186.2 -2.1,65.5 -4,127.3 -46.1,168.6 -36.6,35.9 -97.7,34.7 -168.5,33.2 -76.8,-1.6 -164,-3.3 -237.4,45.2 -76.03,50.2 -73.04,124.6 -70.14,196.5 1.25,31.1 2.54,63.3 -2.57,93.4 -4.18,24.6 -23.79,45.8 -53.8,58.4 -53.2,22.2 -214.63,47.6 -563.33,-196.6 -4.49,-3.1 -10.77,-2.1 -13.93,2.5 -3.16,4.5 -2.07,10.7 2.46,13.9 356.83,249.8 526.24,222.1 582.5,198.6 36.47,-15.2 60.46,-42 65.81,-73.4 5.47,-32.2 4.14,-65.4 2.84,-97.6 -2.8,-69.4 -5.44,-135 61.16,-179 68.3,-45.1 152.1,-43.4 226,-41.9 72.1,1.5 140.3,2.9 182.9,-38.9 47.8,-47 49.9,-112.7 52.1,-182.3 1.9,-61.2 3.9,-124.5 39.2,-175.4 69.9,-100.8 139.9,-83.2 246,-56.5 49.3,12.4 105.3,26.4 170.4,30.2 77.8,4.6 210.5,-28.8 261.6,-117.3 22.3,-38.5 36.4,-103.2 -22.5,-192.8 -1.9,-2.9 -5.1,-4.5 -8.3,-4.5"
         style="fill:#ffffff;fill-opacity:1;fill-rule:nonzero;stroke:none"
         id="path284" /><path
         d="m 9525.75,13082.9 220,-220 220.01,220 -220.01,220 z m 220,-244.2 c -2.65,0 -5.19,1.1 -7.07,2.9 l -234.14,234.2 c -3.91,3.9 -3.91,10.2 0,14.1 l 234.14,234.2 c 3.91,3.9 10.24,3.9 14.14,0 l 234.15,-234.2 c 1.88,-1.8 2.93,-4.4 2.93,-7 0,-2.7 -1.05,-5.2 -2.93,-7.1 l -234.15,-234.2 c -1.87,-1.8 -4.41,-2.9 -7.07,-2.9"
         style="fill:#ffffff;fill-opacity:1;fill-rule:nonzero;stroke:none"
         id="path286" /></g></g></svg>
